<svg width="87" height="87" viewBox="0 0 87 87" fill="none" xmlns="http://www.w3.org/2000/svg">
<rect width="87" height="87" fill="url(#paint0_linear_2234_36676)"/>
<path fill-rule="evenodd" clip-rule="evenodd" d="M19.9517 42.8056C19.9517 29.6746 30.2486 19.9521 43.535 19.9521C56.8214 19.9521 67.1183 29.6746 67.1183 42.8054C67.1183 55.9363 56.8214 65.6588 43.535 65.6588C41.1482 65.6588 38.8563 65.3459 36.7068 64.7534C36.2892 64.6396 35.8451 64.6731 35.4493 64.8482L30.7706 66.9102C29.5463 67.4459 28.1655 66.5784 28.1228 65.2416L27.9946 61.0512C27.9756 60.5344 27.7432 60.0557 27.3588 59.7096C22.7702 55.6092 19.9517 49.6742 19.9517 42.8056ZM36.3037 38.5102L29.3758 49.4888C28.7066 50.5412 30.0069 51.7311 30.9986 50.9774L38.4437 45.3316C38.6888 45.1463 38.9875 45.0456 39.2947 45.0448C39.602 45.0439 39.9012 45.1429 40.1473 45.3269L45.6563 49.4557C47.3076 50.693 49.6707 50.2568 50.7716 48.5124L57.6947 37.5385C58.3638 36.4862 57.0636 35.2963 56.0719 36.0499L48.6315 41.691C48.3864 41.8763 48.0877 41.977 47.7805 41.9778C47.4733 41.9787 47.1741 41.8797 46.9279 41.6957L41.4189 37.5669C39.7676 36.3296 37.4045 36.7658 36.3037 38.5102Z" fill="white"/>
<defs>
<linearGradient id="paint0_linear_2234_36676" x1="75.156" y1="0.76272" x2="23.4317" y2="87.4973" gradientUnits="userSpaceOnUse">
<stop stop-color="#FF6968"/>
<stop offset="0.375" stop-color="#D444B9"/>
<stop offset="0.697917" stop-color="#8942FF"/>
<stop offset="1" stop-color="#0595FF"/>
</linearGradient>
</defs>
</svg>
