<svg width="139" height="26" viewBox="0 0 139 26" fill="none" xmlns="http://www.w3.org/2000/svg">
<path fill-rule="evenodd" clip-rule="evenodd" d="M9.35437 0.941406C8.39013 0.941406 7.60847 1.72307 7.60847 2.68731V8.42149H1.76983C0.805594 8.42149 0.0239258 9.20315 0.0239258 10.1674V23.6788C0.0239258 24.643 0.805593 25.4247 1.76983 25.4247H15.1223C16.0865 25.4247 16.8682 24.643 16.8682 23.6788V17.9446H22.7068C23.6711 17.9446 24.4528 17.1629 24.4528 16.1987V2.68731C24.4528 1.72307 23.6711 0.941406 22.7068 0.941406H9.35437ZM16.8682 17.9446V10.1674C16.8682 9.20315 16.0865 8.42149 15.1223 8.42149H7.60847V16.1987C7.60847 17.1629 8.39013 17.9446 9.35437 17.9446H16.8682Z" fill="url(#paint0_linear_2221_30368)"/>
<path d="M43.5769 21.2213H37.7888V4.89345H43.6247C45.267 4.89345 46.6808 5.22032 47.8661 5.87408C49.0514 6.52251 49.9629 7.45531 50.6007 8.67246C51.2438 9.8896 51.5654 11.3459 51.5654 13.0414C51.5654 14.7423 51.2438 16.2039 50.6007 17.4264C49.9629 18.6488 49.046 19.5869 47.8502 20.2407C46.6596 20.8944 45.2351 21.2213 43.5769 21.2213ZM41.2409 18.2635H43.4333C44.4538 18.2635 45.3122 18.0828 46.0085 17.7213C46.7101 17.3546 47.2363 16.7886 47.5871 16.0232C47.9432 15.2525 48.1212 14.2586 48.1212 13.0414C48.1212 11.8349 47.9432 10.849 47.5871 10.0836C47.2363 9.31824 46.7127 8.75484 46.0165 8.39341C45.3202 8.03199 44.4618 7.85128 43.4413 7.85128H41.2409V18.2635ZM57.5508 21.4525C56.7695 21.4525 56.0732 21.317 55.462 21.0459C54.8508 20.7695 54.3671 20.3629 54.011 19.8261C53.6602 19.284 53.4848 18.609 53.4848 17.8011C53.4848 17.1207 53.6097 16.5494 53.8595 16.087C54.1093 15.6246 54.4495 15.2525 54.88 14.9708C55.3105 14.6891 55.7995 14.4765 56.3469 14.333C56.8997 14.1895 57.4791 14.0885 58.085 14.03C58.7972 13.9556 59.3712 13.8865 59.8071 13.8227C60.2429 13.7537 60.5591 13.6527 60.7558 13.5198C60.9524 13.3869 61.0508 13.1903 61.0508 12.9298V12.882C61.0508 12.3771 60.8913 11.9864 60.5724 11.71C60.2588 11.4336 59.8124 11.2954 59.233 11.2954C58.6218 11.2954 58.1355 11.431 57.774 11.702C57.4126 11.9678 57.1734 12.3026 57.0565 12.7066L53.9153 12.4515C54.0748 11.7074 54.3883 11.0642 54.8561 10.5221C55.3238 9.97464 55.9271 9.55475 56.6659 9.26243C57.41 8.96478 58.271 8.81596 59.249 8.81596C59.9293 8.81596 60.5804 8.89569 61.2023 9.05514C61.8294 9.21459 62.3849 9.46174 62.8685 9.79659C63.3575 10.1314 63.7429 10.562 64.0246 11.0882C64.3063 11.609 64.4471 12.2335 64.4471 12.9617V21.2213H61.2262V19.5232H61.1305C60.9338 19.9058 60.6707 20.2433 60.3412 20.5357C60.0117 20.8227 59.6157 21.0486 59.1533 21.2133C58.6909 21.3728 58.1567 21.4525 57.5508 21.4525ZM58.5235 19.1086C59.0231 19.1086 59.4642 19.0102 59.8469 18.8136C60.2296 18.6116 60.5299 18.3406 60.7478 18.0004C60.9657 17.6602 61.0747 17.2749 61.0747 16.8444V15.5448C60.9684 15.6139 60.8222 15.6777 60.6362 15.7362C60.4555 15.7893 60.2509 15.8398 60.0223 15.8877C59.7938 15.9302 59.5652 15.97 59.3367 16.0072C59.1081 16.0391 58.9008 16.0684 58.7148 16.0949C58.3162 16.1534 57.968 16.2464 57.6704 16.374C57.3728 16.5015 57.1415 16.6743 56.9768 16.8922C56.812 17.1048 56.7296 17.3706 56.7296 17.6895C56.7296 18.1519 56.8971 18.5053 57.2319 18.7498C57.5721 18.989 58.0026 19.1086 58.5235 19.1086ZM67.082 21.2213V8.97541H70.3747V11.1121H70.5023C70.7255 10.352 71.1002 9.77799 71.6264 9.38999C72.1526 8.99667 72.7585 8.80002 73.4442 8.80002C73.6142 8.80002 73.7976 8.81065 73.9943 8.83191C74.1909 8.85317 74.3637 8.8824 74.5125 8.91961V11.9332C74.353 11.8854 74.1325 11.8429 73.8508 11.8057C73.5691 11.7685 73.3113 11.7499 73.0774 11.7499C72.5778 11.7499 72.1313 11.8588 71.738 12.0768C71.35 12.2894 71.0418 12.587 70.8132 12.9697C70.59 13.3524 70.4784 13.7935 70.4784 14.2931V21.2213H67.082ZM79.3459 17.6974L79.3538 13.6234H79.8482L83.7707 8.97541H87.6693L82.3994 15.1303H81.5941L79.3459 17.6974ZM76.2685 21.2213V4.89345H79.6648V21.2213H76.2685ZM83.9221 21.2213L80.3185 15.8877L82.5827 13.4879L87.9005 21.2213H83.9221ZM89.3993 21.2213V4.89345H92.7956V11.0323H92.8993C93.0481 10.7028 93.2634 10.368 93.5451 10.0278C93.8321 9.68232 94.2041 9.3953 94.6612 9.16676C95.1236 8.93289 95.6977 8.81596 96.3833 8.81596C97.2762 8.81596 98.1001 9.04983 98.8548 9.51755C99.6095 9.97996 100.213 10.6789 100.665 11.6143C101.116 12.5445 101.342 13.7111 101.342 15.1143C101.342 16.4803 101.122 17.6336 100.681 18.5744C100.245 19.5099 99.6494 20.2194 98.8947 20.7031C98.1452 21.1815 97.3055 21.4206 96.3753 21.4206C95.7163 21.4206 95.1555 21.3117 94.6931 21.0938C94.236 20.8758 93.8613 20.6021 93.569 20.2726C93.2767 19.9377 93.0534 19.6002 92.8993 19.2601H92.7478V21.2213H89.3993ZM92.7239 15.0984C92.7239 15.8265 92.8249 16.4617 93.0268 17.0038C93.2288 17.5459 93.5211 17.9685 93.9038 18.2715C94.2865 18.5691 94.7516 18.7179 95.299 18.7179C95.8518 18.7179 96.3195 18.5664 96.7022 18.2635C97.0849 17.9552 97.3746 17.53 97.5712 16.9879C97.7732 16.4404 97.8742 15.8106 97.8742 15.0984C97.8742 14.3915 97.7759 13.7696 97.5792 13.2328C97.3825 12.696 97.0929 12.2761 96.7102 11.9731C96.3275 11.6701 95.8571 11.5187 95.299 11.5187C94.7463 11.5187 94.2785 11.6648 93.8959 11.9572C93.5185 12.2495 93.2288 12.6641 93.0268 13.2009C92.8249 13.7377 92.7239 14.3702 92.7239 15.0984ZM103.608 21.2213V8.97541H107.005V21.2213H103.608ZM105.315 7.39684C104.81 7.39684 104.376 7.22942 104.015 6.89457C103.659 6.5544 103.481 6.1478 103.481 5.67476C103.481 5.20704 103.659 4.80575 104.015 4.4709C104.376 4.13074 104.81 3.96065 105.315 3.96065C105.82 3.96065 106.25 4.13074 106.606 4.4709C106.968 4.80575 107.148 5.20704 107.148 5.67476C107.148 6.1478 106.968 6.5544 106.606 6.89457C106.25 7.22942 105.82 7.39684 105.315 7.39684ZM116.239 8.97541V11.5266H108.864V8.97541H116.239ZM110.539 6.0415H113.935V17.4583C113.935 17.7718 113.983 18.0163 114.078 18.1917C114.174 18.3618 114.307 18.4814 114.477 18.5505C114.652 18.6196 114.854 18.6541 115.083 18.6541C115.242 18.6541 115.402 18.6409 115.561 18.6143C115.721 18.5824 115.843 18.5585 115.928 18.5425L116.462 21.0698C116.292 21.123 116.053 21.1841 115.745 21.2532C115.436 21.3276 115.062 21.3728 114.621 21.3887C113.802 21.4206 113.085 21.3117 112.468 21.0619C111.857 20.8121 111.381 20.4241 111.041 19.8979C110.701 19.3717 110.533 18.7073 110.539 17.9047V6.0415ZM126.948 4.89345L130.241 10.4583H130.368L133.677 4.89345H137.576L132.593 13.0574L137.687 21.2213H133.717L130.368 15.6485H130.241L126.892 21.2213H122.938L128.048 13.0574L123.034 4.89345H126.948Z" fill="white"/>
<defs>
<linearGradient id="paint0_linear_2221_30368" x1="-0.471683" y1="13.183" x2="24.4528" y2="13.183" gradientUnits="userSpaceOnUse">
<stop stop-color="#27A4FF"/>
<stop offset="0.294496" stop-color="#3354FF"/>
<stop offset="0.504501" stop-color="#7433FF"/>
<stop offset="0.794525" stop-color="#F64ABB"/>
<stop offset="1" stop-color="#FF7C33"/>
</linearGradient>
</defs>
</svg>
