<svg width="87" height="87" viewBox="0 0 87 87" fill="none" xmlns="http://www.w3.org/2000/svg">
<rect width="87" height="87" fill="#4285F4"/>
<path d="M67.2128 44.0713C67.2128 42.0848 67.0516 40.6351 66.7027 39.1318H44.0186V48.098H57.3336C57.0653 50.3262 55.6157 53.6819 52.3942 55.9368L52.349 56.2369L59.5213 61.7932L60.0183 61.8428C64.5818 57.6281 67.2128 51.4268 67.2128 44.0713Z" fill="white"/>
<path d="M44.0186 67.6947C50.5419 67.6947 56.0183 65.547 60.0183 61.8425L52.3943 55.9364C50.3541 57.3592 47.6158 58.3524 44.0186 58.3524C37.6295 58.3524 32.2068 54.1379 30.2738 48.3125L29.9905 48.3366L22.5326 54.1083L22.4351 54.3794C26.4081 62.2718 34.569 67.6947 44.0186 67.6947Z" fill="white"/>
<path d="M30.2737 48.3128C29.7637 46.8095 29.4685 45.1987 29.4685 43.5344C29.4685 41.8699 29.7637 40.2592 30.2469 38.7559L30.2334 38.4357L22.682 32.5713L22.435 32.6888C20.7975 35.964 19.8579 39.6418 19.8579 43.5344C19.8579 47.4269 20.7975 51.1046 22.435 54.3797L30.2737 48.3128Z" fill="white"/>
<path d="M44.0186 28.7161C48.5554 28.7161 51.6157 30.6758 53.3607 32.3134L60.1793 25.6558C55.9916 21.7633 50.5419 19.374 44.0186 19.374C34.5691 19.374 26.4081 24.7967 22.4351 32.6891L30.247 38.7562C32.2068 32.9308 37.6295 28.7161 44.0186 28.7161Z" fill="white"/>
</svg>
