<svg width="61" height="61" viewBox="0 0 61 61" fill="none" xmlns="http://www.w3.org/2000/svg">
<path d="M25.7762 33.0301C25.7762 31.6949 26.8586 30.6125 28.1937 30.6125H33.165C34.5001 30.6125 35.5825 31.6949 35.5825 33.0301V47.8076C35.5825 49.1427 34.5001 50.2251 33.165 50.2251H28.1937C26.8586 50.2251 25.7762 49.1427 25.7762 47.8076V33.0301ZM7 23.2238C7 21.8886 8.08236 20.8063 9.41752 20.8063H14.3888C15.7239 20.8063 16.8063 21.8886 16.8063 23.2238V47.8076C16.8063 49.1427 15.7239 50.2251 14.3888 50.2251H9.41752C8.08236 50.2251 7 49.1427 7 47.8076V23.2238ZM43.7416 13.4175C43.7416 12.0824 44.824 11 46.1591 11H51.1304C52.4655 11 53.5479 12.0824 53.5479 13.4175V47.8076C53.5479 49.1427 52.4655 50.2251 51.1304 50.2251H46.1591C44.824 50.2251 43.7416 49.1427 43.7416 47.8076V13.4175Z" stroke="white" stroke-width="4" stroke-miterlimit="10"/>
</svg>
