<svg width="43" height="43" viewBox="0 0 43 43" fill="none" xmlns="http://www.w3.org/2000/svg">
<path fill-rule="evenodd" clip-rule="evenodd" d="M31.3961 7C31.3961 5.34315 32.7392 4 34.3961 4H38.5088C40.1656 4 41.5087 5.34315 41.5087 7V35.4507C41.5087 37.1075 40.1656 38.4507 38.5087 38.4507H34.3961C32.7392 38.4507 31.3961 37.1075 31.3961 35.4507V7ZM34.3961 6C33.8438 6 33.3961 6.44771 33.3961 7V35.4507C33.3961 36.0029 33.8438 36.4507 34.3961 36.4507H38.5087C39.061 36.4507 39.5087 36.0029 39.5087 35.4507V7C39.5087 6.44771 39.061 6 38.5088 6H34.3961ZM1 15.1127C1 13.4558 2.34315 12.1127 4 12.1127H8.11267C9.76952 12.1127 11.1127 13.4558 11.1127 15.1127V35.4507C11.1127 37.1075 9.76952 38.4507 8.11266 38.4507H4C2.34314 38.4507 1 37.1075 1 35.4507V15.1127ZM4 14.1127C3.44771 14.1127 3 14.5604 3 15.1127V35.4507C3 36.0029 3.44771 36.4507 4 36.4507H8.11266C8.66495 36.4507 9.11267 36.0029 9.11267 35.4507V15.1127C9.11267 14.5604 8.66495 14.1127 8.11267 14.1127H4ZM16.5334 23.2253C16.5334 21.5685 17.8766 20.2253 19.5334 20.2253H23.6461C25.3029 20.2253 26.6461 21.5685 26.6461 23.2253V35.4507C26.6461 37.1075 25.3029 38.4507 23.6461 38.4507H19.5334C17.8766 38.4507 16.5334 37.1075 16.5334 35.4507V23.2253ZM19.5334 22.2253C18.9811 22.2253 18.5334 22.673 18.5334 23.2253V35.4507C18.5334 36.0029 18.9811 36.4507 19.5334 36.4507H23.6461C24.1984 36.4507 24.6461 36.0029 24.6461 35.4507V23.2253C24.6461 22.673 24.1984 22.2253 23.6461 22.2253H19.5334Z" fill="white"/>
</svg>
