<svg width="43" height="43" viewBox="0 0 43 43" fill="none" xmlns="http://www.w3.org/2000/svg">
<g clip-path="url(#clip0_2234_35401)">
<path fill-rule="evenodd" clip-rule="evenodd" d="M39.7216 12.652L38.4436 10.4343C37.3624 8.55781 34.9664 7.91046 33.0873 8.98718V8.98718C32.1928 9.5141 31.1255 9.6636 30.1207 9.4027C29.1159 9.1418 28.2561 8.49194 27.731 7.59642C27.3931 7.02721 27.2116 6.37888 27.2047 5.717V5.717C27.2352 4.65584 26.8349 3.62753 26.0949 2.86632C25.3549 2.10511 24.3384 1.67583 23.2768 1.67627H20.702C19.6619 1.67626 18.6648 2.0907 17.9311 2.82788C17.1974 3.56506 16.7878 4.56421 16.7928 5.60424V5.60424C16.762 7.75155 15.0124 9.47605 12.8648 9.47583C12.2029 9.46895 11.5546 9.28742 10.9854 8.94959V8.94959C9.10633 7.87287 6.71028 8.52023 5.62909 10.3967L4.25712 12.652C3.17724 14.5262 3.81578 16.9207 5.68547 18.0084V18.0084C6.9008 18.71 7.64948 20.0068 7.64948 21.4101C7.64948 22.8134 6.9008 24.1102 5.68547 24.8118V24.8118C3.81815 25.8921 3.17891 28.2808 4.25712 30.1494V30.1494L5.55391 32.3859C6.0605 33.2999 6.91046 33.9745 7.91571 34.2602C8.92096 34.5459 9.99863 34.4192 10.9102 33.9082V33.9082C11.8064 33.3853 12.8743 33.242 13.8766 33.5102C14.8789 33.7784 15.7325 34.4359 16.2478 35.3365C16.5856 35.9057 16.7671 36.5541 16.774 37.2159V37.2159C16.774 39.3853 18.5326 41.1439 20.702 41.1439H23.2768C25.4388 41.1439 27.1944 39.3968 27.2047 37.2347V37.2347C27.1997 36.1914 27.6119 35.1894 28.3497 34.4517C29.0874 33.714 30.0894 33.3017 31.1327 33.3068C31.793 33.3244 32.4387 33.5052 33.0121 33.833V33.833C34.8863 34.9129 37.2808 34.2743 38.3684 32.4047V32.4047L39.7216 30.1494C40.2454 29.2503 40.3892 28.1796 40.1211 27.1742C39.853 26.1689 39.1951 25.3119 38.2933 24.793V24.793C37.3914 24.2742 36.7336 23.4172 36.4655 22.4118C36.1974 21.4065 36.3411 20.3357 36.8649 19.4367C37.2055 18.842 37.6986 18.349 38.2933 18.0084V18.0084C40.1518 16.9213 40.7888 14.5408 39.7216 12.6708V12.6708V12.652Z" stroke="white" stroke-width="2" stroke-linecap="round" stroke-linejoin="round"/>
<circle cx="21.9986" cy="21.4093" r="5.41271" stroke="white" stroke-width="2" stroke-linecap="round" stroke-linejoin="round"/>
</g>
<defs>
<clipPath id="clip0_2234_35401">
<rect width="43" height="43" fill="white"/>
</clipPath>
</defs>
</svg>
