<svg width="41" height="41" viewBox="0 0 41 41" fill="none" xmlns="http://www.w3.org/2000/svg">
<path fill-rule="evenodd" clip-rule="evenodd" d="M16.2254 6C12.5487 6 9.56791 8.97986 9.56791 12.6557C9.56791 16.3315 12.5487 19.3113 16.2254 19.3113H16.2802C19.9392 19.2962 22.8947 16.3192 22.8811 12.6613L22.8811 12.6557C22.8811 8.97963 19.9 6 16.2254 6ZM6.56791 12.6557C6.56791 7.32211 10.8928 3 16.2254 3C21.5554 3 25.8794 7.32067 25.8811 12.6526C25.8996 17.9685 21.6035 22.2915 16.2887 22.3113L16.2831 22.3113H16.2254C10.8928 22.3113 6.56791 17.9892 6.56791 12.6557ZM27.7023 6.3295C27.8364 5.51199 28.6078 4.95796 29.4253 5.09204C33.0529 5.68701 35.8196 8.83306 35.8196 12.6281L35.8196 12.6308C35.8126 16.4811 32.9585 19.6596 29.2518 20.1805C28.4314 20.2958 27.6729 19.7242 27.5576 18.9038C27.4423 18.0835 28.0139 17.325 28.8343 17.2097C31.0826 16.8937 32.8148 14.9617 32.8196 12.6265C32.8188 10.3255 31.1405 8.41343 28.9398 8.05249C28.1222 7.91841 27.5682 7.147 27.7023 6.3295ZM31.4881 25.6355C31.6101 24.8161 32.3733 24.2508 33.1927 24.3728C34.7164 24.5997 36.1936 25.0016 37.3259 25.7445C38.5335 26.5369 39.3707 27.7461 39.3707 29.381C39.3707 30.4641 38.9997 31.4086 38.3282 32.1674C37.6846 32.8948 36.8248 33.3864 35.9223 33.7293C35.1478 34.0235 34.2815 33.6341 33.9874 32.8597C33.6932 32.0852 34.0825 31.219 34.857 30.9248C35.487 30.6855 35.8677 30.4211 36.0815 30.1794C36.2675 29.9692 36.3707 29.7318 36.3707 29.381C36.3707 28.9327 36.2008 28.5945 35.6801 28.2528C35.0841 27.8617 34.1118 27.5428 32.7508 27.3401C31.9314 27.218 31.3661 26.4549 31.4881 25.6355ZM5.6029 30.4348C5.21044 30.846 5 31.3233 5 31.9693C5 32.6118 5.21024 33.0841 5.6028 33.491C6.03112 33.935 6.73129 34.352 7.76479 34.6976C9.84696 35.3938 12.8251 35.6547 16.2254 35.6547C19.6418 35.6547 22.6182 35.3843 24.6939 34.6803C25.7239 34.331 26.4215 33.9107 26.8484 33.4639C27.2406 33.0535 27.4509 32.5772 27.4509 31.9321C27.4509 31.2903 27.2407 30.8176 26.8475 30.4097C26.4186 29.9648 25.7179 29.547 24.6843 29.2004C22.602 28.5023 19.624 28.2393 16.2254 28.2393C12.8086 28.2393 9.83237 28.511 7.75718 29.2163C6.72746 29.5664 6.02995 29.9873 5.6029 30.4348ZM6.79168 26.376C9.3537 25.5051 12.7402 25.2393 16.2254 25.2393C19.6881 25.2393 23.0727 25.496 25.6379 26.356C26.928 26.7886 28.1222 27.4094 29.0073 28.3276C29.928 29.2827 30.4509 30.4973 30.4509 31.9321C30.4509 33.3636 29.933 34.5784 29.0173 35.5366C28.1364 36.4584 26.9464 37.0842 25.6575 37.5213C23.0956 38.3903 19.7093 38.6547 16.2254 38.6547C12.7628 38.6547 9.37815 38.4004 6.81337 37.5427C5.52339 37.1113 4.32902 36.4916 3.44367 35.5738C2.52256 34.619 2 33.4043 2 31.9693C2 30.5377 2.51747 29.3225 3.43258 28.3636C4.3131 27.441 5.50281 26.8141 6.79168 26.376Z" fill="white"/>
</svg>
