<svg width="43" height="43" viewBox="0 0 43 43" fill="none" xmlns="http://www.w3.org/2000/svg">
<path d="M21.3519 7.56451L18.1996 35.9315C18.0833 36.9746 18.9005 37.888 19.9468 37.888C20.8436 37.888 21.5977 37.2137 21.6973 36.3235L24.8496 7.95646C24.9658 6.91346 24.1487 6 23.1024 6C22.2022 6 21.4515 6.6743 21.3519 7.56451ZM31.4198 13.0851C30.7289 13.776 30.7289 14.8987 31.4198 15.5897L37.7742 21.944L31.4198 28.2984C30.7289 28.9893 30.7289 30.112 31.4198 30.8029C32.1107 31.4938 33.2335 31.4938 33.9244 30.8029L41.531 23.1963C42.2219 22.5054 42.2219 21.3826 41.531 20.6917L33.9244 13.0851C33.2335 12.3942 32.1107 12.3942 31.4198 13.0851ZM11.6293 13.0851C10.9384 12.3942 9.81571 12.3942 9.1248 13.0851L1.51818 20.6917C0.827273 21.3826 0.827273 22.5054 1.51818 23.1963L9.1248 30.8029C9.81571 31.4938 10.9384 31.4938 11.6293 30.8029C12.3202 30.112 12.3202 28.9893 11.6293 28.2984L5.27499 21.944L11.6293 15.5897C12.3202 14.8987 12.3202 13.776 11.6293 13.0851Z" fill="white"/>
</svg>
