<svg width="61" height="61" viewBox="0 0 61 61" fill="none" xmlns="http://www.w3.org/2000/svg">
<path fill-rule="evenodd" clip-rule="evenodd" d="M4.58959 5.06785C7.61451 1.82296 11.9274 0 17.0382 0H43.3681C48.4909 0 52.8049 1.82212 55.8276 5.06884C58.8345 8.29855 60.4062 12.7663 60.4062 17.7992V42.607C60.4062 47.6399 58.8345 52.1077 55.8276 55.3374C52.8049 58.5841 48.4909 60.4062 43.3681 60.4062H17.0382C11.9154 60.4062 7.60135 58.5841 4.57863 55.3374C1.57176 52.1077 0 47.6399 0 42.607V17.7992C0 12.7638 1.57998 8.29631 4.58959 5.06785ZM7.67227 7.94155C5.51089 10.2601 4.21439 13.6387 4.21439 17.7992V42.607C4.21439 46.7701 5.50574 50.1484 7.66316 52.4657C9.80474 54.766 12.9562 56.1918 17.0382 56.1918H43.3681C47.45 56.1918 50.6015 54.766 52.7431 52.4657C54.9005 50.1484 56.1918 46.7701 56.1918 42.607V17.7992C56.1918 13.6361 54.9005 10.2579 52.7431 7.94056C50.6015 5.64028 47.45 4.21439 43.3681 4.21439H17.0382C12.9709 4.21439 9.81834 5.63943 7.67227 7.94155ZM30.3103 13.8203C31.4741 13.8203 32.4175 14.7637 32.4175 15.9275V44.4244C32.4175 45.5882 31.4741 46.5316 30.3103 46.5316C29.1466 46.5316 28.2031 45.5882 28.2031 44.4244V15.9275C28.2031 14.7637 29.1466 13.8203 30.3103 13.8203ZM17.1985 23.0449C18.3623 23.0449 19.3057 23.9883 19.3057 25.1521V44.4263C19.3057 45.5901 18.3623 46.5335 17.1985 46.5335C16.0347 46.5335 15.0913 45.5901 15.0913 44.4263V25.1521C15.0913 23.9883 16.0347 23.0449 17.1985 23.0449ZM43.2073 33.2295C44.3711 33.2295 45.3145 34.1729 45.3145 35.3367V44.4258C45.3145 45.5895 44.3711 46.533 43.2073 46.533C42.0435 46.533 41.1001 45.5895 41.1001 44.4258V35.3367C41.1001 34.1729 42.0435 33.2295 43.2073 33.2295Z" fill="white"/>
</svg>
