<svg width="61" height="61" viewBox="0 0 61 61" fill="none" xmlns="http://www.w3.org/2000/svg">
<path fill-rule="evenodd" clip-rule="evenodd" d="M41.4275 54.6312H20.3077C12.5499 54.6312 6.59841 51.8291 8.28891 40.5513L10.2573 25.2673C11.2994 19.64 14.8888 17.4863 18.0383 17.4863H43.7896C46.9853 17.4863 50.3663 19.8021 51.5705 25.2673L53.5389 40.5513C54.9747 50.5554 49.1853 54.6312 41.4275 54.6312Z" stroke="white" stroke-width="4" stroke-linecap="round" stroke-linejoin="round"/>
<path d="M41.7748 16.9305C41.7748 10.8938 36.8811 6.0001 30.8444 6.0001V6.0001C27.9375 5.98778 25.1454 7.13393 23.0855 9.18512C21.0256 11.2363 19.8676 14.0235 19.8677 16.9305H19.8677" stroke="white" stroke-width="4" stroke-linecap="round" stroke-linejoin="round"/>
<path d="M38.3476 28.3244H38.2318" stroke="white" stroke-width="4" stroke-linecap="round" stroke-linejoin="round"/>
<path d="M23.5961 28.3244H23.4804" stroke="white" stroke-width="4" stroke-linecap="round" stroke-linejoin="round"/>
</svg>
