<svg width="87" height="87" viewBox="0 0 87 87" fill="none" xmlns="http://www.w3.org/2000/svg">
<rect width="87" height="87" fill="url(#paint0_linear_2234_36604)"/>
<path d="M39.5388 49.4768L39.1992 37.0932C39.1992 36.7084 38.8823 36.4141 38.52 36.4141C38.1352 36.4141 37.8409 36.7084 37.8409 37.0932L37.5239 49.4768L37.8409 55.4308C37.8409 55.8157 38.1578 56.11 38.52 56.11C38.9049 56.11 39.1992 55.8157 39.1992 55.4308L39.5388 49.4768Z" fill="white"/>
<path d="M37.0953 49.4772L36.7104 36.6183C36.7104 36.256 36.4161 35.9844 36.0765 35.9844C35.7369 35.9844 35.4426 36.256 35.4426 36.6183L35.103 49.4546L35.4426 55.4539C35.4426 55.8161 35.7369 56.0878 36.0765 56.0878C36.4161 56.0878 36.7104 55.8161 36.7104 55.4539L37.0953 49.4772Z" fill="white"/>
<path d="M31.8197 36.7084C31.797 36.4141 31.5707 36.165 31.2763 36.165C30.982 36.165 30.7556 36.3914 30.733 36.7084L30.3481 49.4541L30.733 55.544C30.733 55.8383 30.982 56.0647 31.2763 56.0647C31.5707 56.0647 31.797 55.8383 31.8197 55.5214L32.2725 49.4315L31.8197 36.7084Z" fill="white"/>
<path d="M34.2646 36.2781C34.2646 35.9611 33.9929 35.6895 33.6759 35.6895C33.359 35.6895 33.0873 35.9385 33.0873 36.2781L32.7251 49.454L33.0873 55.4986C33.0873 55.8155 33.359 56.0872 33.6759 56.0872C33.9929 56.0872 34.2419 55.8382 34.2646 55.4986L34.6721 49.454L34.2646 36.2781Z" fill="white"/>
<path d="M21.9257 55.9287C22.1068 55.9287 22.2427 55.7928 22.2653 55.5891L22.8539 49.4539L22.2653 43.115C22.2427 42.9339 22.1068 42.7754 21.9257 42.7754C21.7446 42.7754 21.6088 42.9112 21.5861 43.115L21.0654 49.4539L21.5861 55.5891C21.5861 55.7928 21.7446 55.9287 21.9257 55.9287Z" fill="white"/>
<path d="M42.0066 49.4771L41.6897 34.7617C41.6897 34.5127 41.5538 34.2863 41.3501 34.1505C41.2369 34.0826 41.1011 34.0146 40.9426 34.0146C40.8067 34.0146 40.6709 34.0599 40.5351 34.1278C40.3313 34.2637 40.1955 34.4901 40.1955 34.7391V34.8749L39.9238 49.4544L40.1955 55.3632V55.3859C40.1955 55.5443 40.2634 55.7028 40.3766 55.816C40.5124 55.9745 40.7162 56.0877 40.9426 56.0877C41.1463 56.0877 41.3274 55.9971 41.4633 55.8839C41.5991 55.7481 41.6897 55.567 41.6897 55.3632L41.7123 54.7746L42.0066 49.4771Z" fill="white"/>
<path d="M24.6192 43.5685C24.5965 43.3421 24.4381 43.1836 24.2343 43.1836C24.0306 43.1836 23.8494 43.3421 23.8494 43.5685L23.374 49.4546L23.8494 55.635C23.8721 55.8614 24.0306 56.0199 24.2343 56.0199C24.4381 56.0199 24.6192 55.8614 24.6192 55.635L25.1625 49.4546L24.6192 43.5685Z" fill="white"/>
<path d="M26.5665 39.4473C26.3401 39.4473 26.1364 39.6284 26.1364 39.8774L25.6836 49.4537L26.1364 55.6342C26.159 55.8832 26.3401 56.0643 26.5665 56.0643C26.7929 56.0643 26.9967 55.8832 26.9967 55.6342L27.5174 49.4537L26.9967 39.8774C26.9967 39.651 26.7929 39.4473 26.5665 39.4473Z" fill="white"/>
<path d="M29.3735 55.635L29.8489 49.4772L29.3735 37.7049C29.3509 37.4332 29.1471 37.2295 28.8755 37.2295C28.6038 37.2295 28.4 37.4332 28.3774 37.7049L27.9473 49.4772L28.3774 55.635C28.3774 55.9067 28.6038 56.1104 28.8755 56.1104C29.1471 56.1331 29.3509 55.9067 29.3735 55.635Z" fill="white"/>
<path d="M43.7956 32.746C43.6824 32.6781 43.5466 32.6328 43.3881 32.6328C43.207 32.6328 43.0259 32.7007 42.8901 32.8139C42.7089 32.9498 42.5958 33.1761 42.5958 33.4252V33.5157L42.2788 49.4989L42.4373 52.4419L42.5958 55.3171C42.5958 55.7472 42.958 56.0868 43.3881 56.0868C43.8183 56.0868 44.1578 55.7246 44.1805 55.2945L44.5201 49.4762L44.1805 33.4252C44.1578 33.1309 44.022 32.8818 43.7956 32.746Z" fill="white"/>
<path d="M15.2024 52.8497C15.3156 52.8497 15.4062 52.7591 15.4288 52.6233L15.9269 49.4538L15.4288 46.2391C15.4062 46.1033 15.3156 46.0127 15.2024 46.0127C15.0892 46.0127 14.976 46.1033 14.976 46.2391L14.5459 49.4538L14.976 52.6233C14.976 52.7591 15.0892 52.8497 15.2024 52.8497Z" fill="white"/>
<path d="M17.3536 54.774C17.4668 54.774 17.58 54.6835 17.6026 54.5476L18.2591 49.4539L17.6026 44.2469C17.58 44.1111 17.4894 44.0205 17.3536 44.0205C17.2404 44.0205 17.1272 44.1111 17.1045 44.2469L16.5386 49.4539L17.1045 54.5476C17.1272 54.6835 17.2177 54.774 17.3536 54.774Z" fill="white"/>
<path d="M19.6174 55.7026C19.7759 55.7026 19.8891 55.5894 19.9117 55.4083L20.523 49.4542L19.9117 43.2738C19.8891 43.1153 19.7759 42.9795 19.6174 42.9795C19.459 42.9795 19.3458 43.0927 19.3231 43.2738L18.7798 49.4542L19.3231 55.4083C19.3458 55.5668 19.459 55.7026 19.6174 55.7026Z" fill="white"/>
<path d="M65.3703 41.87C64.3968 41.87 63.4686 42.0738 62.6084 42.4133C62.0424 36.0065 56.6543 30.958 50.089 30.958C48.4816 30.958 46.9195 31.275 45.5385 31.8183C44.9952 32.022 44.8594 32.2484 44.8594 32.6559V55.2723C44.8594 55.7024 45.199 56.042 45.6291 56.0873H65.393C69.3321 56.0873 72.5242 52.9405 72.5242 49.0013C72.5016 45.0621 69.3095 41.87 65.3703 41.87Z" fill="white"/>
<defs>
<linearGradient id="paint0_linear_2234_36604" x1="43.4396" y1="-1.33445e-09" x2="43.4396" y2="87.0149" gradientUnits="userSpaceOnUse">
<stop stop-color="#F6871F"/>
<stop offset="0.2402" stop-color="#F57E20"/>
<stop offset="0.6306" stop-color="#F36621"/>
<stop offset="1" stop-color="#F04923"/>
</linearGradient>
</defs>
</svg>
