<svg width="41" height="41" viewBox="0 0 41 41" fill="none" xmlns="http://www.w3.org/2000/svg">
<path fill-rule="evenodd" clip-rule="evenodd" d="M27.9782 6.75365C29.0045 5.74878 30.6795 5.74878 31.7058 6.75365L27.9782 6.75365ZM27.9782 6.75365L27.0899 7.62481L32.8801 13.3036L33.8099 12.3917C34.8189 11.4032 34.8203 9.80827 33.8099 8.81731L31.7058 6.75365M30.7379 15.4046L24.9477 9.72583L15.0578 19.4256C14.652 19.8236 14.4233 20.353 14.4091 20.9023C14.4091 20.9025 14.4091 20.9022 14.4091 20.9023L14.2856 25.774H19.2237C19.8306 25.774 20.4067 25.5371 20.8273 25.1246L30.7379 15.4046ZM25.8781 4.61127C28.071 2.46291 31.613 2.46291 33.8059 4.61127L35.9106 6.6755C38.1193 8.84174 38.1203 12.368 35.9106 14.5335C35.9104 14.5337 35.9107 14.5333 35.9106 14.5335L22.9279 27.2665C21.9411 28.2343 20.6086 28.774 19.2237 28.774H12.7471C12.3427 28.774 11.9554 28.6107 11.6731 28.3211C11.3907 28.0316 11.2373 27.6403 11.2476 27.236L11.4101 20.8263C11.4444 19.4901 12.0007 18.2219 12.9572 17.2838L25.8781 4.61127ZM4.74396 6.03308C6.55708 4.12526 9.12951 3.06738 12.1499 3.06738H18.6144C19.4428 3.06738 20.1144 3.73896 20.1144 4.56738C20.1144 5.39581 19.4428 6.06738 18.6144 6.06738H12.1499C9.85379 6.06738 8.10127 6.85527 6.91856 8.09974C5.72731 9.35322 5 11.1915 5 13.485V27.583C5 29.8785 5.72456 31.7165 6.9134 32.969C8.09334 34.2122 9.84505 35.0007 12.1499 35.0007H27.4061C29.7119 35.0007 31.4641 34.2121 32.6442 32.969C33.8332 31.7164 34.5577 29.8785 34.5577 27.583V20.7528C34.5577 19.9244 35.2293 19.2528 36.0577 19.2528C36.8861 19.2528 37.5577 19.9244 37.5577 20.7528V27.583C37.5577 30.5137 36.6234 33.1346 34.82 35.0344C33.0077 36.9435 30.434 38.0007 27.4061 38.0007H12.1499C9.12269 38.0007 6.54945 36.9434 4.73746 35.0343C2.93436 33.1346 2 30.5137 2 27.583V13.485C2 10.5525 2.93939 7.9319 4.74396 6.03308Z" fill="white"/>
</svg>
