<svg width="43" height="43" viewBox="0 0 43 43" fill="none" xmlns="http://www.w3.org/2000/svg">
<path fill-rule="evenodd" clip-rule="evenodd" d="M27.8616 5.53738C26.9188 4.55524 25.6162 4.00006 24.2547 4.00006H13.4541C9.41112 3.98451 6.09704 7.20723 6.0018 11.2483V32.0716C5.91239 36.1787 9.16815 39.5822 13.2753 39.6735C13.3355 39.6735 13.3938 39.6755 13.4541 39.6735H28.9826C33.0528 39.5083 36.26 36.1456 36.2308 32.0716V16.2668C36.2308 14.976 35.7317 13.7353 34.8378 12.8041L27.8616 5.53738Z" stroke="white" stroke-width="2" stroke-linecap="round" stroke-linejoin="round"/>
<path d="M25.5117 4.68994V10.3443C25.5117 13.1044 27.7431 15.3416 30.5032 15.3494H35.8582" stroke="white" stroke-width="2" stroke-linecap="round" stroke-linejoin="round"/>
<path d="M25.5118 28.4846H15.0156" stroke="white" stroke-width="2" stroke-linecap="round" stroke-linejoin="round"/>
<path d="M21.5369 21.1911H15.0137" stroke="white" stroke-width="2" stroke-linecap="round" stroke-linejoin="round"/>
</svg>
