<svg width="591" height="471" viewBox="0 0 591 471" fill="none" xmlns="http://www.w3.org/2000/svg">
<mask id="mask0_2234_35932" style="mask-type:alpha" maskUnits="userSpaceOnUse" x="0" y="0" width="591" height="471">
<path d="M0 0H591V471H0V0Z" fill="url(#paint0_linear_2234_35932)"/>
</mask>
<g mask="url(#mask0_2234_35932)">
<mask id="mask1_2234_35932" style="mask-type:alpha" maskUnits="userSpaceOnUse" x="-41" y="-101" width="655" height="655">
<rect x="613.784" y="-100.409" width="654" height="654" rx="25.6815" transform="rotate(90 613.784 -100.409)" fill="#C4C4C4"/>
</mask>
<g mask="url(#mask1_2234_35932)">
<rect x="613.784" y="-100.409" width="654" height="654" rx="25.6815" transform="rotate(90 613.784 -100.409)" fill="#C4C4C4"/>
<mask id="mask2_2234_35932" style="mask-type:alpha" maskUnits="userSpaceOnUse" x="-631" y="-380" width="1528" height="1740">
<path d="M85.6181 1352.65C108.51 1366.43 138.232 1359.03 152.005 1336.14L889.154 110.955C902.927 88.0637 895.534 58.3412 872.643 44.5682L180.024 -372.154C157.132 -385.927 127.41 -378.535 113.637 -355.644L-623.512 869.543C-637.285 892.434 -629.893 922.157 -607.001 935.93L85.6181 1352.65Z" fill="#C4C4C4"/>
</mask>
<g mask="url(#mask2_2234_35932)">
<rect x="974.46" y="99.8623" width="1555.34" height="1109.02" transform="rotate(121.034 974.46 99.8623)" fill="#6066FF"/>
<g filter="url(#filter0_f_2234_35932)">
<path d="M1613.34 -521.221C1420.1 -870.333 980.428 -996.686 631.316 -803.439C282.204 -610.192 155.851 -170.523 349.098 178.589C542.345 527.701 713.16 112.356 1062.27 -80.8915C1411.38 -274.139 1806.59 -172.109 1613.34 -521.221Z" fill="#B14EFF"/>
</g>
<g filter="url(#filter1_f_2234_35932)">
<path d="M-741.857 -162.194C-784.513 56.568 -618.506 273.022 -371.068 321.27C-123.631 369.519 111.537 231.29 154.193 12.5282C196.85 -206.234 298.241 -198.991 50.8037 -247.239C-196.634 -295.488 -699.2 -380.956 -741.857 -162.194Z" fill="#FF36A2" fill-opacity="0.84"/>
</g>
<path d="M592.048 1605.32C655.286 1281 443.642 966.829 119.328 903.591C-204.987 840.352 -519.161 1052 -582.4 1376.31C-645.638 1700.63 -316.208 1528.08 8.10694 1591.31C332.422 1654.55 528.809 1929.63 592.048 1605.32Z" fill="#636AFF"/>
<g filter="url(#filter3_f_2234_35932)">
<path d="M771.631 1143.25C832.763 829.733 628.168 526.023 314.655 464.89C1.14168 403.758 -302.569 608.353 -363.701 921.866C-424.833 1235.38 -106.375 1068.58 207.139 1129.71C520.652 1190.84 710.499 1456.76 771.631 1143.25Z" fill="#4BC9FF"/>
</g>
<g filter="url(#filter4_f_2234_35932)">
<path d="M207.209 813.19C268.342 499.676 63.7464 195.966 -249.767 134.833C-563.28 73.7011 -866.991 278.296 -928.123 591.81C-989.255 905.323 -670.797 738.521 -357.283 799.653C-43.7699 860.785 146.077 1126.7 207.209 813.19Z" fill="#594BFF"/>
</g>
</g>
<g filter="url(#filter5_f_2234_35932)">
<path d="M-255.504 -317.175C-289.629 -142.165 -156.823 30.9982 41.1267 69.5967C239.077 108.195 427.211 -2.38765 461.336 -177.397C495.461 -352.406 576.574 -346.613 378.624 -385.211C180.674 -423.81 -221.379 -492.184 -255.504 -317.175Z" fill="#FF364E" fill-opacity="0.61"/>
<path d="M-255.504 -317.175C-289.629 -142.165 -156.823 30.9982 41.1267 69.5967C239.077 108.195 427.211 -2.38765 461.336 -177.397C495.461 -352.406 576.574 -346.613 378.624 -385.211C180.674 -423.81 -221.379 -492.184 -255.504 -317.175Z" fill="#FF364E" fill-opacity="0.61"/>
</g>
<g filter="url(#filter6_f_2234_35932)">
<path d="M-267.466 -118.119C-287.379 -15.9925 -209.88 85.0572 -94.3664 107.581C21.1475 130.106 130.933 65.5749 150.847 -36.5521C170.761 -138.679 218.095 -135.298 102.581 -157.822C-12.9332 -180.346 -247.552 -220.246 -267.466 -118.119Z" fill="#FFA236" fill-opacity="0.61"/>
</g>
</g>
<g filter="url(#filter7_d_2234_35932)">
<rect x="46.5649" y="43.4482" width="335.795" height="178.275" rx="23.74" fill="#1E1E2B"/>
<rect x="47.0814" y="43.9647" width="334.762" height="177.242" rx="23.2236" stroke="url(#paint1_linear_2234_35932)" stroke-width="1.03284"/>
</g>
<path d="M95.934 95.5892V93.7157H109.014V95.5892H103.53V111.156H101.418V95.5892H95.934ZM115.418 111.429C114.238 111.429 113.201 111.148 112.31 110.586C111.424 110.024 110.732 109.237 110.232 108.227C109.738 107.216 109.491 106.035 109.491 104.684C109.491 103.322 109.738 102.132 110.232 101.116C110.732 100.1 111.424 99.3106 112.31 98.7486C113.201 98.1865 114.238 97.9055 115.418 97.9055C116.599 97.9055 117.633 98.1865 118.518 98.7486C119.41 99.3106 120.102 100.1 120.596 101.116C121.096 102.132 121.345 103.322 121.345 104.684C121.345 106.035 121.096 107.216 120.596 108.227C120.102 109.237 119.41 110.024 118.518 110.586C117.633 111.148 116.599 111.429 115.418 111.429ZM115.418 109.623C116.315 109.623 117.053 109.393 117.633 108.934C118.212 108.474 118.64 107.869 118.918 107.12C119.197 106.37 119.336 105.558 119.336 104.684C119.336 103.81 119.197 102.995 118.918 102.24C118.64 101.485 118.212 100.875 117.633 100.409C117.053 99.9437 116.315 99.7109 115.418 99.7109C114.521 99.7109 113.783 99.9437 113.204 100.409C112.625 100.875 112.197 101.485 111.918 102.24C111.64 102.995 111.501 103.81 111.501 104.684C111.501 105.558 111.64 106.37 111.918 107.12C112.197 107.869 112.625 108.474 113.204 108.934C113.783 109.393 114.521 109.623 115.418 109.623ZM130.102 98.0758V99.779H123.323V98.0758H130.102ZM125.299 94.942H127.309V107.409C127.309 107.977 127.391 108.403 127.556 108.687C127.726 108.965 127.942 109.152 128.203 109.249C128.47 109.34 128.751 109.385 129.046 109.385C129.267 109.385 129.449 109.374 129.591 109.351C129.733 109.322 129.846 109.3 129.932 109.283L130.34 111.088C130.204 111.139 130.014 111.19 129.77 111.241C129.526 111.298 129.216 111.327 128.842 111.327C128.274 111.327 127.717 111.205 127.172 110.96C126.633 110.716 126.185 110.344 125.827 109.845C125.475 109.345 125.299 108.715 125.299 107.954V94.942ZM136.974 111.463C136.145 111.463 135.393 111.307 134.718 110.994C134.042 110.677 133.505 110.22 133.108 109.623C132.711 109.022 132.512 108.295 132.512 107.443C132.512 106.694 132.66 106.086 132.955 105.621C133.25 105.15 133.645 104.781 134.138 104.514C134.632 104.247 135.177 104.048 135.774 103.918C136.375 103.781 136.98 103.674 137.587 103.594C138.382 103.492 139.027 103.415 139.521 103.364C140.02 103.307 140.383 103.214 140.611 103.083C140.843 102.953 140.96 102.726 140.96 102.402V102.334C140.96 101.494 140.73 100.841 140.27 100.375C139.816 99.9096 139.126 99.6768 138.201 99.6768C137.241 99.6768 136.489 99.8869 135.944 100.307C135.399 100.727 135.016 101.176 134.794 101.653L132.887 100.971C133.227 100.176 133.681 99.5576 134.249 99.1148C134.823 98.6663 135.447 98.354 136.123 98.178C136.804 97.9964 137.474 97.9055 138.132 97.9055C138.553 97.9055 139.035 97.9566 139.58 98.0588C140.131 98.1553 140.662 98.3569 141.173 98.6634C141.689 98.97 142.118 99.4327 142.458 100.052C142.799 100.67 142.969 101.499 142.969 102.538V111.156H140.96V109.385H140.858C140.721 109.669 140.494 109.973 140.176 110.296C139.858 110.62 139.435 110.895 138.907 111.122C138.379 111.349 137.735 111.463 136.974 111.463ZM137.281 109.657C138.076 109.657 138.746 109.501 139.291 109.189C139.841 108.877 140.256 108.474 140.534 107.98C140.818 107.486 140.96 106.966 140.96 106.421V104.582C140.875 104.684 140.687 104.778 140.398 104.863C140.114 104.942 139.784 105.013 139.41 105.076C139.041 105.133 138.68 105.184 138.328 105.229C137.982 105.269 137.701 105.303 137.485 105.331C136.963 105.4 136.475 105.51 136.02 105.663C135.572 105.811 135.209 106.035 134.93 106.336C134.658 106.631 134.522 107.035 134.522 107.546C134.522 108.244 134.78 108.772 135.297 109.129C135.819 109.481 136.48 109.657 137.281 109.657ZM148.647 93.7157V111.156H146.638V93.7157H148.647ZM159.073 111.156V98.0758H161.015V100.052H161.151C161.389 99.4043 161.821 98.8792 162.445 98.4761C163.07 98.073 163.774 97.8715 164.557 97.8715C164.705 97.8715 164.889 97.8743 165.111 97.88C165.332 97.8857 165.5 97.8942 165.613 97.9055V99.9493C165.545 99.9323 165.389 99.9068 165.145 99.8727C164.906 99.833 164.654 99.8131 164.387 99.8131C163.751 99.8131 163.183 99.9465 162.684 100.213C162.19 100.474 161.798 100.838 161.509 101.303C161.225 101.763 161.083 102.288 161.083 102.879V111.156H159.073ZM173.082 111.429C171.821 111.429 170.734 111.151 169.82 110.594C168.912 110.032 168.211 109.249 167.717 108.244C167.228 107.233 166.984 106.058 166.984 104.718C166.984 103.378 167.228 102.198 167.717 101.176C168.211 100.148 168.897 99.3475 169.777 98.7741C170.663 98.1951 171.696 97.9055 172.877 97.9055C173.559 97.9055 174.231 98.0191 174.896 98.2462C175.56 98.4732 176.164 98.8423 176.709 99.3532C177.254 99.8585 177.689 100.528 178.012 101.363C178.336 102.198 178.498 103.225 178.498 104.446V105.297H168.415V103.56H176.454C176.454 102.822 176.306 102.163 176.011 101.584C175.722 101.005 175.307 100.548 174.768 100.213C174.234 99.8784 173.604 99.7109 172.877 99.7109C172.077 99.7109 171.384 99.9096 170.799 100.307C170.22 100.699 169.775 101.21 169.462 101.84C169.15 102.47 168.994 103.146 168.994 103.867V105.025C168.994 106.013 169.164 106.85 169.505 107.537C169.851 108.218 170.331 108.738 170.944 109.095C171.557 109.447 172.27 109.623 173.082 109.623C173.61 109.623 174.087 109.55 174.512 109.402C174.944 109.249 175.316 109.022 175.628 108.721C175.94 108.414 176.181 108.034 176.352 107.58L178.293 108.125C178.089 108.783 177.746 109.362 177.263 109.862C176.78 110.356 176.184 110.742 175.475 111.02C174.765 111.293 173.967 111.429 173.082 111.429ZM191.853 98.0758L187.016 111.156H184.972L180.135 98.0758H182.315L185.926 108.499H186.062L189.673 98.0758H191.853ZM199.521 111.429C198.261 111.429 197.174 111.151 196.26 110.594C195.351 110.032 194.65 109.249 194.156 108.244C193.668 107.233 193.424 106.058 193.424 104.718C193.424 103.378 193.668 102.198 194.156 101.176C194.65 100.148 195.337 99.3475 196.217 98.7741C197.103 98.1951 198.136 97.9055 199.317 97.9055C199.998 97.9055 200.671 98.0191 201.335 98.2462C201.999 98.4732 202.604 98.8423 203.149 99.3532C203.694 99.8585 204.128 100.528 204.452 101.363C204.776 102.198 204.937 103.225 204.937 104.446V105.297H194.855V103.56H202.894C202.894 102.822 202.746 102.163 202.451 101.584C202.161 101.005 201.747 100.548 201.207 100.213C200.674 99.8784 200.044 99.7109 199.317 99.7109C198.516 99.7109 197.824 99.9096 197.239 100.307C196.66 100.699 196.214 101.21 195.902 101.84C195.59 102.47 195.434 103.146 195.434 103.867V105.025C195.434 106.013 195.604 106.85 195.945 107.537C196.291 108.218 196.771 108.738 197.384 109.095C197.997 109.447 198.71 109.623 199.521 109.623C200.049 109.623 200.526 109.55 200.952 109.402C201.383 109.249 201.755 109.022 202.068 108.721C202.38 108.414 202.621 108.034 202.791 107.58L204.733 108.125C204.529 108.783 204.185 109.362 203.703 109.862C203.22 110.356 202.624 110.742 201.914 111.02C201.205 111.293 200.407 111.429 199.521 111.429ZM210.004 103.288V111.156H207.995V98.0758H209.936V100.12H210.107C210.413 99.4554 210.879 98.9218 211.503 98.5187C212.128 98.1099 212.934 97.9055 213.922 97.9055C214.807 97.9055 215.582 98.0872 216.247 98.4505C216.911 98.8082 217.427 99.3532 217.796 100.086C218.165 100.812 218.35 101.732 218.35 102.845V111.156H216.34V102.981C216.34 101.953 216.073 101.153 215.54 100.58C215.006 100 214.274 99.7109 213.343 99.7109C212.701 99.7109 212.128 99.85 211.622 100.128C211.123 100.406 210.728 100.812 210.439 101.346C210.149 101.88 210.004 102.527 210.004 103.288ZM230.266 105.808V98.0758H232.276V111.156H230.266V108.942H230.13C229.823 109.606 229.346 110.171 228.699 110.637C228.052 111.097 227.234 111.327 226.246 111.327C225.429 111.327 224.702 111.148 224.066 110.79C223.43 110.427 222.931 109.882 222.567 109.155C222.204 108.423 222.022 107.5 222.022 106.387V98.0758H224.032V106.251C224.032 107.205 224.299 107.966 224.833 108.533C225.372 109.101 226.059 109.385 226.894 109.385C227.393 109.385 227.901 109.257 228.418 109.002C228.94 108.746 229.377 108.355 229.729 107.827C230.087 107.299 230.266 106.626 230.266 105.808ZM241.441 111.429C240.18 111.429 239.093 111.151 238.179 110.594C237.271 110.032 236.57 109.249 236.076 108.244C235.588 107.233 235.343 106.058 235.343 104.718C235.343 103.378 235.588 102.198 236.076 101.176C236.57 100.148 237.257 99.3475 238.137 98.7741C239.022 98.1951 240.056 97.9055 241.236 97.9055C241.918 97.9055 242.59 98.0191 243.255 98.2462C243.919 98.4732 244.524 98.8423 245.069 99.3532C245.614 99.8585 246.048 100.528 246.372 101.363C246.695 102.198 246.857 103.225 246.857 104.446V105.297H236.774V103.56H244.813C244.813 102.822 244.666 102.163 244.37 101.584C244.081 101.005 243.666 100.548 243.127 100.213C242.593 99.8784 241.963 99.7109 241.236 99.7109C240.436 99.7109 239.743 99.9096 239.159 100.307C238.58 100.699 238.134 101.21 237.822 101.84C237.509 102.47 237.353 103.146 237.353 103.867V105.025C237.353 106.013 237.524 106.85 237.864 107.537C238.21 108.218 238.69 108.738 239.303 109.095C239.916 109.447 240.629 109.623 241.441 109.623C241.969 109.623 242.446 109.55 242.872 109.402C243.303 109.249 243.675 109.022 243.987 108.721C244.299 108.414 244.541 108.034 244.711 107.58L246.653 108.125C246.448 108.783 246.105 109.362 245.622 109.862C245.14 110.356 244.543 110.742 243.834 111.02C243.124 111.293 242.326 111.429 241.441 111.429Z" fill="#C3C3D0"/>
<path d="M108.253 174.216V132.596H110.92V174.216H108.253ZM116.594 145.505C116.42 143.966 115.705 142.773 114.448 141.928C113.19 141.072 111.608 140.644 109.7 140.644C108.335 140.644 107.153 140.86 106.156 141.294C105.159 141.717 104.384 142.302 103.831 143.05C103.289 143.787 103.018 144.627 103.018 145.57C103.018 146.361 103.203 147.044 103.571 147.618C103.951 148.193 104.444 148.675 105.051 149.065C105.668 149.444 106.33 149.764 107.034 150.024C107.739 150.274 108.416 150.48 109.066 150.642L112.318 151.488C113.38 151.748 114.469 152.1 115.586 152.544C116.702 152.989 117.737 153.574 118.691 154.3C119.645 155.026 120.414 155.926 120.999 156.999C121.596 158.072 121.894 159.356 121.894 160.852C121.894 162.738 121.406 164.412 120.43 165.876C119.466 167.339 118.062 168.493 116.22 169.338C114.388 170.184 112.172 170.606 109.57 170.606C107.077 170.606 104.921 170.211 103.1 169.42C101.279 168.628 99.8537 167.507 98.824 166.054C97.7944 164.591 97.2254 162.857 97.117 160.852H102.157C102.254 162.055 102.645 163.058 103.327 163.86C104.021 164.651 104.904 165.241 105.977 165.632C107.061 166.011 108.248 166.201 109.538 166.201C110.958 166.201 112.22 165.978 113.326 165.534C114.442 165.079 115.32 164.45 115.96 163.648C116.599 162.835 116.919 161.887 116.919 160.803C116.919 159.817 116.637 159.009 116.073 158.381C115.521 157.752 114.767 157.232 113.814 156.82C112.871 156.408 111.803 156.045 110.611 155.731L106.676 154.658C104.01 153.932 101.897 152.864 100.336 151.455C98.7861 150.046 98.0111 148.182 98.0111 145.862C98.0111 143.944 98.5314 142.269 99.5719 140.839C100.612 139.408 102.021 138.297 103.799 137.506C105.576 136.704 107.581 136.303 109.814 136.303C112.069 136.303 114.057 136.699 115.781 137.49C117.515 138.281 118.88 139.37 119.878 140.757C120.875 142.134 121.395 143.716 121.438 145.505H116.594ZM140.074 136.758V170.054H135.034V141.798H134.839L126.872 147V142.188L135.18 136.758H140.074ZM148.381 163.551V159.486L162.769 136.758H165.972V142.741H163.94L153.649 159.031V159.291H173.369V163.551H148.381ZM164.167 170.054V162.315L164.2 160.462V136.758H168.963V170.054H164.167ZM190.285 170.509C187.955 170.509 185.896 170.108 184.107 169.306C182.33 168.504 180.937 167.398 179.929 165.989C178.921 164.58 178.423 162.976 178.433 161.177C178.423 159.768 178.71 158.473 179.295 157.291C179.891 156.099 180.699 155.108 181.718 154.316C182.736 153.514 183.874 153.005 185.132 152.788V152.593C183.473 152.192 182.146 151.303 181.149 149.927C180.151 148.55 179.658 146.968 179.669 145.18C179.658 143.478 180.108 141.961 181.018 140.627C181.94 139.283 183.202 138.227 184.806 137.457C186.411 136.688 188.237 136.303 190.285 136.303C192.312 136.303 194.122 136.693 195.715 137.473C197.319 138.243 198.582 139.3 199.503 140.644C200.425 141.977 200.891 143.489 200.902 145.18C200.891 146.968 200.381 148.55 199.373 149.927C198.365 151.303 197.054 152.192 195.439 152.593V152.788C196.685 153.005 197.807 153.514 198.804 154.316C199.812 155.108 200.614 156.099 201.21 157.291C201.817 158.473 202.126 159.768 202.137 161.177C202.126 162.976 201.617 164.58 200.609 165.989C199.601 167.398 198.203 168.504 196.414 169.306C194.637 170.108 192.594 170.509 190.285 170.509ZM190.285 166.396C191.662 166.396 192.854 166.168 193.862 165.713C194.87 165.247 195.65 164.602 196.203 163.778C196.756 162.944 197.038 161.968 197.048 160.852C197.038 159.692 196.734 158.668 196.138 157.779C195.553 156.89 194.756 156.191 193.748 155.682C192.74 155.173 191.586 154.918 190.285 154.918C188.974 154.918 187.809 155.173 186.79 155.682C185.771 156.191 184.969 156.89 184.384 157.779C183.798 158.668 183.511 159.692 183.522 160.852C183.511 161.968 183.777 162.944 184.319 163.778C184.872 164.602 185.657 165.247 186.676 165.713C187.695 166.168 188.898 166.396 190.285 166.396ZM190.285 150.902C191.391 150.902 192.372 150.68 193.228 150.236C194.084 149.791 194.756 149.174 195.244 148.382C195.742 147.591 195.997 146.664 196.008 145.602C195.997 144.562 195.748 143.651 195.26 142.871C194.783 142.091 194.117 141.489 193.26 141.066C192.404 140.633 191.412 140.416 190.285 140.416C189.136 140.416 188.128 140.633 187.261 141.066C186.405 141.489 185.739 142.091 185.262 142.871C184.785 143.651 184.552 144.562 184.563 145.602C184.552 146.664 184.79 147.591 185.278 148.382C185.766 149.174 186.438 149.791 187.294 150.236C188.161 150.68 189.158 150.902 190.285 150.902ZM213.367 165.502L213.123 167.274C212.961 168.574 212.684 169.929 212.294 171.338C211.915 172.758 211.519 174.075 211.107 175.289C210.706 176.503 210.376 177.467 210.116 178.183H206.669C206.81 177.511 207.005 176.6 207.254 175.451C207.503 174.313 207.747 173.04 207.986 171.631C208.224 170.222 208.403 168.786 208.522 167.322L208.685 165.502H213.367ZM230.551 170.606C227.983 170.596 225.788 169.918 223.967 168.574C222.146 167.23 220.753 165.274 219.789 162.705C218.824 160.137 218.342 157.042 218.342 153.422C218.342 149.813 218.824 146.729 219.789 144.172C220.764 141.614 222.162 139.663 223.983 138.319C225.815 136.975 228.004 136.303 230.551 136.303C233.098 136.303 235.282 136.98 237.103 138.335C238.924 139.679 240.317 141.63 241.281 144.188C242.257 146.735 242.745 149.813 242.745 153.422C242.745 157.053 242.262 160.153 241.298 162.722C240.333 165.279 238.94 167.236 237.119 168.591C235.299 169.934 233.109 170.606 230.551 170.606ZM230.551 166.266C232.806 166.266 234.567 165.166 235.835 162.965C237.114 160.765 237.753 157.584 237.753 153.422C237.753 150.658 237.461 148.323 236.876 146.415C236.301 144.497 235.472 143.044 234.388 142.058C233.315 141.061 232.036 140.562 230.551 140.562C228.308 140.562 226.547 141.668 225.268 143.879C223.989 146.09 223.344 149.271 223.333 153.422C223.333 156.197 223.62 158.543 224.195 160.462C224.78 162.369 225.609 163.816 226.682 164.803C227.755 165.778 229.045 166.266 230.551 166.266ZM259.502 170.509C257.464 170.509 255.633 170.119 254.007 169.338C252.392 168.547 251.102 167.463 250.138 166.087C249.173 164.71 248.658 163.139 248.593 161.372H253.47C253.59 162.803 254.224 163.979 255.373 164.9C256.522 165.821 257.898 166.282 259.502 166.282C260.781 166.282 261.914 165.989 262.9 165.404C263.897 164.808 264.677 163.99 265.241 162.949C265.815 161.909 266.103 160.722 266.103 159.389C266.103 158.034 265.81 156.825 265.225 155.763C264.639 154.701 263.832 153.867 262.802 153.26C261.784 152.653 260.613 152.344 259.291 152.333C258.283 152.333 257.269 152.506 256.251 152.853C255.232 153.2 254.408 153.655 253.779 154.219L249.178 153.536L251.048 136.758H269.354V141.066H255.226L254.17 150.382H254.365C255.015 149.753 255.877 149.228 256.95 148.805C258.033 148.382 259.193 148.171 260.429 148.171C262.456 148.171 264.26 148.653 265.843 149.618C267.436 150.583 268.688 151.899 269.598 153.568C270.519 155.227 270.975 157.134 270.964 159.291C270.975 161.448 270.487 163.372 269.501 165.063C268.525 166.753 267.17 168.087 265.436 169.062C263.713 170.027 261.735 170.509 259.502 170.509ZM288.152 170.509C285.822 170.509 283.762 170.108 281.974 169.306C280.197 168.504 278.804 167.398 277.796 165.989C276.788 164.58 276.289 162.976 276.3 161.177C276.289 159.768 276.577 158.473 277.162 157.291C277.758 156.099 278.565 155.108 279.584 154.316C280.603 153.514 281.741 153.005 282.998 152.788V152.593C281.34 152.192 280.012 151.303 279.015 149.927C278.018 148.55 277.525 146.968 277.536 145.18C277.525 143.478 277.975 141.961 278.885 140.627C279.806 139.283 281.069 138.227 282.673 137.457C284.277 136.688 286.104 136.303 288.152 136.303C290.179 136.303 291.989 136.693 293.582 137.473C295.186 138.243 296.449 139.3 297.37 140.644C298.291 141.977 298.757 143.489 298.768 145.18C298.757 146.968 298.248 148.55 297.24 149.927C296.232 151.303 294.921 152.192 293.306 152.593V152.788C294.552 153.005 295.674 153.514 296.671 154.316C297.679 155.108 298.481 156.099 299.077 157.291C299.684 158.473 299.993 159.768 300.004 161.177C299.993 162.976 299.484 164.58 298.476 165.989C297.468 167.398 296.07 168.504 294.281 169.306C292.504 170.108 290.461 170.509 288.152 170.509ZM288.152 166.396C289.529 166.396 290.721 166.168 291.729 165.713C292.737 165.247 293.517 164.602 294.07 163.778C294.623 162.944 294.904 161.968 294.915 160.852C294.904 159.692 294.601 158.668 294.005 157.779C293.42 156.89 292.623 156.191 291.615 155.682C290.607 155.173 289.453 154.918 288.152 154.918C286.841 154.918 285.675 155.173 284.657 155.682C283.638 156.191 282.836 156.89 282.251 157.779C281.665 158.668 281.378 159.692 281.389 160.852C281.378 161.968 281.644 162.944 282.186 163.778C282.738 164.602 283.524 165.247 284.543 165.713C285.562 166.168 286.765 166.396 288.152 166.396ZM288.152 150.902C289.258 150.902 290.238 150.68 291.095 150.236C291.951 149.791 292.623 149.174 293.111 148.382C293.609 147.591 293.864 146.664 293.875 145.602C293.864 144.562 293.615 143.651 293.127 142.871C292.65 142.091 291.983 141.489 291.127 141.066C290.271 140.633 289.279 140.416 288.152 140.416C287.003 140.416 285.995 140.633 285.128 141.066C284.272 141.489 283.605 142.091 283.128 142.871C282.652 143.651 282.419 144.562 282.429 145.602C282.419 146.664 282.657 147.591 283.145 148.382C283.632 149.174 284.304 149.791 285.161 150.236C286.028 150.68 287.025 150.902 288.152 150.902Z" fill="white"/>
<path d="M340.008 167.784L330.756 158.531L321.503 167.784" stroke="#8F8FA5" stroke-width="3.0521" stroke-linecap="round" stroke-linejoin="round"/>
<g filter="url(#filter8_d_2234_35932)">
<rect x="420.036" y="43.4482" width="335.795" height="178.275" rx="23.74" fill="#1E1E2B"/>
<rect x="420.553" y="43.9647" width="334.762" height="177.242" rx="23.2236" stroke="url(#paint2_linear_2234_35932)" stroke-width="1.03284"/>
</g>
<path d="M469.405 95.5892V93.7157H482.486V95.5892H477.001V111.156H474.889V95.5892H469.405ZM488.89 111.429C487.709 111.429 486.673 111.148 485.781 110.586C484.896 110.024 484.203 109.237 483.703 108.227C483.209 107.216 482.963 106.035 482.963 104.684C482.963 103.322 483.209 102.132 483.703 101.116C484.203 100.1 484.896 99.3106 485.781 98.7486C486.673 98.1865 487.709 97.9055 488.89 97.9055C490.07 97.9055 491.104 98.1865 491.989 98.7486C492.881 99.3106 493.573 100.1 494.067 101.116C494.567 102.132 494.817 103.322 494.817 104.684C494.817 106.035 494.567 107.216 494.067 108.227C493.573 109.237 492.881 110.024 491.989 110.586C491.104 111.148 490.07 111.429 488.89 111.429ZM488.89 109.623C489.787 109.623 490.525 109.393 491.104 108.934C491.683 108.474 492.111 107.869 492.39 107.12C492.668 106.37 492.807 105.558 492.807 104.684C492.807 103.81 492.668 102.995 492.39 102.24C492.111 101.485 491.683 100.875 491.104 100.409C490.525 99.9437 489.787 99.7109 488.89 99.7109C487.993 99.7109 487.255 99.9437 486.675 100.409C486.096 100.875 485.668 101.485 485.39 102.24C485.111 102.995 484.972 103.81 484.972 104.684C484.972 105.558 485.111 106.37 485.39 107.12C485.668 107.869 486.096 108.474 486.675 108.934C487.255 109.393 487.993 109.623 488.89 109.623ZM503.573 98.0758V99.779H496.794V98.0758H503.573ZM498.77 94.942H500.78V107.409C500.78 107.977 500.862 108.403 501.027 108.687C501.197 108.965 501.413 109.152 501.674 109.249C501.941 109.34 502.222 109.385 502.517 109.385C502.739 109.385 502.92 109.374 503.062 109.351C503.204 109.322 503.318 109.3 503.403 109.283L503.812 111.088C503.675 111.139 503.485 111.19 503.241 111.241C502.997 111.298 502.687 111.327 502.313 111.327C501.745 111.327 501.189 111.205 500.644 110.96C500.104 110.716 499.656 110.344 499.298 109.845C498.946 109.345 498.77 108.715 498.77 107.954V94.942ZM510.445 111.463C509.617 111.463 508.864 111.307 508.189 110.994C507.513 110.677 506.977 110.22 506.579 109.623C506.182 109.022 505.983 108.295 505.983 107.443C505.983 106.694 506.131 106.086 506.426 105.621C506.721 105.15 507.116 104.781 507.61 104.514C508.104 104.247 508.649 104.048 509.245 103.918C509.846 103.781 510.451 103.674 511.059 103.594C511.853 103.492 512.498 103.415 512.992 103.364C513.491 103.307 513.855 103.214 514.082 103.083C514.314 102.953 514.431 102.726 514.431 102.402V102.334C514.431 101.494 514.201 100.841 513.741 100.375C513.287 99.9096 512.597 99.6768 511.672 99.6768C510.712 99.6768 509.96 99.8869 509.415 100.307C508.87 100.727 508.487 101.176 508.265 101.653L506.358 100.971C506.698 100.176 507.153 99.5576 507.72 99.1148C508.294 98.6663 508.918 98.354 509.594 98.178C510.275 97.9964 510.945 97.9055 511.604 97.9055C512.024 97.9055 512.506 97.9566 513.051 98.0588C513.602 98.1553 514.133 98.3569 514.644 98.6634C515.16 98.97 515.589 99.4327 515.93 100.052C516.27 100.67 516.441 101.499 516.441 102.538V111.156H514.431V109.385H514.329C514.192 109.669 513.965 109.973 513.647 110.296C513.329 110.62 512.907 110.895 512.379 111.122C511.851 111.349 511.206 111.463 510.445 111.463ZM510.752 109.657C511.547 109.657 512.217 109.501 512.762 109.189C513.312 108.877 513.727 108.474 514.005 107.98C514.289 107.486 514.431 106.966 514.431 106.421V104.582C514.346 104.684 514.158 104.778 513.869 104.863C513.585 104.942 513.256 105.013 512.881 105.076C512.512 105.133 512.151 105.184 511.799 105.229C511.453 105.269 511.172 105.303 510.956 105.331C510.434 105.4 509.946 105.51 509.492 105.663C509.043 105.811 508.68 106.035 508.402 106.336C508.129 106.631 507.993 107.035 507.993 107.546C507.993 108.244 508.251 108.772 508.768 109.129C509.29 109.481 509.952 109.657 510.752 109.657ZM522.119 93.7157V111.156H520.109V93.7157H522.119ZM538.028 111.429C536.768 111.429 535.681 111.151 534.767 110.594C533.858 110.032 533.157 109.249 532.663 108.244C532.175 107.233 531.931 106.058 531.931 104.718C531.931 103.378 532.175 102.198 532.663 101.176C533.157 100.148 533.844 99.3475 534.724 98.7741C535.61 98.1951 536.643 97.9055 537.824 97.9055C538.505 97.9055 539.178 98.0191 539.842 98.2462C540.507 98.4732 541.111 98.8423 541.656 99.3532C542.201 99.8585 542.636 100.528 542.959 101.363C543.283 102.198 543.445 103.225 543.445 104.446V105.297H533.362V103.56H541.401C541.401 102.822 541.253 102.163 540.958 101.584C540.668 101.005 540.254 100.548 539.715 100.213C539.181 99.8784 538.551 99.7109 537.824 99.7109C537.024 99.7109 536.331 99.9096 535.746 100.307C535.167 100.699 534.721 101.21 534.409 101.84C534.097 102.47 533.941 103.146 533.941 103.867V105.025C533.941 106.013 534.111 106.85 534.452 107.537C534.798 108.218 535.278 108.738 535.891 109.095C536.504 109.447 537.217 109.623 538.028 109.623C538.556 109.623 539.033 109.55 539.459 109.402C539.891 109.249 540.262 109.022 540.575 108.721C540.887 108.414 541.128 108.034 541.299 107.58L543.24 108.125C543.036 108.783 542.692 109.362 542.21 109.862C541.727 110.356 541.131 110.742 540.421 111.02C539.712 111.293 538.914 111.429 538.028 111.429ZM547.649 98.0758L550.783 103.424L553.917 98.0758H556.233L552.009 104.616L556.233 111.156H553.917L550.783 106.081L547.649 111.156H545.333L549.489 104.616L545.333 98.0758H547.649ZM559.101 116.061V98.0758H561.043V100.154H561.281C561.429 99.9266 561.633 99.6371 561.894 99.2851C562.161 98.9274 562.541 98.6095 563.035 98.3313C563.535 98.0475 564.211 97.9055 565.062 97.9055C566.164 97.9055 567.134 98.1809 567.975 98.7316C568.815 99.2823 569.471 100.063 569.942 101.073C570.413 102.084 570.649 103.276 570.649 104.65C570.649 106.035 570.413 107.236 569.942 108.252C569.471 109.263 568.818 110.046 567.983 110.603C567.149 111.153 566.186 111.429 565.096 111.429C564.256 111.429 563.583 111.29 563.078 111.011C562.573 110.728 562.184 110.407 561.911 110.049C561.639 109.686 561.429 109.385 561.281 109.146H561.111V116.061H559.101ZM561.077 104.616C561.077 105.604 561.221 106.475 561.511 107.23C561.801 107.98 562.223 108.567 562.78 108.993C563.336 109.413 564.018 109.623 564.824 109.623C565.664 109.623 566.365 109.402 566.927 108.959C567.495 108.511 567.921 107.909 568.204 107.154C568.494 106.393 568.639 105.547 568.639 104.616C568.639 103.696 568.497 102.867 568.213 102.129C567.935 101.386 567.512 100.798 566.944 100.367C566.382 99.9295 565.675 99.7109 564.824 99.7109C564.006 99.7109 563.319 99.9181 562.763 100.333C562.206 100.741 561.786 101.315 561.502 102.053C561.219 102.785 561.077 103.64 561.077 104.616ZM579.199 111.429C577.938 111.429 576.851 111.151 575.937 110.594C575.029 110.032 574.327 109.249 573.833 108.244C573.345 107.233 573.101 106.058 573.101 104.718C573.101 103.378 573.345 102.198 573.833 101.176C574.327 100.148 575.014 99.3475 575.894 98.7741C576.78 98.1951 577.813 97.9055 578.994 97.9055C579.675 97.9055 580.348 98.0191 581.012 98.2462C581.677 98.4732 582.281 98.8423 582.826 99.3532C583.371 99.8585 583.806 100.528 584.129 101.363C584.453 102.198 584.615 103.225 584.615 104.446V105.297H574.532V103.56H582.571C582.571 102.822 582.423 102.163 582.128 101.584C581.838 101.005 581.424 100.548 580.885 100.213C580.351 99.8784 579.721 99.7109 578.994 99.7109C578.194 99.7109 577.501 99.9096 576.916 100.307C576.337 100.699 575.892 101.21 575.579 101.84C575.267 102.47 575.111 103.146 575.111 103.867V105.025C575.111 106.013 575.281 106.85 575.622 107.537C575.968 108.218 576.448 108.738 577.061 109.095C577.674 109.447 578.387 109.623 579.199 109.623C579.726 109.623 580.203 109.55 580.629 109.402C581.061 109.249 581.433 109.022 581.745 108.721C582.057 108.414 582.298 108.034 582.469 107.58L584.41 108.125C584.206 108.783 583.862 109.362 583.38 109.862C582.897 110.356 582.301 110.742 581.591 111.02C580.882 111.293 580.084 111.429 579.199 111.429ZM589.682 103.288V111.156H587.672V98.0758H589.613V100.12H589.784C590.09 99.4554 590.556 98.9218 591.18 98.5187C591.805 98.1099 592.611 97.9055 593.599 97.9055C594.485 97.9055 595.259 98.0872 595.924 98.4505C596.588 98.8082 597.105 99.3532 597.474 100.086C597.843 100.812 598.027 101.732 598.027 102.845V111.156H596.017V102.981C596.017 101.953 595.751 101.153 595.217 100.58C594.683 100 593.951 99.7109 593.02 99.7109C592.378 99.7109 591.805 99.85 591.3 100.128C590.8 100.406 590.405 100.812 590.116 101.346C589.826 101.88 589.682 102.527 589.682 103.288ZM610.965 101.005L609.16 101.516C609.046 101.215 608.879 100.923 608.657 100.639C608.441 100.35 608.146 100.111 607.771 99.9238C607.397 99.7364 606.917 99.6428 606.332 99.6428C605.532 99.6428 604.865 99.8273 604.331 100.196C603.803 100.56 603.539 101.022 603.539 101.584C603.539 102.084 603.721 102.479 604.084 102.768C604.447 103.058 605.015 103.299 605.787 103.492L607.729 103.969C608.898 104.253 609.77 104.687 610.343 105.272C610.917 105.851 611.203 106.597 611.203 107.511C611.203 108.261 610.988 108.931 610.556 109.521C610.13 110.112 609.534 110.577 608.768 110.918C608.001 111.258 607.11 111.429 606.094 111.429C604.76 111.429 603.655 111.139 602.781 110.56C601.907 109.981 601.353 109.135 601.121 108.022L603.028 107.546C603.21 108.249 603.553 108.777 604.059 109.129C604.569 109.481 605.237 109.657 606.06 109.657C606.997 109.657 607.74 109.459 608.291 109.061C608.847 108.658 609.125 108.176 609.125 107.614C609.125 107.159 608.967 106.779 608.649 106.473C608.331 106.16 607.842 105.927 607.184 105.774L605.004 105.263C603.806 104.979 602.926 104.539 602.364 103.943C601.807 103.341 601.529 102.589 601.529 101.687C601.529 100.949 601.737 100.296 602.151 99.7279C602.571 99.1602 603.142 98.7145 603.863 98.3909C604.589 98.0673 605.413 97.9055 606.332 97.9055C607.627 97.9055 608.643 98.1894 609.381 98.7571C610.125 99.3248 610.653 100.074 610.965 101.005ZM619.713 111.429C618.453 111.429 617.365 111.151 616.451 110.594C615.543 110.032 614.842 109.249 614.348 108.244C613.86 107.233 613.615 106.058 613.615 104.718C613.615 103.378 613.86 102.198 614.348 101.176C614.842 100.148 615.529 99.3475 616.409 98.7741C617.294 98.1951 618.328 97.9055 619.508 97.9055C620.19 97.9055 620.863 98.0191 621.527 98.2462C622.191 98.4732 622.796 98.8423 623.341 99.3532C623.886 99.8585 624.32 100.528 624.644 101.363C624.967 102.198 625.129 103.225 625.129 104.446V105.297H615.046V103.56H623.085C623.085 102.822 622.938 102.163 622.642 101.584C622.353 101.005 621.938 100.548 621.399 100.213C620.865 99.8784 620.235 99.7109 619.508 99.7109C618.708 99.7109 618.015 99.9096 617.431 100.307C616.852 100.699 616.406 101.21 616.094 101.84C615.781 102.47 615.625 103.146 615.625 103.867V105.025C615.625 106.013 615.796 106.85 616.136 107.537C616.482 108.218 616.962 108.738 617.575 109.095C618.189 109.447 618.901 109.623 619.713 109.623C620.241 109.623 620.718 109.55 621.144 109.402C621.575 109.249 621.947 109.022 622.259 108.721C622.571 108.414 622.813 108.034 622.983 107.58L624.925 108.125C624.72 108.783 624.377 109.362 623.894 109.862C623.412 110.356 622.815 110.742 622.106 111.02C621.396 111.293 620.599 111.429 619.713 111.429ZM637.451 101.005L635.646 101.516C635.533 101.215 635.365 100.923 635.144 100.639C634.928 100.35 634.633 100.111 634.258 99.9238C633.883 99.7364 633.404 99.6428 632.819 99.6428C632.018 99.6428 631.351 99.8273 630.818 100.196C630.29 100.56 630.026 101.022 630.026 101.584C630.026 102.084 630.207 102.479 630.571 102.768C630.934 103.058 631.502 103.299 632.274 103.492L634.215 103.969C635.385 104.253 636.256 104.687 636.83 105.272C637.403 105.851 637.69 106.597 637.69 107.511C637.69 108.261 637.474 108.931 637.043 109.521C636.617 110.112 636.021 110.577 635.254 110.918C634.488 111.258 633.597 111.429 632.58 111.429C631.246 111.429 630.142 111.139 629.268 110.56C628.393 109.981 627.84 109.135 627.607 108.022L629.515 107.546C629.696 108.249 630.04 108.777 630.545 109.129C631.056 109.481 631.723 109.657 632.546 109.657C633.483 109.657 634.227 109.459 634.777 109.061C635.334 108.658 635.612 108.176 635.612 107.614C635.612 107.159 635.453 106.779 635.135 106.473C634.817 106.16 634.329 105.927 633.67 105.774L631.49 105.263C630.292 104.979 629.412 104.539 628.85 103.943C628.294 103.341 628.016 102.589 628.016 101.687C628.016 100.949 628.223 100.296 628.638 99.7279C629.058 99.1602 629.628 98.7145 630.349 98.3909C631.076 98.0673 631.899 97.9055 632.819 97.9055C634.113 97.9055 635.129 98.1894 635.868 98.7571C636.611 99.3248 637.139 100.074 637.451 101.005Z" fill="#C3C3D0"/>
<path d="M481.725 174.216V132.596H484.391V174.216H481.725ZM490.065 145.505C489.891 143.966 489.176 142.773 487.919 141.928C486.662 141.072 485.079 140.644 483.172 140.644C481.806 140.644 480.625 140.86 479.627 141.294C478.63 141.717 477.855 142.302 477.303 143.05C476.761 143.787 476.49 144.627 476.49 145.57C476.49 146.361 476.674 147.044 477.042 147.618C477.422 148.193 477.915 148.675 478.522 149.065C479.14 149.444 479.801 149.764 480.505 150.024C481.21 150.274 481.887 150.48 482.538 150.642L485.789 151.488C486.851 151.748 487.94 152.1 489.057 152.544C490.173 152.989 491.208 153.574 492.162 154.3C493.116 155.026 493.885 155.926 494.471 156.999C495.067 158.072 495.365 159.356 495.365 160.852C495.365 162.738 494.877 164.412 493.902 165.876C492.937 167.339 491.533 168.493 489.691 169.338C487.859 170.184 485.643 170.606 483.041 170.606C480.549 170.606 478.392 170.211 476.571 169.42C474.75 168.628 473.325 167.507 472.295 166.054C471.266 164.591 470.697 162.857 470.588 160.852H475.628C475.726 162.055 476.116 163.058 476.799 163.86C477.492 164.651 478.376 165.241 479.449 165.632C480.532 166.011 481.719 166.201 483.009 166.201C484.429 166.201 485.691 165.978 486.797 165.534C487.913 165.079 488.791 164.45 489.431 163.648C490.07 162.835 490.39 161.887 490.39 160.803C490.39 159.817 490.108 159.009 489.545 158.381C488.992 157.752 488.239 157.232 487.285 156.82C486.342 156.408 485.274 156.045 484.082 155.731L480.148 154.658C477.481 153.932 475.368 152.864 473.807 151.455C472.257 150.046 471.482 148.182 471.482 145.862C471.482 143.944 472.003 142.269 473.043 140.839C474.084 139.408 475.493 138.297 477.27 137.506C479.048 136.704 481.053 136.303 483.285 136.303C485.54 136.303 487.529 136.699 489.252 137.49C490.986 138.281 492.352 139.37 493.349 140.757C494.346 142.134 494.866 143.716 494.91 145.505H490.065ZM512.504 170.509C510.272 170.509 508.277 170.124 506.522 169.355C504.777 168.585 503.395 167.518 502.376 166.152C501.368 164.775 500.826 163.182 500.75 161.372H505.855C505.92 162.358 506.251 163.215 506.847 163.941C507.454 164.656 508.245 165.209 509.22 165.599C510.196 165.989 511.28 166.184 512.472 166.184C513.783 166.184 514.943 165.957 515.951 165.502C516.97 165.046 517.766 164.412 518.341 163.599C518.915 162.776 519.202 161.827 519.202 160.754C519.202 159.638 518.915 158.657 518.341 157.812C517.777 156.955 516.948 156.284 515.853 155.796C514.77 155.308 513.458 155.064 511.919 155.064H509.107V150.967H511.919C513.155 150.967 514.239 150.745 515.171 150.301C516.114 149.856 516.851 149.239 517.382 148.447C517.913 147.645 518.178 146.708 518.178 145.635C518.178 144.605 517.945 143.711 517.479 142.952C517.024 142.183 516.374 141.581 515.528 141.148C514.694 140.714 513.707 140.497 512.569 140.497C511.486 140.497 510.472 140.698 509.529 141.099C508.597 141.489 507.838 142.053 507.253 142.79C506.668 143.516 506.354 144.388 506.31 145.407H501.449C501.503 143.608 502.034 142.026 503.042 140.66C504.061 139.294 505.405 138.227 507.074 137.457C508.743 136.688 510.597 136.303 512.634 136.303C514.77 136.303 516.612 136.72 518.162 137.555C519.723 138.378 520.926 139.479 521.771 140.855C522.627 142.232 523.05 143.738 523.039 145.375C523.05 147.239 522.53 148.821 521.479 150.122C520.438 151.422 519.051 152.295 517.317 152.739V152.999C519.528 153.335 521.24 154.213 522.454 155.633C523.679 157.053 524.286 158.814 524.275 160.917C524.286 162.749 523.776 164.391 522.747 165.843C521.728 167.295 520.335 168.439 518.568 169.273C516.802 170.097 514.78 170.509 512.504 170.509ZM530.42 170.054V166.412L541.687 154.739C542.89 153.471 543.882 152.36 544.662 151.406C545.453 150.442 546.044 149.526 546.434 148.659C546.824 147.792 547.019 146.87 547.019 145.895C547.019 144.789 546.759 143.836 546.239 143.034C545.719 142.221 545.009 141.597 544.109 141.164C543.21 140.72 542.196 140.497 541.069 140.497C539.877 140.497 538.836 140.741 537.948 141.229C537.059 141.717 536.376 142.405 535.899 143.294C535.422 144.182 535.184 145.223 535.184 146.415H530.388C530.388 144.388 530.854 142.616 531.786 141.099C532.718 139.582 533.997 138.406 535.623 137.571C537.248 136.726 539.096 136.303 541.167 136.303C543.258 136.303 545.101 136.72 546.694 137.555C548.298 138.378 549.55 139.506 550.45 140.936C551.349 142.356 551.799 143.96 551.799 145.749C551.799 146.984 551.566 148.193 551.1 149.374C550.645 150.555 549.848 151.872 548.71 153.325C547.572 154.766 545.99 156.517 543.963 158.576L537.346 165.502V165.745H552.336V170.054H530.42ZM564.886 165.502L564.643 167.274C564.48 168.574 564.204 169.929 563.813 171.338C563.434 172.758 563.038 174.075 562.627 175.289C562.226 176.503 561.895 177.467 561.635 178.183H558.188C558.329 177.511 558.524 176.6 558.774 175.451C559.023 174.313 559.267 173.04 559.505 171.631C559.744 170.222 559.922 168.786 560.042 167.322L560.204 165.502H564.886ZM582.14 170.509C580.102 170.509 578.27 170.119 576.645 169.338C575.03 168.547 573.74 167.463 572.775 166.087C571.811 164.71 571.296 163.139 571.231 161.372H576.108C576.227 162.803 576.861 163.979 578.01 164.9C579.159 165.821 580.536 166.282 582.14 166.282C583.419 166.282 584.551 165.989 585.538 165.404C586.535 164.808 587.315 163.99 587.879 162.949C588.453 161.909 588.74 160.722 588.74 159.389C588.74 158.034 588.448 156.825 587.862 155.763C587.277 154.701 586.47 153.867 585.44 153.26C584.421 152.653 583.251 152.344 581.928 152.333C580.92 152.333 579.907 152.506 578.888 152.853C577.869 153.2 577.046 153.655 576.417 154.219L571.816 153.536L573.686 136.758H591.992V141.066H577.864L576.807 150.382H577.002C577.653 149.753 578.514 149.228 579.587 148.805C580.671 148.382 581.831 148.171 583.066 148.171C585.093 148.171 586.898 148.653 588.48 149.618C590.073 150.583 591.325 151.899 592.236 153.568C593.157 155.227 593.612 157.134 593.601 159.291C593.612 161.448 593.124 163.372 592.138 165.063C591.163 166.753 589.808 168.087 588.074 169.062C586.35 170.027 584.372 170.509 582.14 170.509ZM610.79 170.509C608.459 170.509 606.4 170.108 604.612 169.306C602.834 168.504 601.442 167.398 600.434 165.989C599.426 164.58 598.927 162.976 598.938 161.177C598.927 159.768 599.214 158.473 599.8 157.291C600.396 156.099 601.203 155.108 602.222 154.316C603.241 153.514 604.379 153.005 605.636 152.788V152.593C603.978 152.192 602.65 151.303 601.653 149.927C600.656 148.55 600.163 146.968 600.174 145.18C600.163 143.478 600.612 141.961 601.523 140.627C602.444 139.283 603.707 138.227 605.311 137.457C606.915 136.688 608.741 136.303 610.79 136.303C612.817 136.303 614.627 136.693 616.22 137.473C617.824 138.243 619.087 139.3 620.008 140.644C620.929 141.977 621.395 143.489 621.406 145.18C621.395 146.968 620.886 148.55 619.878 149.927C618.87 151.303 617.558 152.192 615.943 152.593V152.788C617.19 153.005 618.312 153.514 619.309 154.316C620.317 155.108 621.119 156.099 621.715 157.291C622.322 158.473 622.631 159.768 622.642 161.177C622.631 162.976 622.121 164.58 621.113 165.989C620.105 167.398 618.707 168.504 616.919 169.306C615.141 170.108 613.098 170.509 610.79 170.509ZM610.79 166.396C612.166 166.396 613.358 166.168 614.366 165.713C615.374 165.247 616.155 164.602 616.708 163.778C617.26 162.944 617.542 161.968 617.553 160.852C617.542 159.692 617.239 158.668 616.642 157.779C616.057 156.89 615.261 156.191 614.253 155.682C613.245 155.173 612.09 154.918 610.79 154.918C609.478 154.918 608.313 155.173 607.294 155.682C606.276 156.191 605.474 156.89 604.888 157.779C604.303 158.668 604.016 159.692 604.027 160.852C604.016 161.968 604.281 162.944 604.823 163.778C605.376 164.602 606.162 165.247 607.181 165.713C608.199 166.168 609.402 166.396 610.79 166.396ZM610.79 150.902C611.895 150.902 612.876 150.68 613.732 150.236C614.589 149.791 615.261 149.174 615.748 148.382C616.247 147.591 616.502 146.664 616.512 145.602C616.502 144.562 616.252 143.651 615.765 142.871C615.288 142.091 614.621 141.489 613.765 141.066C612.909 140.633 611.917 140.416 610.79 140.416C609.641 140.416 608.633 140.633 607.766 141.066C606.91 141.489 606.243 142.091 605.766 142.871C605.289 143.651 605.056 144.562 605.067 145.602C605.056 146.664 605.295 147.591 605.782 148.382C606.27 149.174 606.942 149.791 607.798 150.236C608.665 150.68 609.663 150.902 610.79 150.902ZM640.058 170.606C637.489 170.596 635.294 169.918 633.473 168.574C631.652 167.23 630.26 165.274 629.295 162.705C628.33 160.137 627.848 157.042 627.848 153.422C627.848 149.813 628.33 146.729 629.295 144.172C630.27 141.614 631.669 139.663 633.489 138.319C635.321 136.975 637.51 136.303 640.058 136.303C642.605 136.303 644.788 136.98 646.609 138.335C648.43 139.679 649.823 141.63 650.788 144.188C651.763 146.735 652.251 149.813 652.251 153.422C652.251 157.053 651.768 160.153 650.804 162.722C649.839 165.279 648.446 167.236 646.626 168.591C644.805 169.934 642.615 170.606 640.058 170.606ZM640.058 166.266C642.312 166.266 644.073 165.166 645.341 162.965C646.62 160.765 647.26 157.584 647.26 153.422C647.26 150.658 646.967 148.323 646.382 146.415C645.807 144.497 644.978 143.044 643.894 142.058C642.821 141.061 641.542 140.562 640.058 140.562C637.814 140.562 636.053 141.668 634.774 143.879C633.495 146.09 632.85 149.271 632.839 153.422C632.839 156.197 633.126 158.543 633.701 160.462C634.286 162.369 635.115 163.816 636.188 164.803C637.261 165.778 638.551 166.266 640.058 166.266Z" fill="white"/>
<g filter="url(#filter9_d_2234_35932)">
<rect x="46.5649" y="249.107" width="335.795" height="178.275" rx="23.74" fill="#1E1E2B"/>
<rect x="47.0814" y="249.624" width="334.762" height="177.242" rx="23.2236" stroke="url(#paint3_linear_2234_35932)" stroke-width="1.03284"/>
</g>
<path d="M95.934 301.249V299.376H109.014V301.249H103.53V316.816H101.418V301.249H95.934ZM115.418 317.089C114.238 317.089 113.201 316.808 112.31 316.246C111.424 315.684 110.732 314.897 110.232 313.887C109.738 312.876 109.491 311.696 109.491 310.344C109.491 308.982 109.738 307.792 110.232 306.776C110.732 305.76 111.424 304.971 112.31 304.409C113.201 303.847 114.238 303.566 115.418 303.566C116.599 303.566 117.633 303.847 118.518 304.409C119.41 304.971 120.102 305.76 120.596 306.776C121.096 307.792 121.345 308.982 121.345 310.344C121.345 311.696 121.096 312.876 120.596 313.887C120.102 314.897 119.41 315.684 118.518 316.246C117.633 316.808 116.599 317.089 115.418 317.089ZM115.418 315.284C116.315 315.284 117.053 315.054 117.633 314.594C118.212 314.134 118.64 313.529 118.918 312.78C119.197 312.03 119.336 311.219 119.336 310.344C119.336 309.47 119.197 308.655 118.918 307.9C118.64 307.145 118.212 306.535 117.633 306.069C117.053 305.604 116.315 305.371 115.418 305.371C114.521 305.371 113.783 305.604 113.204 306.069C112.625 306.535 112.197 307.145 111.918 307.9C111.64 308.655 111.501 309.47 111.501 310.344C111.501 311.219 111.64 312.03 111.918 312.78C112.197 313.529 112.625 314.134 113.204 314.594C113.783 315.054 114.521 315.284 115.418 315.284ZM130.102 303.736V305.439H123.323V303.736H130.102ZM125.299 300.602H127.309V313.069C127.309 313.637 127.391 314.063 127.556 314.347C127.726 314.625 127.942 314.812 128.203 314.909C128.47 315 128.751 315.045 129.046 315.045C129.267 315.045 129.449 315.034 129.591 315.011C129.733 314.983 129.846 314.96 129.932 314.943L130.34 316.748C130.204 316.799 130.014 316.85 129.77 316.902C129.526 316.958 129.216 316.987 128.842 316.987C128.274 316.987 127.717 316.865 127.172 316.621C126.633 316.376 126.185 316.005 125.827 315.505C125.475 315.005 125.299 314.375 125.299 313.614V300.602ZM136.974 317.123C136.145 317.123 135.393 316.967 134.718 316.655C134.042 316.337 133.505 315.88 133.108 315.284C132.711 314.682 132.512 313.955 132.512 313.103C132.512 312.354 132.66 311.747 132.955 311.281C133.25 310.81 133.645 310.441 134.138 310.174C134.632 309.907 135.177 309.708 135.774 309.578C136.375 309.442 136.98 309.334 137.587 309.254C138.382 309.152 139.027 309.075 139.521 309.024C140.02 308.968 140.383 308.874 140.611 308.743C140.843 308.613 140.96 308.386 140.96 308.062V307.994C140.96 307.154 140.73 306.501 140.27 306.035C139.816 305.57 139.126 305.337 138.201 305.337C137.241 305.337 136.489 305.547 135.944 305.967C135.399 306.387 135.016 306.836 134.794 307.313L132.887 306.631C133.227 305.837 133.681 305.218 134.249 304.775C134.823 304.326 135.447 304.014 136.123 303.838C136.804 303.657 137.474 303.566 138.132 303.566C138.553 303.566 139.035 303.617 139.58 303.719C140.131 303.815 140.662 304.017 141.173 304.324C141.689 304.63 142.118 305.093 142.458 305.712C142.799 306.331 142.969 307.159 142.969 308.198V316.816H140.96V315.045H140.858C140.721 315.329 140.494 315.633 140.176 315.956C139.858 316.28 139.435 316.555 138.907 316.782C138.379 317.009 137.735 317.123 136.974 317.123ZM137.281 315.318C138.076 315.318 138.746 315.161 139.291 314.849C139.841 314.537 140.256 314.134 140.534 313.64C140.818 313.146 140.96 312.627 140.96 312.082V310.242C140.875 310.344 140.687 310.438 140.398 310.523C140.114 310.603 139.784 310.674 139.41 310.736C139.041 310.793 138.68 310.844 138.328 310.889C137.982 310.929 137.701 310.963 137.485 310.992C136.963 311.06 136.475 311.17 136.02 311.324C135.572 311.471 135.209 311.696 134.93 311.996C134.658 312.292 134.522 312.695 134.522 313.206C134.522 313.904 134.78 314.432 135.297 314.79C135.819 315.142 136.48 315.318 137.281 315.318ZM148.647 299.376V316.816H146.638V299.376H148.647ZM169.769 303.736L164.932 316.816H162.888L158.051 303.736H160.231L163.842 314.159H163.978L167.589 303.736H169.769ZM172.422 316.816V303.736H174.431V316.816H172.422ZM173.444 301.556C173.052 301.556 172.714 301.423 172.43 301.156C172.152 300.889 172.013 300.568 172.013 300.193C172.013 299.819 172.152 299.498 172.43 299.231C172.714 298.964 173.052 298.831 173.444 298.831C173.835 298.831 174.17 298.964 174.448 299.231C174.732 299.498 174.874 299.819 174.874 300.193C174.874 300.568 174.732 300.889 174.448 301.156C174.17 301.423 173.835 301.556 173.444 301.556ZM187.378 306.665L185.572 307.176C185.459 306.876 185.291 306.583 185.07 306.299C184.854 306.01 184.559 305.771 184.184 305.584C183.81 305.397 183.33 305.303 182.745 305.303C181.945 305.303 181.277 305.487 180.744 305.856C180.216 306.22 179.952 306.682 179.952 307.245C179.952 307.744 180.134 308.139 180.497 308.428C180.86 308.718 181.428 308.959 182.2 309.152L184.142 309.629C185.311 309.913 186.183 310.347 186.756 310.932C187.329 311.511 187.616 312.258 187.616 313.172C187.616 313.921 187.4 314.591 186.969 315.181C186.543 315.772 185.947 316.237 185.181 316.578C184.414 316.919 183.523 317.089 182.507 317.089C181.172 317.089 180.068 316.799 179.194 316.22C178.32 315.641 177.766 314.795 177.533 313.683L179.441 313.206C179.623 313.91 179.966 314.438 180.471 314.79C180.982 315.142 181.649 315.318 182.473 315.318C183.409 315.318 184.153 315.119 184.704 314.721C185.26 314.318 185.538 313.836 185.538 313.274C185.538 312.82 185.379 312.439 185.061 312.133C184.743 311.82 184.255 311.588 183.597 311.434L181.417 310.923C180.219 310.64 179.339 310.2 178.777 309.603C178.22 309.002 177.942 308.249 177.942 307.347C177.942 306.609 178.149 305.956 178.564 305.388C178.984 304.82 179.554 304.375 180.275 304.051C181.002 303.727 181.825 303.566 182.745 303.566C184.039 303.566 185.056 303.85 185.794 304.417C186.537 304.985 187.065 305.734 187.378 306.665ZM190.641 316.816V303.736H192.651V316.816H190.641ZM191.663 301.556C191.272 301.556 190.934 301.423 190.65 301.156C190.372 300.889 190.233 300.568 190.233 300.193C190.233 299.819 190.372 299.498 190.65 299.231C190.934 298.964 191.272 298.831 191.663 298.831C192.055 298.831 192.39 298.964 192.668 299.231C192.952 299.498 193.094 299.819 193.094 300.193C193.094 300.568 192.952 300.889 192.668 301.156C192.39 301.423 192.055 301.556 191.663 301.556ZM202.021 303.736V305.439H195.242V303.736H202.021ZM197.218 300.602H199.228V313.069C199.228 313.637 199.31 314.063 199.475 314.347C199.645 314.625 199.861 314.812 200.122 314.909C200.389 315 200.67 315.045 200.965 315.045C201.186 315.045 201.368 315.034 201.51 315.011C201.652 314.983 201.765 314.96 201.85 314.943L202.259 316.748C202.123 316.799 201.933 316.85 201.689 316.902C201.445 316.958 201.135 316.987 200.76 316.987C200.193 316.987 199.636 316.865 199.091 316.621C198.552 316.376 198.103 316.005 197.746 315.505C197.394 315.005 197.218 314.375 197.218 313.614V300.602ZM210.217 317.089C209.036 317.089 208 316.808 207.109 316.246C206.223 315.684 205.531 314.897 205.031 313.887C204.537 312.876 204.29 311.696 204.29 310.344C204.29 308.982 204.537 307.792 205.031 306.776C205.531 305.76 206.223 304.971 207.109 304.409C208 303.847 209.036 303.566 210.217 303.566C211.398 303.566 212.431 303.847 213.317 304.409C214.208 304.971 214.901 305.76 215.395 306.776C215.895 307.792 216.144 308.982 216.144 310.344C216.144 311.696 215.895 312.876 215.395 313.887C214.901 314.897 214.208 315.684 213.317 316.246C212.431 316.808 211.398 317.089 210.217 317.089ZM210.217 315.284C211.114 315.284 211.852 315.054 212.431 314.594C213.011 314.134 213.439 313.529 213.717 312.78C213.996 312.03 214.135 311.219 214.135 310.344C214.135 309.47 213.996 308.655 213.717 307.9C213.439 307.145 213.011 306.535 212.431 306.069C211.852 305.604 211.114 305.371 210.217 305.371C209.32 305.371 208.582 305.604 208.003 306.069C207.424 306.535 206.995 307.145 206.717 307.9C206.439 308.655 206.3 309.47 206.3 310.344C206.3 311.219 206.439 312.03 206.717 312.78C206.995 313.529 207.424 314.134 208.003 314.594C208.582 315.054 209.32 315.284 210.217 315.284ZM219.212 316.816V303.736H221.154V305.712H221.29C221.529 305.064 221.96 304.539 222.585 304.136C223.209 303.733 223.913 303.532 224.696 303.532C224.844 303.532 225.029 303.534 225.25 303.54C225.471 303.546 225.639 303.554 225.752 303.566V305.609C225.684 305.592 225.528 305.567 225.284 305.533C225.046 305.493 224.793 305.473 224.526 305.473C223.89 305.473 223.323 305.607 222.823 305.873C222.329 306.135 221.937 306.498 221.648 306.964C221.364 307.423 221.222 307.949 221.222 308.539V316.816H219.212ZM237.4 306.665L235.595 307.176C235.481 306.876 235.314 306.583 235.092 306.299C234.877 306.01 234.581 305.771 234.207 305.584C233.832 305.397 233.352 305.303 232.767 305.303C231.967 305.303 231.3 305.487 230.766 305.856C230.238 306.22 229.974 306.682 229.974 307.245C229.974 307.744 230.156 308.139 230.519 308.428C230.883 308.718 231.45 308.959 232.222 309.152L234.164 309.629C235.334 309.913 236.205 310.347 236.778 310.932C237.352 311.511 237.638 312.258 237.638 313.172C237.638 313.921 237.423 314.591 236.991 315.181C236.565 315.772 235.969 316.237 235.203 316.578C234.437 316.919 233.545 317.089 232.529 317.089C231.195 317.089 230.091 316.799 229.216 316.22C228.342 315.641 227.788 314.795 227.556 313.683L229.463 313.206C229.645 313.91 229.988 314.438 230.494 314.79C231.005 315.142 231.672 315.318 232.495 315.318C233.432 315.318 234.175 315.119 234.726 314.721C235.282 314.318 235.561 313.836 235.561 313.274C235.561 312.82 235.402 312.439 235.084 312.133C234.766 311.82 234.278 311.588 233.619 311.434L231.439 310.923C230.241 310.64 229.361 310.2 228.799 309.603C228.243 309.002 227.964 308.249 227.964 307.347C227.964 306.609 228.172 305.956 228.586 305.388C229.006 304.82 229.577 304.375 230.298 304.051C231.024 303.727 231.848 303.566 232.767 303.566C234.062 303.566 235.078 303.85 235.816 304.417C236.56 304.985 237.088 305.734 237.4 306.665Z" fill="#C3C3D0"/>
<path d="M108.969 376.168C106.931 376.168 105.099 375.778 103.474 374.998C101.859 374.206 100.569 373.123 99.6044 371.746C98.6398 370.37 98.1249 368.798 98.0599 367.031H102.937C103.056 368.462 103.69 369.638 104.839 370.559C105.988 371.48 107.365 371.941 108.969 371.941C110.248 371.941 111.38 371.648 112.367 371.063C113.364 370.467 114.144 369.649 114.708 368.608C115.282 367.568 115.569 366.381 115.569 365.048C115.569 363.693 115.277 362.485 114.691 361.422C114.106 360.36 113.299 359.526 112.269 358.919C111.25 358.312 110.08 358.003 108.757 357.992C107.749 357.992 106.736 358.166 105.717 358.512C104.698 358.859 103.875 359.314 103.246 359.878L98.6452 359.195L100.515 342.417H118.821V346.726H104.693L103.636 356.041H103.831C104.482 355.413 105.343 354.887 106.416 354.464C107.5 354.041 108.66 353.83 109.895 353.83C111.922 353.83 113.727 354.312 115.309 355.277C116.902 356.242 118.154 357.559 119.065 359.228C119.986 360.886 120.441 362.794 120.43 364.95C120.441 367.107 119.954 369.031 118.967 370.722C117.992 372.413 116.637 373.746 114.903 374.721C113.179 375.686 111.201 376.168 108.969 376.168ZM137.96 376.266C135.391 376.255 133.197 375.577 131.376 374.233C129.555 372.889 128.162 370.933 127.198 368.364C126.233 365.796 125.751 362.701 125.751 359.081C125.751 355.472 126.233 352.389 127.198 349.831C128.173 347.273 129.571 345.322 131.392 343.978C133.224 342.634 135.413 341.962 137.96 341.962C140.507 341.962 142.691 342.639 144.512 343.994C146.333 345.338 147.726 347.289 148.69 349.847C149.666 352.394 150.153 355.472 150.153 359.081C150.153 362.712 149.671 365.812 148.706 368.381C147.742 370.939 146.349 372.895 144.528 374.25C142.707 375.594 140.518 376.266 137.96 376.266ZM137.96 371.925C140.215 371.925 141.976 370.825 143.244 368.625C144.523 366.424 145.162 363.243 145.162 359.081C145.162 356.318 144.87 353.982 144.284 352.074C143.71 350.156 142.881 348.704 141.797 347.717C140.724 346.72 139.445 346.222 137.96 346.222C135.717 346.222 133.955 347.327 132.676 349.538C131.398 351.749 130.753 354.93 130.742 359.081C130.742 361.856 131.029 364.203 131.603 366.121C132.189 368.028 133.018 369.475 134.091 370.462C135.164 371.437 136.454 371.925 137.96 371.925ZM155.921 375.713V372.071L167.187 360.398C168.39 359.13 169.382 358.019 170.162 357.065C170.954 356.101 171.544 355.185 171.935 354.318C172.325 353.451 172.52 352.53 172.52 351.554C172.52 350.449 172.26 349.495 171.739 348.693C171.219 347.88 170.509 347.257 169.61 346.823C168.71 346.379 167.697 346.157 166.569 346.157C165.377 346.157 164.337 346.4 163.448 346.888C162.559 347.376 161.876 348.064 161.4 348.953C160.923 349.842 160.684 350.882 160.684 352.074H155.888C155.888 350.048 156.354 348.275 157.286 346.758C158.219 345.241 159.497 344.065 161.123 343.23C162.749 342.385 164.597 341.962 166.667 341.962C168.759 341.962 170.601 342.379 172.195 343.214C173.799 344.038 175.051 345.165 175.95 346.596C176.85 348.015 177.3 349.619 177.3 351.408C177.3 352.643 177.066 353.852 176.6 355.033C176.145 356.215 175.349 357.531 174.211 358.984C173.073 360.425 171.49 362.176 169.463 364.235L162.847 371.161V371.405H177.836V375.713H155.921ZM190.387 371.161L190.143 372.933C189.98 374.233 189.704 375.588 189.314 376.997C188.935 378.417 188.539 379.734 188.127 380.948C187.726 382.162 187.395 383.126 187.135 383.842H183.689C183.83 383.17 184.025 382.259 184.274 381.11C184.523 379.972 184.767 378.699 185.006 377.29C185.244 375.881 185.423 374.445 185.542 372.982L185.705 371.161H190.387ZM207.604 376.168C206.119 376.146 204.656 375.875 203.214 375.355C201.783 374.835 200.483 373.968 199.312 372.754C198.142 371.54 197.204 369.909 196.5 367.86C195.806 365.812 195.459 363.254 195.459 360.187C195.459 357.282 195.746 354.703 196.321 352.448C196.906 350.194 197.746 348.292 198.841 346.742C199.936 345.181 201.258 343.994 202.808 343.181C204.358 342.369 206.097 341.962 208.026 341.962C210.01 341.962 211.771 342.352 213.31 343.133C214.849 343.913 216.096 344.991 217.049 346.368C218.014 347.744 218.626 349.311 218.886 351.066H213.928C213.592 349.679 212.925 348.546 211.928 347.669C210.931 346.791 209.63 346.352 208.026 346.352C205.588 346.352 203.686 347.414 202.32 349.538C200.965 351.662 200.282 354.616 200.272 358.399H200.515C201.09 357.456 201.794 356.654 202.629 355.992C203.474 355.32 204.417 354.806 205.458 354.448C206.509 354.079 207.615 353.895 208.774 353.895C210.703 353.895 212.448 354.367 214.009 355.31C215.581 356.242 216.833 357.531 217.765 359.179C218.697 360.826 219.163 362.712 219.163 364.837C219.163 366.961 218.681 368.885 217.716 370.608C216.762 372.331 215.418 373.697 213.684 374.705C211.95 375.702 209.923 376.19 207.604 376.168ZM207.587 371.941C208.866 371.941 210.01 371.627 211.018 370.998C212.026 370.37 212.822 369.524 213.408 368.462C213.993 367.4 214.286 366.213 214.286 364.902C214.286 363.623 213.998 362.458 213.424 361.406C212.86 360.355 212.08 359.52 211.083 358.903C210.097 358.285 208.969 357.976 207.701 357.976C206.737 357.976 205.842 358.16 205.019 358.529C204.206 358.897 203.491 359.407 202.873 360.057C202.255 360.707 201.767 361.455 201.41 362.3C201.063 363.135 200.889 364.018 200.889 364.95C200.889 366.197 201.177 367.351 201.751 368.413C202.336 369.475 203.133 370.332 204.141 370.982C205.16 371.621 206.309 371.941 207.587 371.941ZM236.156 341.962C237.641 341.973 239.104 342.244 240.546 342.775C241.987 343.306 243.288 344.173 244.448 345.376C245.618 346.579 246.55 348.205 247.244 350.253C247.948 352.291 248.306 354.827 248.317 357.862C248.317 360.778 248.024 363.373 247.439 365.649C246.854 367.915 246.014 369.828 244.919 371.388C243.835 372.949 242.518 374.136 240.968 374.949C239.419 375.762 237.674 376.168 235.733 376.168C233.75 376.168 231.989 375.778 230.45 374.998C228.911 374.217 227.659 373.139 226.694 371.762C225.73 370.375 225.128 368.782 224.89 366.983H229.848C230.173 368.413 230.834 369.573 231.832 370.462C232.84 371.34 234.14 371.779 235.733 371.779C238.172 371.779 240.074 370.716 241.44 368.592C242.806 366.457 243.494 363.476 243.505 359.65H243.244C242.681 360.582 241.976 361.385 241.131 362.056C240.296 362.728 239.359 363.249 238.318 363.617C237.278 363.986 236.167 364.17 234.986 364.17C233.067 364.17 231.322 363.699 229.751 362.756C228.179 361.813 226.927 360.517 225.995 358.87C225.063 357.223 224.597 355.342 224.597 353.229C224.597 351.126 225.074 349.218 226.028 347.506C226.992 345.793 228.336 344.439 230.06 343.442C231.794 342.434 233.826 341.94 236.156 341.962ZM236.172 346.189C234.904 346.189 233.761 346.503 232.742 347.132C231.734 347.75 230.937 348.59 230.352 349.652C229.767 350.703 229.474 351.874 229.474 353.164C229.474 354.453 229.756 355.624 230.32 356.675C230.894 357.716 231.674 358.545 232.661 359.163C233.658 359.77 234.796 360.073 236.075 360.073C237.029 360.073 237.917 359.889 238.741 359.52C239.565 359.152 240.286 358.642 240.903 357.992C241.521 357.331 242.003 356.583 242.35 355.749C242.697 354.914 242.871 354.036 242.871 353.115C242.871 351.89 242.578 350.752 241.993 349.701C241.418 348.649 240.627 347.804 239.619 347.165C238.611 346.514 237.462 346.189 236.172 346.189ZM266.822 342.417V375.713H261.782V347.457H261.587L253.621 352.66V347.847L261.929 342.417H266.822Z" fill="white"/>
<path d="M302.947 373.444L293.695 364.192L284.442 373.444" stroke="#8F8FA5" stroke-width="3.0521" stroke-linecap="round" stroke-linejoin="round"/>
<g filter="url(#filter10_d_2234_35932)">
<rect x="420.036" y="249.107" width="335.795" height="178.275" rx="23.74" fill="#1E1E2B"/>
<rect x="420.552" y="249.624" width="334.762" height="177.242" rx="23.2236" stroke="url(#paint4_linear_2234_35932)" stroke-width="1.03284"/>
</g>
<path d="M470.359 299.376H472.879L478.806 313.853H479.011L484.938 299.376H487.458V316.816H485.483V303.566H485.312L479.862 316.816H477.955L472.505 303.566H472.334V316.816H470.359V299.376ZM496.734 317.089C495.554 317.089 494.517 316.808 493.626 316.246C492.74 315.684 492.048 314.897 491.548 313.887C491.054 312.876 490.807 311.696 490.807 310.344C490.807 308.982 491.054 307.792 491.548 306.776C492.048 305.76 492.74 304.971 493.626 304.409C494.517 303.847 495.554 303.566 496.734 303.566C497.915 303.566 498.949 303.847 499.834 304.409C500.725 304.971 501.418 305.76 501.912 306.776C502.412 307.792 502.661 308.982 502.661 310.344C502.661 311.696 502.412 312.876 501.912 313.887C501.418 314.897 500.725 315.684 499.834 316.246C498.949 316.808 497.915 317.089 496.734 317.089ZM496.734 315.284C497.631 315.284 498.369 315.054 498.949 314.594C499.528 314.134 499.956 313.529 500.234 312.78C500.513 312.03 500.652 311.219 500.652 310.344C500.652 309.47 500.513 308.655 500.234 307.9C499.956 307.145 499.528 306.535 498.949 306.069C498.369 305.604 497.631 305.371 496.734 305.371C495.837 305.371 495.099 305.604 494.52 306.069C493.941 306.535 493.513 307.145 493.234 307.9C492.956 308.655 492.817 309.47 492.817 310.344C492.817 311.219 492.956 312.03 493.234 312.78C493.513 313.529 493.941 314.134 494.52 314.594C495.099 315.054 495.837 315.284 496.734 315.284ZM507.739 308.948V316.816H505.729V303.736H507.671V305.78H507.841C508.148 305.116 508.613 304.582 509.238 304.179C509.862 303.77 510.669 303.566 511.656 303.566C512.542 303.566 513.317 303.747 513.981 304.111C514.645 304.468 515.162 305.013 515.531 305.746C515.9 306.472 516.085 307.392 516.085 308.505V316.816H514.075V308.641C514.075 307.614 513.808 306.813 513.274 306.24C512.741 305.661 512.008 305.371 511.077 305.371C510.436 305.371 509.862 305.51 509.357 305.788C508.857 306.067 508.463 306.472 508.173 307.006C507.884 307.54 507.739 308.187 507.739 308.948ZM525.446 303.736V305.439H518.667V303.736H525.446ZM520.643 300.602H522.652V313.069C522.652 313.637 522.735 314.063 522.899 314.347C523.07 314.625 523.286 314.812 523.547 314.909C523.813 315 524.095 315.045 524.39 315.045C524.611 315.045 524.793 315.034 524.935 315.011C525.077 314.983 525.19 314.96 525.275 314.943L525.684 316.748C525.548 316.799 525.358 316.85 525.114 316.902C524.869 316.958 524.56 316.987 524.185 316.987C523.618 316.987 523.061 316.865 522.516 316.621C521.977 316.376 521.528 316.005 521.171 315.505C520.819 315.005 520.643 314.375 520.643 313.614V300.602ZM530.76 308.948V316.816H528.75V299.376H530.76V305.78H530.93C531.237 305.104 531.696 304.568 532.31 304.17C532.928 303.767 533.752 303.566 534.779 303.566C535.67 303.566 536.451 303.745 537.121 304.102C537.791 304.454 538.31 304.996 538.679 305.729C539.054 306.455 539.241 307.381 539.241 308.505V316.816H537.232V308.641C537.232 307.602 536.962 306.799 536.423 306.231C535.889 305.658 535.148 305.371 534.2 305.371C533.541 305.371 532.951 305.51 532.429 305.788C531.912 306.067 531.503 306.472 531.202 307.006C530.907 307.54 530.76 308.187 530.76 308.948ZM544.928 299.376V316.816H542.918V299.376H544.928ZM549.903 321.722C549.563 321.722 549.259 321.693 548.992 321.636C548.725 321.585 548.541 321.534 548.439 321.483L548.95 319.712C549.438 319.837 549.869 319.882 550.244 319.848C550.619 319.814 550.951 319.647 551.24 319.346C551.536 319.05 551.805 318.571 552.049 317.906L552.424 316.885L547.587 303.736H549.767L553.378 314.159H553.514L557.125 303.736H559.305L553.753 318.724C553.503 319.4 553.193 319.959 552.824 320.402C552.455 320.85 552.027 321.182 551.538 321.398C551.056 321.614 550.511 321.722 549.903 321.722ZM577.967 306.665L576.162 307.176C576.049 306.876 575.881 306.583 575.66 306.299C575.444 306.01 575.149 305.771 574.774 305.584C574.399 305.397 573.92 305.303 573.335 305.303C572.534 305.303 571.867 305.487 571.334 305.856C570.806 306.22 570.542 306.682 570.542 307.245C570.542 307.744 570.723 308.139 571.087 308.428C571.45 308.718 572.018 308.959 572.79 309.152L574.731 309.629C575.901 309.913 576.772 310.347 577.346 310.932C577.919 311.511 578.206 312.258 578.206 313.172C578.206 313.921 577.99 314.591 577.559 315.181C577.133 315.772 576.537 316.237 575.77 316.578C575.004 316.919 574.113 317.089 573.096 317.089C571.762 317.089 570.658 316.799 569.784 316.22C568.909 315.641 568.356 314.795 568.123 313.683L570.031 313.206C570.212 313.91 570.556 314.438 571.061 314.79C571.572 315.142 572.239 315.318 573.062 315.318C573.999 315.318 574.743 315.119 575.293 314.721C575.85 314.318 576.128 313.836 576.128 313.274C576.128 312.82 575.969 312.439 575.651 312.133C575.333 311.82 574.845 311.588 574.186 311.434L572.006 310.923C570.808 310.64 569.928 310.2 569.366 309.603C568.81 309.002 568.532 308.249 568.532 307.347C568.532 306.609 568.739 305.956 569.154 305.388C569.574 304.82 570.144 304.375 570.865 304.051C571.592 303.727 572.415 303.566 573.335 303.566C574.629 303.566 575.645 303.85 576.384 304.417C577.127 304.985 577.655 305.734 577.967 306.665ZM581.231 316.816V303.736H583.241V316.816H581.231ZM582.253 301.556C581.861 301.556 581.524 301.423 581.24 301.156C580.962 300.889 580.822 300.568 580.822 300.193C580.822 299.819 580.962 299.498 581.24 299.231C581.524 298.964 581.861 298.831 582.253 298.831C582.645 298.831 582.98 298.964 583.258 299.231C583.542 299.498 583.684 299.819 583.684 300.193C583.684 300.568 583.542 300.889 583.258 301.156C582.98 301.423 582.645 301.556 582.253 301.556ZM592.202 321.994C591.231 321.994 590.396 321.869 589.698 321.619C589 321.375 588.418 321.052 587.952 320.649C587.492 320.251 587.126 319.825 586.854 319.371L588.455 318.247C588.636 318.486 588.866 318.758 589.145 319.065C589.423 319.377 589.803 319.647 590.286 319.874C590.774 320.106 591.413 320.223 592.202 320.223C593.258 320.223 594.129 319.967 594.816 319.456C595.503 318.945 595.847 318.145 595.847 317.055V314.398H595.676C595.529 314.636 595.319 314.932 595.046 315.284C594.779 315.63 594.393 315.939 593.888 316.212C593.388 316.479 592.713 316.612 591.861 316.612C590.805 316.612 589.857 316.362 589.017 315.863C588.182 315.363 587.521 314.636 587.033 313.683C586.55 312.729 586.309 311.571 586.309 310.208C586.309 308.868 586.544 307.702 587.016 306.708C587.487 305.709 588.143 304.937 588.983 304.392C589.823 303.841 590.794 303.566 591.895 303.566C592.747 303.566 593.422 303.708 593.922 303.991C594.427 304.27 594.813 304.588 595.08 304.945C595.353 305.297 595.563 305.587 595.71 305.814H595.915V303.736H597.856V317.191C597.856 318.315 597.601 319.229 597.09 319.933C596.585 320.643 595.903 321.162 595.046 321.492C594.195 321.827 593.246 321.994 592.202 321.994ZM592.134 314.807C592.94 314.807 593.621 314.622 594.177 314.253C594.734 313.884 595.157 313.353 595.446 312.661C595.736 311.968 595.881 311.139 595.881 310.174C595.881 309.232 595.739 308.4 595.455 307.679C595.171 306.958 594.751 306.393 594.195 305.984C593.638 305.575 592.951 305.371 592.134 305.371C591.282 305.371 590.572 305.587 590.005 306.018C589.443 306.45 589.02 307.029 588.736 307.755C588.458 308.482 588.319 309.288 588.319 310.174C588.319 311.082 588.46 311.886 588.744 312.584C589.034 313.277 589.46 313.822 590.022 314.219C590.589 314.611 591.293 314.807 592.134 314.807ZM603.545 308.948V316.816H601.535V303.736H603.477V305.78H603.647C603.954 305.116 604.419 304.582 605.044 304.179C605.668 303.77 606.474 303.566 607.462 303.566C608.348 303.566 609.123 303.747 609.787 304.111C610.451 304.468 610.968 305.013 611.337 305.746C611.706 306.472 611.891 307.392 611.891 308.505V316.816H609.881V308.641C609.881 307.614 609.614 306.813 609.08 306.24C608.547 305.661 607.814 305.371 606.883 305.371C606.242 305.371 605.668 305.51 605.163 305.788C604.663 306.067 604.269 306.472 603.979 307.006C603.69 307.54 603.545 308.187 603.545 308.948ZM630.551 311.468V303.736H632.561V316.816H630.551V314.602H630.415C630.108 315.267 629.631 315.831 628.984 316.297C628.337 316.757 627.519 316.987 626.531 316.987C625.714 316.987 624.987 316.808 624.351 316.45C623.716 316.087 623.216 315.542 622.853 314.815C622.489 314.083 622.308 313.16 622.308 312.048V303.736H624.317V311.911C624.317 312.865 624.584 313.626 625.118 314.194C625.657 314.761 626.344 315.045 627.179 315.045C627.678 315.045 628.186 314.917 628.703 314.662C629.225 314.406 629.662 314.015 630.014 313.487C630.372 312.959 630.551 312.286 630.551 311.468ZM636.242 321.722V303.736H638.183V305.814H638.422C638.569 305.587 638.774 305.297 639.035 304.945C639.302 304.588 639.682 304.27 640.176 303.991C640.676 303.708 641.351 303.566 642.203 303.566C643.304 303.566 644.275 303.841 645.115 304.392C645.956 304.942 646.611 305.723 647.082 306.734C647.554 307.744 647.789 308.936 647.789 310.31C647.789 311.696 647.554 312.896 647.082 313.912C646.611 314.923 645.958 315.707 645.124 316.263C644.289 316.814 643.327 317.089 642.237 317.089C641.397 317.089 640.724 316.95 640.219 316.672C639.713 316.388 639.324 316.067 639.052 315.709C638.779 315.346 638.569 315.045 638.422 314.807H638.251V321.722H636.242ZM638.217 310.276C638.217 311.264 638.362 312.136 638.652 312.891C638.941 313.64 639.364 314.228 639.921 314.653C640.477 315.073 641.158 315.284 641.964 315.284C642.805 315.284 643.506 315.062 644.068 314.619C644.636 314.171 645.061 313.569 645.345 312.814C645.635 312.053 645.78 311.207 645.78 310.276C645.78 309.356 645.638 308.528 645.354 307.79C645.076 307.046 644.653 306.458 644.085 306.027C643.523 305.59 642.816 305.371 641.964 305.371C641.147 305.371 640.46 305.578 639.904 305.993C639.347 306.401 638.927 306.975 638.643 307.713C638.359 308.445 638.217 309.3 638.217 310.276ZM660.12 306.665L658.315 307.176C658.201 306.876 658.034 306.583 657.812 306.299C657.597 306.01 657.302 305.771 656.927 305.584C656.552 305.397 656.072 305.303 655.488 305.303C654.687 305.303 654.02 305.487 653.486 305.856C652.958 306.22 652.694 306.682 652.694 307.245C652.694 307.744 652.876 308.139 653.239 308.428C653.603 308.718 654.171 308.959 654.943 309.152L656.884 309.629C658.054 309.913 658.925 310.347 659.499 310.932C660.072 311.511 660.359 312.258 660.359 313.172C660.359 313.921 660.143 314.591 659.712 315.181C659.286 315.772 658.69 316.237 657.923 316.578C657.157 316.919 656.265 317.089 655.249 317.089C653.915 317.089 652.811 316.799 651.937 316.22C651.062 315.641 650.509 314.795 650.276 313.683L652.183 313.206C652.365 313.91 652.709 314.438 653.214 314.79C653.725 315.142 654.392 315.318 655.215 315.318C656.152 315.318 656.896 315.119 657.446 314.721C658.003 314.318 658.281 313.836 658.281 313.274C658.281 312.82 658.122 312.439 657.804 312.133C657.486 311.82 656.998 311.588 656.339 311.434L654.159 310.923C652.961 310.64 652.081 310.2 651.519 309.603C650.963 309.002 650.685 308.249 650.685 307.347C650.685 306.609 650.892 305.956 651.306 305.388C651.726 304.82 652.297 304.375 653.018 304.051C653.745 303.727 654.568 303.566 655.488 303.566C656.782 303.566 657.798 303.85 658.536 304.417C659.28 304.985 659.808 305.734 660.12 306.665Z" fill="#C3C3D0"/>
<path d="M484.081 342.417V375.713H479.042V347.457H478.847L470.88 352.66V347.847L479.188 342.417H484.081ZM504.712 376.168C503.228 376.146 501.764 375.875 500.323 375.355C498.892 374.835 497.592 373.968 496.421 372.754C495.25 371.54 494.313 369.909 493.608 367.86C492.915 365.812 492.568 363.254 492.568 360.187C492.568 357.282 492.855 354.703 493.43 352.448C494.015 350.194 494.855 348.292 495.95 346.742C497.044 345.181 498.367 343.994 499.916 343.181C501.466 342.369 503.206 341.962 505.135 341.962C507.119 341.962 508.88 342.352 510.419 343.133C511.958 343.913 513.204 344.991 514.158 346.368C515.123 347.744 515.735 349.311 515.995 351.066H511.037C510.701 349.679 510.034 348.546 509.037 347.669C508.04 346.791 506.739 346.352 505.135 346.352C502.696 346.352 500.794 347.414 499.429 349.538C498.074 351.662 497.391 354.616 497.38 358.399H497.624C498.199 357.456 498.903 356.654 499.738 355.992C500.583 355.32 501.526 354.806 502.566 354.448C503.618 354.079 504.723 353.895 505.883 353.895C507.812 353.895 509.557 354.367 511.118 355.31C512.689 356.242 513.941 357.531 514.873 359.179C515.806 360.826 516.272 362.712 516.272 364.837C516.272 366.961 515.789 368.885 514.825 370.608C513.871 372.331 512.527 373.697 510.793 374.705C509.059 375.702 507.032 376.19 504.712 376.168ZM504.696 371.941C505.975 371.941 507.119 371.627 508.127 370.998C509.134 370.37 509.931 369.524 510.516 368.462C511.102 367.4 511.394 366.213 511.394 364.902C511.394 363.623 511.107 362.458 510.533 361.406C509.969 360.355 509.189 359.52 508.192 358.903C507.205 358.285 506.078 357.976 504.81 357.976C503.845 357.976 502.951 358.16 502.127 358.529C501.315 358.897 500.599 359.407 499.981 360.057C499.364 360.707 498.876 361.455 498.518 362.3C498.171 363.135 497.998 364.018 497.998 364.95C497.998 366.197 498.285 367.351 498.86 368.413C499.445 369.475 500.242 370.332 501.25 370.982C502.268 371.621 503.417 371.941 504.696 371.941ZM527.063 371.161L526.819 372.933C526.656 374.233 526.38 375.588 525.99 376.997C525.61 378.417 525.215 379.734 524.803 380.948C524.402 382.162 524.071 383.126 523.811 383.842H520.364C520.505 383.17 520.7 382.259 520.95 381.11C521.199 379.972 521.443 378.699 521.681 377.29C521.92 375.881 522.099 374.445 522.218 372.982L522.38 371.161H527.063ZM544.316 376.168C542.278 376.168 540.447 375.778 538.821 374.998C537.206 374.206 535.916 373.123 534.952 371.746C533.987 370.37 533.472 368.798 533.407 367.031H538.284C538.404 368.462 539.038 369.638 540.187 370.559C541.335 371.48 542.712 371.941 544.316 371.941C545.595 371.941 546.727 371.648 547.714 371.063C548.711 370.467 549.491 369.649 550.055 368.608C550.629 367.568 550.917 366.381 550.917 365.048C550.917 363.693 550.624 362.485 550.039 361.422C549.453 360.36 548.646 359.526 547.616 358.919C546.597 358.312 545.427 358.003 544.105 357.992C543.097 357.992 542.083 358.166 541.064 358.512C540.046 358.859 539.222 359.314 538.593 359.878L533.992 359.195L535.862 342.417H554.168V346.726H540.04L538.983 356.041H539.179C539.829 355.413 540.691 354.887 541.764 354.464C542.847 354.041 544.007 353.83 545.243 353.83C547.269 353.83 549.074 354.312 550.656 355.277C552.25 356.242 553.502 357.559 554.412 359.228C555.333 360.886 555.788 362.794 555.778 364.95C555.788 367.107 555.301 369.031 554.314 370.722C553.339 372.413 551.984 373.746 550.25 374.721C548.527 375.686 546.549 376.168 544.316 376.168ZM561.017 369.21V365.145L575.405 342.417H578.607V348.4H576.575L566.284 364.69V364.95H586.005V369.21H561.017ZM576.803 375.713V367.974L576.835 366.121V342.417H581.599V375.713H576.803ZM603.262 376.266C600.693 376.255 598.499 375.577 596.678 374.233C594.857 372.889 593.464 370.933 592.499 368.364C591.535 365.796 591.053 362.701 591.053 359.081C591.053 355.472 591.535 352.389 592.499 349.831C593.475 347.273 594.873 345.322 596.694 343.978C598.526 342.634 600.715 341.962 603.262 341.962C605.809 341.962 607.993 342.639 609.814 343.994C611.635 345.338 613.027 347.289 613.992 349.847C614.967 352.394 615.455 355.472 615.455 359.081C615.455 362.712 614.973 365.812 614.008 368.381C613.044 370.939 611.651 372.895 609.83 374.25C608.009 375.594 605.82 376.266 603.262 376.266ZM603.262 371.925C605.516 371.925 607.278 370.825 608.546 368.625C609.825 366.424 610.464 363.243 610.464 359.081C610.464 356.318 610.171 353.982 609.586 352.074C609.012 350.156 608.183 348.704 607.099 347.717C606.026 346.72 604.747 346.222 603.262 346.222C601.018 346.222 599.257 347.327 597.978 349.538C596.699 351.749 596.054 354.93 596.044 359.081C596.044 361.856 596.331 364.203 596.905 366.121C597.491 368.028 598.32 369.475 599.393 370.462C600.466 371.437 601.755 371.925 603.262 371.925Z" fill="white"/>
</g>
<defs>
<filter id="filter0_f_2234_35932" x="-96.1497" y="-1248.69" width="2115.09" height="1917.12" filterUnits="userSpaceOnUse" color-interpolation-filters="sRGB">
<feFlood flood-opacity="0" result="BackgroundImageFix"/>
<feBlend mode="normal" in="SourceGraphic" in2="BackgroundImageFix" result="shape"/>
<feGaussianBlur stdDeviation="177.367" result="effect1_foregroundBlur_2234_35932"/>
</filter>
<filter id="filter1_f_2234_35932" x="-1077.74" y="-634.049" width="1618.23" height="1294.13" filterUnits="userSpaceOnUse" color-interpolation-filters="sRGB">
<feFlood flood-opacity="0" result="BackgroundImageFix"/>
<feBlend mode="normal" in="SourceGraphic" in2="BackgroundImageFix" result="shape"/>
<feGaussianBlur stdDeviation="164.602" result="effect1_foregroundBlur_2234_35932"/>
</filter>
<filter id="filter3_f_2234_35932" x="-854.574" y="-29.1842" width="2120.28" height="1805.62" filterUnits="userSpaceOnUse" color-interpolation-filters="sRGB">
<feFlood flood-opacity="0" result="BackgroundImageFix"/>
<feBlend mode="normal" in="SourceGraphic" in2="BackgroundImageFix" result="shape"/>
<feGaussianBlur stdDeviation="241.637" result="effect1_foregroundBlur_2234_35932"/>
</filter>
<filter id="filter4_f_2234_35932" x="-1419" y="-359.241" width="2120.28" height="1805.62" filterUnits="userSpaceOnUse" color-interpolation-filters="sRGB">
<feFlood flood-opacity="0" result="BackgroundImageFix"/>
<feBlend mode="normal" in="SourceGraphic" in2="BackgroundImageFix" result="shape"/>
<feGaussianBlur stdDeviation="241.637" result="effect1_foregroundBlur_2234_35932"/>
</filter>
<filter id="filter5_f_2234_35932" x="-544.201" y="-714.647" width="1334.56" height="1075.28" filterUnits="userSpaceOnUse" color-interpolation-filters="sRGB">
<feFlood flood-opacity="0" result="BackgroundImageFix"/>
<feBlend mode="normal" in="SourceGraphic" in2="BackgroundImageFix" result="shape"/>
<feGaussianBlur stdDeviation="141.676" result="effect1_foregroundBlur_2234_35932"/>
</filter>
<filter id="filter6_f_2234_35932" x="-435.935" y="-350.065" width="778.785" height="627.48" filterUnits="userSpaceOnUse" color-interpolation-filters="sRGB">
<feFlood flood-opacity="0" result="BackgroundImageFix"/>
<feBlend mode="normal" in="SourceGraphic" in2="BackgroundImageFix" result="shape"/>
<feGaussianBlur stdDeviation="82.675" result="effect1_foregroundBlur_2234_35932"/>
</filter>
<filter id="filter7_d_2234_35932" x="11.0663" y="14.0846" width="406.792" height="249.272" filterUnits="userSpaceOnUse" color-interpolation-filters="sRGB">
<feFlood flood-opacity="0" result="BackgroundImageFix"/>
<feColorMatrix in="SourceAlpha" type="matrix" values="0 0 0 0 0 0 0 0 0 0 0 0 0 0 0 0 0 0 127 0" result="hardAlpha"/>
<feOffset dy="6.13506"/>
<feGaussianBlur stdDeviation="17.7493"/>
<feComposite in2="hardAlpha" operator="out"/>
<feColorMatrix type="matrix" values="0 0 0 0 0 0 0 0 0 0 0 0 0 0 0 0 0 0 0.32 0"/>
<feBlend mode="normal" in2="BackgroundImageFix" result="effect1_dropShadow_2234_35932"/>
<feBlend mode="normal" in="SourceGraphic" in2="effect1_dropShadow_2234_35932" result="shape"/>
</filter>
<filter id="filter8_d_2234_35932" x="384.537" y="14.0846" width="406.792" height="249.272" filterUnits="userSpaceOnUse" color-interpolation-filters="sRGB">
<feFlood flood-opacity="0" result="BackgroundImageFix"/>
<feColorMatrix in="SourceAlpha" type="matrix" values="0 0 0 0 0 0 0 0 0 0 0 0 0 0 0 0 0 0 127 0" result="hardAlpha"/>
<feOffset dy="6.13506"/>
<feGaussianBlur stdDeviation="17.7493"/>
<feComposite in2="hardAlpha" operator="out"/>
<feColorMatrix type="matrix" values="0 0 0 0 0 0 0 0 0 0 0 0 0 0 0 0 0 0 0.32 0"/>
<feBlend mode="normal" in2="BackgroundImageFix" result="effect1_dropShadow_2234_35932"/>
<feBlend mode="normal" in="SourceGraphic" in2="effect1_dropShadow_2234_35932" result="shape"/>
</filter>
<filter id="filter9_d_2234_35932" x="11.0663" y="219.744" width="406.792" height="249.272" filterUnits="userSpaceOnUse" color-interpolation-filters="sRGB">
<feFlood flood-opacity="0" result="BackgroundImageFix"/>
<feColorMatrix in="SourceAlpha" type="matrix" values="0 0 0 0 0 0 0 0 0 0 0 0 0 0 0 0 0 0 127 0" result="hardAlpha"/>
<feOffset dy="6.13506"/>
<feGaussianBlur stdDeviation="17.7493"/>
<feComposite in2="hardAlpha" operator="out"/>
<feColorMatrix type="matrix" values="0 0 0 0 0 0 0 0 0 0 0 0 0 0 0 0 0 0 0.32 0"/>
<feBlend mode="normal" in2="BackgroundImageFix" result="effect1_dropShadow_2234_35932"/>
<feBlend mode="normal" in="SourceGraphic" in2="effect1_dropShadow_2234_35932" result="shape"/>
</filter>
<filter id="filter10_d_2234_35932" x="384.537" y="219.744" width="406.792" height="249.272" filterUnits="userSpaceOnUse" color-interpolation-filters="sRGB">
<feFlood flood-opacity="0" result="BackgroundImageFix"/>
<feColorMatrix in="SourceAlpha" type="matrix" values="0 0 0 0 0 0 0 0 0 0 0 0 0 0 0 0 0 0 127 0" result="hardAlpha"/>
<feOffset dy="6.13506"/>
<feGaussianBlur stdDeviation="17.7493"/>
<feComposite in2="hardAlpha" operator="out"/>
<feColorMatrix type="matrix" values="0 0 0 0 0 0 0 0 0 0 0 0 0 0 0 0 0 0 0.32 0"/>
<feBlend mode="normal" in2="BackgroundImageFix" result="effect1_dropShadow_2234_35932"/>
<feBlend mode="normal" in="SourceGraphic" in2="effect1_dropShadow_2234_35932" result="shape"/>
</filter>
<linearGradient id="paint0_linear_2234_35932" x1="295.5" y1="0" x2="295.5" y2="471" gradientUnits="userSpaceOnUse">
<stop stop-color="#313134"/>
<stop offset="1" stop-color="#25252A"/>
</linearGradient>
<linearGradient id="paint1_linear_2234_35932" x1="214.462" y1="43.4482" x2="214.462" y2="221.723" gradientUnits="userSpaceOnUse">
<stop stop-color="white" stop-opacity="0.06"/>
<stop offset="1" stop-color="white" stop-opacity="0.19"/>
</linearGradient>
<linearGradient id="paint2_linear_2234_35932" x1="587.934" y1="43.4482" x2="587.934" y2="221.723" gradientUnits="userSpaceOnUse">
<stop stop-color="white" stop-opacity="0.06"/>
<stop offset="1" stop-color="white" stop-opacity="0.19"/>
</linearGradient>
<linearGradient id="paint3_linear_2234_35932" x1="214.462" y1="249.107" x2="214.462" y2="427.382" gradientUnits="userSpaceOnUse">
<stop stop-color="white" stop-opacity="0.06"/>
<stop offset="1" stop-color="white" stop-opacity="0.19"/>
</linearGradient>
<linearGradient id="paint4_linear_2234_35932" x1="587.933" y1="249.107" x2="587.933" y2="427.382" gradientUnits="userSpaceOnUse">
<stop stop-color="white" stop-opacity="0.06"/>
<stop offset="1" stop-color="white" stop-opacity="0.19"/>
</linearGradient>
</defs>
</svg>
