<svg width="87" height="87" viewBox="0 0 87 87" fill="none" xmlns="http://www.w3.org/2000/svg">
<rect width="87" height="87" fill="url(#paint0_linear_2234_36657)"/>
<path fill-rule="evenodd" clip-rule="evenodd" d="M19.2451 43.6611C19.2451 33.833 19.2451 28.919 21.5871 25.3795C22.6329 23.799 23.9865 22.4454 25.567 21.3996C29.1065 19.0576 34.0205 19.0576 43.8486 19.0576C53.6768 19.0576 58.5908 19.0576 62.1303 21.3996C63.7108 22.4454 65.0644 23.799 66.1102 25.3795C68.4522 28.919 68.4522 33.833 68.4522 43.6611C68.4522 53.4893 68.4522 58.4033 66.1102 61.9428C65.0644 63.5233 63.7108 64.8769 62.1303 65.9227C58.5908 68.2647 53.6768 68.2647 43.8486 68.2647C34.0205 68.2647 29.1065 68.2647 25.567 65.9227C23.9865 64.8769 22.6329 63.5233 21.5871 61.9428C19.2451 58.4033 19.2451 53.4893 19.2451 43.6611ZM56.5853 43.6619C56.5853 50.6966 50.8826 56.3994 43.8478 56.3994C36.8131 56.3994 31.1103 50.6966 31.1103 43.6619C31.1103 36.6271 36.8131 30.9244 43.8478 30.9244C50.8826 30.9244 56.5853 36.6271 56.5853 43.6619ZM43.8478 52.09C48.5025 52.09 52.2759 48.3166 52.2759 43.6619C52.2759 39.0072 48.5025 35.2338 43.8478 35.2338C39.1931 35.2338 35.4197 39.0072 35.4197 43.6619C35.4197 48.3166 39.1931 52.09 43.8478 52.09ZM57.0889 33.2769C58.7419 33.2769 60.0819 31.9369 60.0819 30.2839C60.0819 28.6309 58.7419 27.291 57.0889 27.291C55.436 27.291 54.096 28.6309 54.096 30.2839C54.096 31.9369 55.436 33.2769 57.0889 33.2769Z" fill="white"/>
<defs>
<linearGradient id="paint0_linear_2234_36657" x1="43.5" y1="0" x2="43.5" y2="87" gradientUnits="userSpaceOnUse">
<stop stop-color="#5E0DCF"/>
<stop offset="0.28125" stop-color="#980E96"/>
<stop offset="0.557292" stop-color="#E93735"/>
<stop offset="0.770833" stop-color="#EC5028"/>
<stop offset="1" stop-color="#F3A949"/>
</linearGradient>
</defs>
</svg>
