<svg width="87" height="87" viewBox="0 0 87 87" fill="none" xmlns="http://www.w3.org/2000/svg">
<rect width="87" height="87" fill="#0779FF"/>
<path d="M22.7393 27.3406C22.7393 26.0068 23.2076 24.9065 24.1444 24.0396C25.0811 23.1727 26.2989 22.7393 27.7977 22.7393C29.2698 22.7393 30.4608 23.166 31.3708 24.0196C32.3075 24.8999 32.7759 26.0468 32.7759 27.4606C32.7759 28.741 32.3209 29.8079 31.4109 30.6615C30.4742 31.5418 29.243 31.9819 27.7174 31.9819H27.6773C26.2052 31.9819 25.0142 31.5418 24.1042 30.6615C23.1942 29.7813 22.7393 28.6743 22.7393 27.3406ZM23.2612 62.3505V35.6229H32.1737V62.3505H23.2612ZM37.1117 62.3505H46.0243V47.4263C46.0243 46.4927 46.1313 45.7724 46.3454 45.2657C46.7201 44.3587 47.2889 43.5918 48.0517 42.965C48.8145 42.3381 49.7713 42.0247 50.9221 42.0247C53.9198 42.0247 55.4186 44.0386 55.4186 48.0665V62.3505H64.3311V47.0262C64.3311 43.0784 63.3944 40.0842 61.5208 38.0436C59.6473 36.003 57.1716 34.9827 54.0937 34.9827C50.6411 34.9827 47.9513 36.4632 46.0243 39.424V39.504H45.9841L46.0243 39.424V35.6229H37.1117C37.1652 36.4765 37.192 39.1306 37.192 43.5852C37.192 48.0398 37.1652 54.2949 37.1117 62.3505Z" fill="white"/>
</svg>
