<svg width="151" height="26" viewBox="0 0 151 26" fill="none" xmlns="http://www.w3.org/2000/svg">
<path fill-rule="evenodd" clip-rule="evenodd" d="M40.7703 0.80127L27.9801 25.805H15.9663L21.3191 15.4423H21.0789C16.663 21.1749 10.0742 24.9486 0.686279 25.805V15.5858C0.686279 15.5858 6.69197 15.2311 10.2225 11.5192H0.686279V0.801467H11.404V9.61664L11.6446 9.61565L16.0243 0.801467H24.1298V9.56074L24.3702 9.56036L28.9142 0.80127H40.7703Z" fill="white"/>
<path d="M110.517 23.0449H113.969V3.23193H110.517V23.0449Z" fill="white"/>
<path fill-rule="evenodd" clip-rule="evenodd" d="M91.4892 22.8428C92.2393 23.1546 93.0022 23.3106 93.7777 23.3106C95.0589 23.3106 96.2053 22.9988 97.2168 22.375C98.2282 21.7512 99.0122 20.8915 99.5686 19.7957C100.125 18.6915 100.403 17.4396 100.403 16.0404C100.403 14.6412 100.116 13.3895 99.5433 12.2852C98.97 11.181 98.1735 10.3254 97.1535 9.71852C96.1336 9.10319 94.9745 8.79974 93.6764 8.80816C92.8505 8.80816 92.0581 8.96832 91.2994 9.28864C90.5408 9.60895 89.9087 10.0641 89.4029 10.6542C89.3638 10.6991 89.3259 10.7445 89.2891 10.7903V3.24487H85.8247V23.0452H89.2638L89.2569 21.1955C89.3458 21.3045 89.4409 21.4111 89.5419 21.5152C90.0898 22.08 90.7389 22.5225 91.4892 22.8428ZM95.0294 19.644C94.4646 19.9896 93.8198 20.1624 93.0948 20.1624C92.3783 20.1624 91.7209 19.9853 91.1224 19.6313C90.5239 19.2688 90.0477 18.7758 89.6936 18.152C89.348 17.5283 89.1752 16.8201 89.1752 16.0278C89.1669 15.2354 89.3354 14.5274 89.681 13.9036C90.0351 13.2715 90.5112 12.7825 91.1098 12.437C91.7082 12.0829 92.37 11.9101 93.0948 11.9186C93.8198 11.9101 94.4646 12.0787 95.0294 12.4243C95.6026 12.7615 96.0408 13.2462 96.3443 13.8783C96.6562 14.5021 96.8122 15.2186 96.8122 16.0278C96.8122 16.837 96.6562 17.5535 96.3443 18.1772C96.0408 18.8011 95.6026 19.2899 95.0294 19.644Z" fill="white"/>
<path d="M45.7717 4.43286H49.7166L53.2455 17.3203L56.9995 4.43286H60.287L64.3582 17.0617L67.7468 4.43286H71.3629L66.0272 23.0447H62.626L58.486 10.7072L54.6857 23.0447H51.2466L45.7717 4.43286Z" fill="white"/>
<path fill-rule="evenodd" clip-rule="evenodd" d="M77.1891 23.3736C75.815 23.3821 74.5759 23.0785 73.4717 22.4633C72.3758 21.8395 71.512 20.9755 70.8796 19.8713C70.2559 18.7671 69.9441 17.5069 69.9441 16.0907C69.9441 14.7167 70.2644 13.4735 70.9051 12.3608C71.5456 11.2482 72.4138 10.38 73.5096 9.7562C74.6055 9.13244 75.8276 8.82056 77.1763 8.82056C78.6936 8.82056 80.0212 9.15772 81.1591 9.83205C82.3055 10.5064 83.1611 11.4631 83.7259 12.7022C84.299 13.9329 84.5056 15.3448 84.3454 16.9379H73.515C73.5453 17.5726 73.7037 18.15 73.9901 18.6701C74.3104 19.2433 74.7572 19.69 75.3303 20.0103C75.9036 20.3306 76.5441 20.4908 77.2523 20.4908C77.7917 20.4823 78.2933 20.3897 78.7568 20.2127C79.2205 20.0273 79.6123 19.7786 79.9327 19.4666C80.2615 19.1548 80.4933 18.8008 80.6282 18.4047H84.2443C84.0251 19.374 83.5868 20.238 82.9294 20.9966C82.2718 21.7468 81.4458 22.3326 80.4511 22.7541C79.4565 23.1755 78.3691 23.3821 77.1891 23.3736ZM74.0028 13.4608C73.8008 13.8131 73.6608 14.1924 73.5828 14.5988H80.7621C80.71 14.0854 80.5515 13.6176 80.2867 13.1953C79.9832 12.698 79.5703 12.3145 79.0477 12.0447C78.5251 11.7666 77.935 11.6275 77.2775 11.6275C76.5779 11.6275 75.9415 11.7876 75.3682 12.1079C74.7951 12.4283 74.3399 12.8792 74.0028 13.4608Z" fill="white"/>
<path d="M102.942 9.11099C102.942 7.98147 103.199 6.97839 103.713 6.10175C104.227 5.21668 104.948 4.52969 105.875 4.0408C106.811 3.54348 107.903 3.28638 109.15 3.26953V6.34198C108.569 6.35041 108.071 6.47263 107.658 6.70866C107.254 6.93624 106.942 7.2692 106.723 7.70751C106.521 8.11104 106.412 8.57887 106.396 9.11099H109.074V12.0317H106.394V23.0446H102.942V12.0317H100.717V9.11099H102.942Z" fill="white"/>
<path fill-rule="evenodd" clip-rule="evenodd" d="M122.744 23.3483C121.336 23.3483 120.076 23.0406 118.963 22.4254C117.859 21.8015 116.991 20.9418 116.359 19.8459C115.735 18.7417 115.423 17.49 115.423 16.0907C115.423 14.6831 115.735 13.4271 116.359 12.3229C116.991 11.2102 117.859 10.3462 118.963 9.73087C120.076 9.11553 121.336 8.80786 122.744 8.80786C124.16 8.80786 125.424 9.11553 126.537 9.73087C127.658 10.3462 128.531 11.206 129.154 12.3102C129.778 13.4144 130.094 14.6746 130.103 16.0907C130.094 17.49 129.778 18.7417 129.154 19.8459C128.539 20.9418 127.671 21.8015 126.55 22.4254C125.429 23.0406 124.16 23.3483 122.744 23.3483ZM122.744 20.1747C123.486 20.1747 124.143 20.0061 124.716 19.669C125.29 19.3234 125.732 18.8429 126.044 18.2275C126.356 17.6038 126.512 16.8915 126.512 16.0907C126.512 15.2815 126.356 14.565 126.044 13.9413C125.732 13.3175 125.29 12.837 124.716 12.4999C124.143 12.1543 123.486 11.9815 122.744 11.9815C122.011 11.9815 121.357 12.1543 120.784 12.4999C120.219 12.837 119.781 13.3175 119.469 13.9413C119.157 14.565 119.006 15.2815 119.014 16.0907C119.014 16.8915 119.17 17.6038 119.482 18.2275C119.802 18.8429 120.24 19.3234 120.797 19.669C121.361 20.0061 122.011 20.1747 122.744 20.1747Z" fill="white"/>
<path d="M133.832 9.11157H129.988L134.148 23.0451H137.511L140.247 14.1458L143.201 23.0451H146.514L150.686 9.11157H147.209L144.842 17.7844L142.227 9.11157H138.864L136.261 17.9754L133.832 9.11157Z" fill="white"/>
</svg>
