<svg width="110" height="37" viewBox="0 0 110 37" fill="none" xmlns="http://www.w3.org/2000/svg">
<path d="M104.334 7.01781H99.5818V0.364014H89.1458L84.3465 7.01781H75.8182L72.9666 9.86944V7.01781H66.3128V0.364014H45.4008V7.01781H15.9815L11.1813 0.364014H0.725342V23.177L14.0329 36.4846H27.3405V32.6825L31.1427 36.4846H56.8074V32.6825L60.6095 36.4846H72.9666V32.6825L76.7687 36.4846H100.532L109.087 27.9297V11.7705L104.334 7.01781ZM16.8846 16.5232H10.2308V18.4243H16.8846V26.0287H6.4286L2.62643 22.2265V2.2651H10.2308V8.9189H16.8846V16.5232ZM45.4008 26.0287H22.5878L18.7857 22.2265V8.9189H26.39V18.4243H28.2911V8.9189H35.8954V18.4243H37.7965V8.9189H45.4008V26.0287ZM54.9063 26.0287H47.3019V8.9189H54.9063V26.0287ZM54.9063 7.01781H47.3019V2.2651H54.9063V7.01781ZM71.0655 16.5232H64.4117V18.4243H71.0655V26.0287H60.6095L56.8074 22.2265V2.2651H64.4117V8.9189H71.0655V16.5232ZM88.1753 16.5232H80.5709V18.4243H88.1753V26.0287H76.7687L72.9666 22.2265V12.7211L76.7687 8.9189H88.1753V16.5232ZM107.186 26.0287H99.5818V16.5232H97.6807V26.0287H90.0763V2.2651H97.6807V8.9189H103.384L107.186 12.7211V26.0287Z" fill="white"/>
</svg>
