<svg width="127" height="29" viewBox="0 0 127 29" fill="none" xmlns="http://www.w3.org/2000/svg">
<path d="M21.7102 28.4437L13.4609 28.2912C10.7899 28.2381 8.11231 28.3442 5.4938 27.7937C1.51026 26.9712 1.22806 22.9385 0.93274 19.5558C0.525855 14.8001 0.683359 9.95823 1.45119 5.24235C1.88433 2.59588 3.59062 1.01729 6.22882 0.844834C15.1344 0.221355 24.099 0.294315 32.9848 0.586156C33.9233 0.612687 34.8683 0.758608 35.7937 0.924427C40.3613 1.73362 40.4729 6.30359 40.7682 10.1506C41.0635 14.0374 40.9388 17.9441 40.3744 21.8043C39.9216 25.0013 39.0553 27.6809 35.3999 27.9396C30.8192 28.2779 26.3434 28.5498 21.7495 28.4636C21.7495 28.4437 21.7233 28.4437 21.7102 28.4437V28.4437ZM16.8604 20.3518C20.3123 18.3487 23.6987 16.3787 27.1309 14.3889C23.6724 12.3858 20.2926 10.4159 16.8604 8.42607V20.3518Z" fill="white"/>
<path d="M106.936 24.809C106.778 25.459 106.64 25.9697 106.502 26.5136H103.274V1.34204H107.041V10.628C107.237 10.3759 107.336 10.2698 107.421 10.1571C108.064 9.26163 108.898 8.67794 109.974 8.45242C111.687 8.11415 113.15 8.87692 113.669 10.5418C114.004 11.5765 114.22 12.6842 114.246 13.7653C114.299 16.5445 114.26 19.317 114.161 22.0961C114.122 22.9451 113.866 23.814 113.544 24.61C112.488 27.2366 109.036 27.6345 107.323 25.3595C107.218 25.2202 107.119 25.0676 106.936 24.809V24.809ZM107.119 17.8843V22.4875C107.119 23.237 107.513 23.6946 108.255 23.8671C108.983 24.0395 109.574 23.7543 109.869 23.0712C109.994 22.7859 110.118 22.4875 110.125 22.189C110.197 19.3767 110.263 16.5644 110.283 13.7454C110.283 13.2214 110.158 12.6775 110 12.1668C109.705 11.2448 108.891 10.9729 108.091 11.5102C107.487 11.9214 107.119 12.5051 107.119 13.2811V17.8843ZM96.8816 8.81059H100.826V26.5269H97.7479C97.6363 25.8569 97.5247 25.1671 97.3935 24.3579C97.1835 24.6697 97.0588 24.8686 96.9275 25.0676C95.9038 26.56 94.4534 27.0707 92.7406 26.7988C91.2771 26.56 90.3977 25.4192 90.2008 23.5487C90.1417 22.9916 90.1155 22.4278 90.1155 21.8706C90.1024 17.7251 90.1155 13.5663 90.1155 9.42081V8.79733H94.1056V9.52031C94.1056 13.5265 94.0925 17.5261 94.1187 21.5323C94.1187 22.1028 94.1778 22.6931 94.2762 23.2635C94.3878 23.8472 94.8078 24.0594 95.3722 24.0196C96.2844 23.9467 96.9144 23.2635 96.9144 22.3482V9.59327C96.8816 9.33459 96.8816 9.09581 96.8816 8.81059V8.81059ZM69.7253 8.79733H73.6891V9.54684C73.6891 13.5332 73.676 17.5129 73.7023 21.4859C73.7023 22.0563 73.7548 22.6467 73.8729 23.2038C74.0238 23.8605 74.4045 24.0727 75.0542 23.9865C75.9533 23.8605 76.498 23.2303 76.5045 22.3084V9.6198V8.82386H80.4487V26.5269H77.3839C77.2723 25.8702 77.1608 25.1937 77.0164 24.338C76.8195 24.6365 76.708 24.809 76.5964 24.988C75.5726 26.507 74.1354 27.0641 72.3832 26.7922C70.9788 26.5799 70.119 25.5319 69.8565 23.814C69.7843 23.2768 69.7318 22.7461 69.7318 22.2089C69.7187 17.9042 69.7187 13.5796 69.7187 9.27489L69.7253 8.79733ZM67.6909 18.2557C67.6777 18.8527 67.6384 19.4496 67.6055 20.0466C67.4546 21.8374 67.3824 24.3778 65.9517 25.6845C65.0395 26.507 63.8845 26.8054 62.6901 26.8452C62.1585 26.8585 61.6204 26.8585 61.0888 26.7855C58.5753 26.4008 57.4072 25.2799 56.9871 22.4875C56.5081 19.2639 56.4687 15.9873 57.0396 12.7638C57.6303 9.42745 59.6647 8.2468 62.8279 8.46569C65.7811 8.67794 67.1002 10.6346 67.448 13.4204C67.6384 15.0189 67.7302 16.6373 67.6909 18.2557V18.2557ZM63.6745 17.6455C63.6745 16.5113 63.7008 15.3705 63.6614 14.2362C63.6351 13.5796 63.5498 12.9163 63.412 12.2663C63.2545 11.5168 62.782 11.1586 62.1913 11.1719C61.6138 11.1851 61.2069 11.5433 60.9969 12.2398C60.9247 12.4984 60.846 12.7638 60.846 13.0224C60.846 14.8 60.8329 16.5843 60.8197 18.3619C60.8066 20.0201 60.5966 21.7579 61.1151 23.3431C61.2726 23.8273 61.6795 24.0926 62.211 24.0926C62.7295 24.0926 63.0707 23.8339 63.2611 23.3696C63.412 23.0115 63.5432 22.6201 63.5432 22.2354C63.5892 20.7099 63.6745 19.1777 63.6745 17.6455ZM51.1989 14.3092C51.5467 12.5913 51.8748 10.9132 52.2358 9.22846C52.6886 7.08606 53.1939 4.94366 53.6402 2.79463C53.7518 2.27064 53.9618 2.14461 54.454 2.15788C55.5105 2.19767 56.5868 2.17114 57.7156 2.17114C57.3481 3.5375 56.9871 4.83754 56.6328 6.11767C55.5105 10.1372 54.3883 14.1699 53.2792 18.2027C53.1939 18.5144 53.1545 18.8527 53.1545 19.1843C53.1414 21.3864 53.1545 23.5819 53.1545 25.784V26.5003H49.3023C49.2891 26.3013 49.2629 26.1024 49.2629 25.9034C49.2629 24.6564 49.1645 23.4028 49.276 22.1691C49.5582 19.2042 48.6263 16.4781 47.8716 13.7189C46.8741 10.0708 45.8634 6.40951 44.8659 2.76146C44.8134 2.58901 44.7937 2.40329 44.7412 2.19104H48.6722C49.4991 6.21716 50.3326 10.2433 51.1989 14.3092ZM126.571 18.9323H119.93C120.002 20.2787 120.028 21.5589 120.166 22.8257C120.264 23.7079 120.743 24.086 121.498 24.0926C122.286 24.1059 122.745 23.7079 122.929 22.8324C122.988 22.5472 123.027 22.2619 123.054 21.9701C123.08 21.7114 123.093 21.4328 123.113 21.0614C124.235 21.1211 125.331 21.1874 126.414 21.2339C127.044 23.1242 125.908 25.5518 123.999 26.3013C122.496 26.8983 120.953 26.8983 119.418 26.4406C118.282 26.1024 117.436 25.3727 117.055 24.2518C116.701 23.2038 116.366 22.1094 116.294 21.015C116.097 18.3154 116.025 15.5893 116.432 12.8831C116.504 12.4321 116.629 12.001 116.766 11.5632C117.318 9.75909 118.519 8.65141 120.376 8.46569C121.387 8.3662 122.43 8.40599 123.428 8.57845C125.042 8.86366 125.902 10.0377 126.276 11.5765C126.446 12.2995 126.571 13.0423 126.597 13.7786C126.604 15.4699 126.571 17.148 126.571 18.9323ZM122.798 16.6042C122.798 15.271 122.811 14.0174 122.784 12.7571C122.784 12.4586 122.673 12.1469 122.561 11.8617C122.338 11.3045 121.872 11.152 121.314 11.152C120.757 11.152 120.402 11.4372 120.264 11.9479C119.844 13.4801 119.982 15.0454 119.995 16.6174C120.999 16.6042 121.912 16.6042 122.798 16.6042V16.6042Z" fill="white"/>
<path d="M83.4931 5.42139H79.5884V2.22437H91.2436V5.40149H87.3651V26.5005H83.4997L83.4931 5.42139Z" fill="white"/>
</svg>
