<svg width="142" height="35" viewBox="0 0 142 35" fill="none" xmlns="http://www.w3.org/2000/svg">
<path d="M15.7629 0.38376C13.9363 0.590649 11.1965 1.45003 9.63757 2.30942C5.44905 4.5852 2.61471 8.13414 1.19754 12.8607C0.914101 13.7838 0.583428 16.2983 0.599174 17.476C0.599174 18.5104 0.914101 21.0408 1.10306 21.6456C1.19754 21.932 1.40224 22.6164 1.57545 23.1415C1.85888 24.0327 3.22881 26.8337 3.46501 27.0247C3.51225 27.0724 3.76419 27.3907 4.00038 27.7567C4.583 28.632 6.11039 30.1917 7.25988 31.0829C8.14167 31.7672 10.6296 33.2154 10.9445 33.2313C11.0233 33.2313 11.039 32.6266 10.9918 31.8309C10.8815 30.0644 11.2122 27.6613 11.9208 25.2104C12.0468 24.7966 12.1412 24.2556 12.1412 24.0168C12.1412 23.7781 12.2042 23.5235 12.283 23.4439C12.3617 23.3484 12.5034 22.8869 12.5821 22.4095C12.6766 21.932 12.8341 21.2 12.9443 20.7862C13.1018 20.1655 13.086 19.9268 12.8656 19.2584C12.5506 18.2399 12.5349 16.5847 12.8498 15.789C13.5899 13.8952 14.4087 13.179 15.7944 13.179C17.4635 13.179 18.2666 14.4522 17.9516 16.5847C17.8099 17.5555 17.4163 19.0833 17.1643 19.5608C17.1013 19.704 16.9911 20.1019 16.9439 20.4361C16.8809 20.7862 16.7549 21.2795 16.6762 21.5501C16.4557 22.1708 16.8809 23.3803 17.4478 23.8418C17.9831 24.2715 19.1011 24.3988 20.1246 24.1601C20.849 24.0009 21.1481 23.8099 21.904 23.0779C22.8015 22.1867 23.4786 21.1522 23.4786 20.6589C23.4786 20.5156 23.5573 20.3247 23.6518 20.2292C24.0927 19.7836 24.3289 16.3142 23.9982 14.8501C23.6361 13.2427 22.5181 11.6672 21.0694 10.7441C19.6208 9.80516 16.6289 9.53461 14.7866 10.1712C13.4954 10.6168 12.3459 11.3648 11.6059 12.2401C10.9445 13.0199 10.2517 14.2931 10.2517 14.7387C10.2517 14.8978 10.1729 15.1047 10.0785 15.2002C9.98399 15.2957 9.87377 15.9004 9.82653 16.5529C9.7478 17.5237 9.81078 17.9693 10.0942 18.9242C10.2832 19.5767 10.6296 20.3406 10.8343 20.627C11.2594 21.2 11.2594 21.4228 10.8658 22.9506C10.7556 23.3643 10.5666 23.7463 10.4564 23.794C9.46436 24.176 7.44883 21.7729 6.77174 19.3857C6.5198 18.4786 6.50405 15.2479 6.75599 14.2931C6.86622 13.8952 7.05517 13.3541 7.18114 13.0676C7.30712 12.7971 7.41734 12.5265 7.41734 12.4629C7.41734 12.3992 7.73227 11.8581 8.12592 11.2693C10.1729 8.15005 13.4954 6.49494 17.6997 6.49494C18.6602 6.49494 19.6522 6.5586 19.9199 6.63817C22.0929 7.32249 22.6755 7.5453 23.5258 8.05456C25.1792 9.05718 26.3759 10.4258 27.5727 12.7175C27.6514 12.8607 27.7616 13.2427 27.8089 13.561C27.8718 13.8793 27.9821 14.1817 28.0608 14.2294C28.1395 14.2771 28.2025 15.3116 28.2025 16.537C28.2025 18.7491 28.045 19.6403 27.3837 21.4546C26.6436 23.4439 24.7383 25.6401 23.0062 26.4995C22.0142 26.9769 20.1561 27.5021 19.416 27.5021C18.424 27.5021 16.4715 26.6746 15.9361 26.0062C15.6842 25.7038 15.448 25.8152 15.448 26.2449C15.448 26.404 15.385 26.6746 15.2905 26.8337C15.2118 26.9769 15.0701 27.4225 14.9913 27.8204C14.5347 29.9211 13.8891 31.624 12.8971 33.2154C12.5979 33.7088 12.8498 33.9952 13.6686 34.1066C14.078 34.1703 14.6292 34.2817 14.8811 34.3613C15.511 34.5682 18.9279 34.5363 20.0774 34.3294C21.1167 34.1385 22.8015 33.661 23.5573 33.3427C28.3127 31.3693 31.9186 27.3589 33.4775 22.2503C34.3121 19.5289 34.3593 16.3619 33.6035 13.179C33.3516 12.1446 33.2728 11.9059 32.5957 10.3144C31.6195 7.9909 29.415 5.26952 27.179 3.59849C25.2579 2.16619 23.3684 1.33863 20.4238 0.622478C19.605 0.431504 16.6919 0.272359 15.7629 0.38376ZM57.7584 6.12891C57.1443 6.22439 56.168 7.24292 55.9161 8.03865C55.6484 8.91395 55.9161 9.8529 56.6719 10.585C58.341 12.2242 61.2383 10.6805 60.8762 8.32511C60.6557 6.82914 59.3015 5.87427 57.7584 6.12891ZM40.5949 7.06786C40.4532 7.22701 40.4532 26.4199 40.6106 26.6427C40.6894 26.77 41.3664 26.8178 42.6891 26.8019L44.6574 26.786L44.7362 23.5553C44.7991 20.9294 44.8621 20.2928 45.0511 20.1814C45.1771 20.1019 46.2478 20.0223 47.4288 20.0223C50.0112 20.0223 51.0977 19.8313 52.2787 19.1947C53.8218 18.3513 54.7193 17.1418 55.2075 15.2161C55.5067 14.0066 55.5067 13.1313 55.1917 11.89C54.9083 10.7759 54.7823 10.5054 54.1052 9.59827C53.2707 8.46834 52.4204 7.84767 51.0347 7.35432C50.2631 7.09969 49.6175 7.05195 45.4448 7.0042C42.8466 6.97238 40.6579 7.0042 40.5949 7.06786ZM49.2396 11.0306C50.2946 11.3648 50.8143 11.8422 51.0504 12.7016C51.3496 13.8315 51.1292 14.8819 50.4678 15.5185C49.7435 16.2028 49.0979 16.3619 46.9879 16.3619C45.6022 16.3619 45.1771 16.3142 44.9881 16.1073C44.7834 15.9163 44.7362 15.4548 44.7362 13.6406C44.7362 10.7759 44.7204 10.7919 46.9092 10.7919C47.8539 10.7919 48.7672 10.8873 49.2396 11.0306ZM76.8587 10.0916C76.8587 11.1897 76.78 12.2242 76.7012 12.3992C76.591 12.6061 76.3706 12.7016 75.9926 12.7016C75.7092 12.7016 75.4415 12.7653 75.41 12.8607C75.3943 12.9403 75.3943 13.4973 75.4415 14.0862C75.5203 15.1365 75.536 15.1524 76.0084 15.2638C76.2761 15.3116 76.5753 15.4071 76.6697 15.4707C76.8115 15.5503 76.8587 16.8076 76.8587 19.9905C76.8587 24.2715 76.8744 24.4306 77.2209 25.0672C77.9452 26.4199 79.0789 26.8974 81.3779 26.8337L82.921 26.786L82.9683 25.2423L83.0155 23.6826H82.6219C82.0235 23.6826 81.1417 23.2052 81.0472 22.8232C81 22.6323 80.9527 20.9453 80.9527 19.0515C80.9527 16.4415 81 15.5662 81.1574 15.4389C81.2677 15.3434 81.7086 15.2479 82.1337 15.2161L82.921 15.1684V12.7812L82.055 12.7334C81.5826 12.7016 81.1417 12.5902 81.0787 12.4947C81.0157 12.3833 80.9527 11.3489 80.9527 10.1871V8.08639H76.8587V10.0916ZM135.388 8.18188C135.325 8.24554 135.278 9.24815 135.278 10.4099C135.278 12.6698 135.262 12.7016 134.396 12.7016C134.002 12.7016 134.002 12.7175 134.049 13.927C134.097 15.1365 134.112 15.1684 134.522 15.2161C134.742 15.2479 135.01 15.3593 135.089 15.4548C135.183 15.5662 135.278 17.4919 135.325 19.9427C135.372 22.2981 135.451 24.4465 135.514 24.7012C135.703 25.4014 136.679 26.2926 137.608 26.595C138.647 26.9451 141.293 26.9769 141.56 26.6427C141.686 26.4995 141.734 25.9266 141.702 25.099L141.655 23.7622L141.104 23.6667C140.505 23.5712 139.828 23.2529 139.655 22.9824C139.592 22.8869 139.529 21.1522 139.529 19.1311C139.529 14.9774 139.435 15.2479 140.805 15.2479C141.702 15.2479 141.781 15.0888 141.702 13.6406L141.655 12.7812L140.631 12.7016L139.608 12.622L139.529 10.394L139.45 8.16596L137.466 8.11822C136.38 8.10231 135.451 8.13414 135.388 8.18188ZM69.0643 12.3197C68.2927 12.5265 67.3951 13.0517 66.7968 13.6724C66.0725 14.4363 65.8835 14.3885 65.8048 13.4178L65.7575 12.7812H61.8209V26.786L63.805 26.8178C65.7575 26.8655 65.8048 26.8496 65.8992 26.4995C65.9465 26.3085 65.9937 24.2874 65.9937 21.9957C65.9937 17.46 66.0095 17.3327 66.9385 16.4415C67.3479 16.0437 67.5684 15.9641 68.4502 15.9163L69.4737 15.8527L70.0878 16.5052C70.8121 17.2691 70.7334 16.537 70.7964 23.1256C70.8121 24.8762 70.8278 26.4199 70.8436 26.5791C70.8751 26.8019 71.127 26.8337 72.8906 26.8019L74.8904 26.786V15.614L74.4338 14.7068C73.6464 13.1313 72.434 12.3833 70.5759 12.2878C69.9146 12.2719 69.2375 12.2719 69.0643 12.3197ZM88.7472 12.3197C87.0466 12.7812 86.2278 13.2427 85.1728 14.2931C83.7556 15.7413 83.11 17.4282 83.11 19.704C83.1257 23.6985 85.5979 26.6586 89.2511 27.0088C92.3689 27.3111 94.778 26.3881 96.3212 24.3033C96.5416 24.0009 97.014 23.0301 97.014 22.8551C97.014 22.7914 96.1007 22.7278 94.9985 22.7278H92.983L92.5106 23.2211C91.9594 23.794 91.1879 24.1601 90.4793 24.1601C89.7707 24.1601 88.6842 23.6508 88.1803 23.1097C87.8024 22.68 87.2513 21.4387 87.2513 21.009C87.2513 20.8658 88.4008 20.818 92.1012 20.818C94.7623 20.818 97.014 20.7544 97.1242 20.6907C97.3604 20.5316 97.14 18.0011 96.7936 17.0781C96.085 15.1524 94.7465 13.5292 93.3924 12.9562C92.9987 12.7971 92.5421 12.5902 92.3846 12.5106C92.0539 12.3356 89.2511 12.1923 88.7472 12.3197ZM91.8177 15.8049C92.4318 16.2346 92.9672 17.2532 92.8885 17.8261C92.8412 18.1921 92.8098 18.1921 90.1486 18.2399C87.0781 18.2876 87.0623 18.2717 87.5505 17.1258C87.8969 16.3301 88.5897 15.614 89.2353 15.4071C89.9754 15.1684 91.1721 15.3593 91.8177 15.8049ZM112.052 12.3197C110.225 12.813 108.95 13.6246 107.958 14.8819C107.564 15.3912 107.249 15.8686 107.249 15.9641C107.249 16.0437 107.139 16.3301 106.997 16.6007C106.855 16.8553 106.651 17.651 106.541 18.3672C105.989 21.7729 107.501 24.9558 110.335 26.3881L111.422 26.9451H113.705C116.067 26.9451 116.272 26.8974 117.72 26.1176C118.775 25.5446 120.508 23.3166 120.24 22.871C120.177 22.7914 119.279 22.7278 118.224 22.7278H116.288L115.894 23.1893C114.319 24.9876 111.375 24.0646 110.745 21.566C110.65 21.2318 110.65 20.9453 110.729 20.8817C110.808 20.8339 113.06 20.8021 115.752 20.818C119.594 20.818 120.634 20.7862 120.649 20.627C120.791 18.6377 119.846 15.6935 118.665 14.4204C118.004 13.7042 116.854 12.9085 116.288 12.7653C116.036 12.7016 115.752 12.5902 115.642 12.5106C115.421 12.3356 112.54 12.1923 112.052 12.3197ZM114.508 15.423C115.217 15.6776 116.036 16.5688 116.162 17.2532C116.351 18.2876 116.366 18.2876 113.437 18.2399C110.808 18.1921 110.792 18.1921 110.745 17.8261C110.682 17.3805 111.233 16.2824 111.705 15.8686C112.382 15.2957 113.563 15.1047 114.508 15.423ZM125.751 12.3197C122.523 13.0995 121.358 14.2612 121.342 16.6802C121.342 19.2902 122.633 20.3883 126.46 21.0726C129.089 21.5342 129.845 21.9479 129.814 22.9506C129.798 23.6667 129.31 24.1282 128.333 24.3351C127.105 24.6057 126.145 24.3033 125.373 23.428L124.759 22.7278H122.854C121.311 22.7278 120.948 22.7755 120.948 22.9506C120.948 23.4121 121.578 24.6216 122.098 25.2263C122.586 25.7515 122.964 26.0062 124.444 26.7223C124.586 26.8019 125.357 26.9292 126.129 27.0247C127.562 27.1997 130.05 27.0406 130.68 26.7223C130.821 26.6586 131.231 26.4518 131.577 26.2926C132.475 25.8629 133.325 24.8921 133.64 23.9691C133.986 22.9187 133.892 21.4546 133.404 20.4361C132.821 19.2425 131.278 18.3831 128.979 17.9693C126.019 17.4441 125.972 17.4282 125.499 16.9667C124.932 16.3779 124.932 16.171 125.499 15.5344C125.956 15.0251 125.987 15.0092 127.247 15.0092C128.507 15.0092 128.538 15.0251 128.995 15.5344C129.247 15.8209 129.451 16.1551 129.451 16.2824C129.451 16.4733 129.782 16.5211 131.42 16.5211C133.593 16.5211 133.53 16.5688 133.152 15.4389C132.459 13.4337 130.68 12.4151 127.719 12.3037C126.806 12.2719 125.924 12.2719 125.751 12.3197ZM104.808 12.6539C104.116 12.8926 103.155 13.6883 102.856 14.2612C102.557 14.8342 102.289 14.5954 102.21 13.6406L102.132 12.7812H98.195L98.1478 19.4653C98.132 23.1415 98.1478 26.3085 98.195 26.5154C98.2737 26.8655 98.321 26.8655 100.211 26.8337C101.297 26.8178 102.179 26.7223 102.242 26.6268C102.305 26.5472 102.368 24.8603 102.368 22.8869C102.368 19.7677 102.399 19.2106 102.667 18.5104C103.218 17.0622 104.399 16.2028 105.879 16.2028C106.289 16.2028 106.462 16.1232 106.509 15.9163C106.619 15.4548 106.635 13.3064 106.541 12.8289C106.446 12.447 106.367 12.3833 105.942 12.3992C105.659 12.4151 105.155 12.5265 104.808 12.6539ZM56.3097 12.8926C56.2625 13.004 56.2467 16.1391 56.2625 19.8631L56.3097 26.6268L58.1835 26.7064C59.3173 26.7541 60.1361 26.7223 60.2621 26.6268C60.4353 26.4995 60.4825 25.1468 60.4825 19.7358C60.4982 16.0437 60.451 12.9403 60.4038 12.8607C60.2463 12.622 56.3885 12.6539 56.3097 12.8926Z" fill="white"/>
</svg>
