<svg width="113" height="37" viewBox="0 0 113 37" fill="none" xmlns="http://www.w3.org/2000/svg">
<path d="M14.6975 0H15.6907C19.1389 0.075763 22.531 1.47738 24.9672 3.95862C24.0677 4.88671 23.1494 5.77693 22.2686 6.70503C20.9006 5.45494 19.2514 4.48896 17.4523 4.14802C14.7912 3.5798 11.9239 4.0912 9.69375 5.6254C7.25749 7.23537 5.60833 9.96284 5.25226 12.8797C4.85871 15.7587 5.66455 18.7892 7.51986 21.0242C9.3002 23.2024 12.0176 24.5662 14.8286 24.6609C17.4523 24.8124 20.1884 23.9979 22.0999 22.1417C23.5992 20.8348 24.2926 18.846 24.5175 16.9141C21.4065 16.9141 18.2956 16.933 15.1847 16.9141V13.0123H28.2843C28.959 17.1982 27.9844 21.9144 24.836 24.9071C22.7371 27.0285 19.8323 28.2785 16.8713 28.5248C14.0041 28.8089 11.0431 28.2596 8.49436 26.858C5.43966 25.2101 3.0034 22.4258 1.80401 19.1491C0.679585 16.1375 0.660845 12.7282 1.71031 9.69766C2.66607 6.93232 4.50264 4.48896 6.86394 2.78429C9.13154 1.09856 11.8864 0.170467 14.6975 0Z" fill="white"/>
<path d="M89.8472 0.984985H93.8576V28.0323C92.527 28.0323 91.1777 28.0513 89.8472 28.0134C89.8659 19.0165 89.8472 10.0008 89.8472 0.984985V0.984985Z" fill="white"/>
<path d="M37.2041 10.3606C39.6779 9.88713 42.3578 10.4175 44.4005 11.9138C46.2558 13.2396 47.5489 15.3231 47.9424 17.596C48.4484 20.2287 47.8112 23.1077 46.1246 25.1911C44.3068 27.5208 41.327 28.7709 38.4223 28.5815C35.7611 28.43 33.1749 27.0852 31.6007 24.8881C29.8204 22.4637 29.3893 19.1301 30.3638 16.2891C31.3384 13.2396 34.0932 10.9099 37.2041 10.3606V10.3606ZM37.7663 13.9594C36.7544 14.2245 35.8173 14.8117 35.1427 15.6451C33.3248 17.8422 33.4373 21.422 35.4425 23.4675C36.5857 24.6419 38.3098 25.1911 39.9028 24.8691C41.3833 24.604 42.6763 23.6001 43.3885 22.2743C44.6254 20.0204 44.2693 16.9141 42.3765 15.1526C41.1584 14.0162 39.378 13.5427 37.7663 13.9594Z" fill="white"/>
<path d="M57.0676 10.3606C59.8974 9.81129 62.9896 10.6068 65.1073 12.6145C68.5555 15.7398 68.9303 21.5925 65.9881 25.1912C64.2077 27.4641 61.3217 28.7142 58.4732 28.5816C55.7558 28.5058 53.0759 27.1421 51.4642 24.8882C49.6464 22.4069 49.2528 18.9976 50.2836 16.0996C51.3143 13.1449 54.0129 10.8909 57.0676 10.3606V10.3606ZM57.6298 13.9593C56.6178 14.2245 55.6808 14.8117 55.0062 15.6261C53.2071 17.7854 53.282 21.3083 55.2123 23.3729C56.3555 24.604 58.1358 25.2102 59.785 24.8692C61.2467 24.5851 62.5586 23.6002 63.2707 22.2743C64.4889 20.0014 64.1328 16.8951 62.2213 15.1337C61.0031 13.9972 59.2228 13.5426 57.6298 13.9593Z" fill="white"/>
<path d="M73.9174 11.4592C76.0726 10.0955 78.9399 9.71669 81.2637 10.891C81.9946 11.213 82.5943 11.7623 83.1753 12.3116C83.194 11.8002 83.1753 11.2698 83.194 10.7395C84.4496 10.7584 85.7052 10.7395 86.9796 10.7584V27.4641C86.9608 29.9833 86.3237 32.6539 84.5246 34.4911C82.5568 36.5178 79.5396 37.1428 76.8222 36.7261C73.9174 36.2905 71.3875 34.1502 70.263 31.4417C71.3875 30.8924 72.5681 30.4568 73.73 29.9454C74.386 31.4985 75.7165 32.8244 77.3844 33.1274C79.0523 33.4305 80.9826 33.0138 82.0696 31.6122C83.2315 30.1727 83.2315 28.2028 83.1753 26.4413C82.3132 27.2937 81.3199 28.0513 80.1206 28.3354C77.5156 29.0741 74.6483 28.1649 72.6431 26.3845C70.6191 24.6041 69.4197 21.8577 69.5322 19.1302C69.5884 16.0429 71.3125 13.0692 73.9174 11.4592V11.4592ZM77.7967 13.8836C76.6536 14.0731 75.5853 14.717 74.8545 15.6073C73.0929 17.7286 73.0929 21.119 74.8732 23.2025C75.8852 24.4336 77.5156 25.1155 79.0898 24.945C80.5703 24.7935 81.9384 23.8465 82.6693 22.5396C83.9061 20.3235 83.7 17.3119 82.0321 15.38C81.0014 14.1867 79.3522 13.5995 77.7967 13.8836V13.8836Z" fill="white"/>
<path d="M98.671 12.4253C100.92 10.304 104.387 9.58421 107.273 10.7017C110.009 11.7435 111.752 14.3762 112.633 17.0847C108.566 18.7894 104.518 20.4751 100.451 22.1798C101.014 23.2594 101.876 24.2443 103.038 24.6421C104.668 25.2293 106.617 25.0209 107.985 23.9223C108.529 23.5056 108.96 22.9564 109.372 22.426C110.403 23.1268 111.433 23.8087 112.464 24.5095C111.002 26.7256 108.547 28.2787 105.905 28.5249C102.981 28.8848 99.8704 27.7484 97.9776 25.4376C94.8667 21.801 95.1666 15.7021 98.671 12.4253V12.4253ZM100.676 15.9294C100.039 16.8575 99.7767 17.9939 99.7955 19.1114C102.513 17.975 105.23 16.8385 107.948 15.6831C107.498 14.6224 106.411 13.9785 105.305 13.808C103.525 13.486 101.67 14.452 100.676 15.9294V15.9294Z" fill="white"/>
</svg>
