<svg width="137" height="27" viewBox="0 0 137 27" fill="none" xmlns="http://www.w3.org/2000/svg">
<path d="M8.66091 26.3836H3.50934V13.4042H0V9.17834H3.50921V6.17135C3.50921 2.60806 5.06133 0.0524902 10.199 0.0524902C11.2856 0.0524902 12.9915 0.273849 12.9915 0.273849V4.19778H11.1997C9.37401 4.19778 8.66118 4.75905 8.66118 6.31077V9.17834H12.9231L12.5436 13.4042H8.66104L8.66091 26.3836ZM20.4813 8.84064C20.4062 8.84064 20.329 8.84341 20.2526 8.84534C15.4757 8.84534 13.2902 12.4769 13.2902 17.632C13.2902 24.126 16.1251 26.7251 20.2899 26.7251C22.6727 26.7251 24.2382 25.7114 25.1898 23.8198V26.3854H30.0896V9.18014H25.1898V11.8261C24.4128 10.1237 22.8035 8.86081 20.4813 8.84064ZM21.7272 12.9062C23.7335 12.9062 24.9377 14.3206 24.9377 16.7264L24.9423 19.1836C24.9423 20.8051 23.9477 22.7021 21.7272 22.7021C18.3134 22.7021 18.4046 18.9766 18.4046 17.7357C18.4046 13.5618 20.2235 12.9062 21.7272 12.9062ZM32.0685 17.7837C32.0685 15.6929 31.9695 8.85183 40.7882 8.85183C44.3281 8.85183 45.8063 9.98944 45.8063 9.98944L44.6182 13.7137C44.6182 13.7137 43.142 12.8921 41.2184 12.8921C38.7547 12.8921 37.1826 14.3356 37.1826 16.8755L37.1853 18.6966C37.1853 21.1371 38.7022 22.7662 41.2235 22.7662C42.9759 22.7662 44.591 21.9369 44.591 21.9369L45.7761 25.5833C45.7761 25.5833 44.4245 26.7281 40.8129 26.7281C32.4161 26.7281 32.0686 20.5903 32.0686 17.7837H32.0685ZM74.536 8.84534C79.313 8.84534 81.533 12.4769 81.533 17.632C81.533 24.126 78.6979 26.7251 74.5332 26.7251C72.1503 26.7251 70.3889 25.7116 69.4374 23.8198V26.3854L64.5992 26.3835V0.575626L69.7361 0.122822V11.593C70.4775 9.58624 72.914 8.84534 74.5362 8.84534H74.536ZM73.0959 12.9062C71.0896 12.9062 69.7361 14.3206 69.7361 16.7264L69.7313 19.1836C69.7283 20.8051 70.6686 22.7021 73.0959 22.7021C76.5097 22.7021 76.4185 18.9766 76.4185 17.7357C76.4185 13.5618 74.5997 12.9062 73.0959 12.9062ZM54.7193 8.85957C49.3013 8.85957 46.4409 11.8451 46.4409 17.1508V18.1366C46.4409 25.0229 50.4577 26.7958 55.2466 26.7958C59.9014 26.7958 62.0083 25.48 62.0083 25.48L61.047 21.9758C61.047 21.9758 58.5687 23.0416 55.8625 23.0416C53.0571 23.0416 51.8506 22.3189 51.5414 19.5941H62.419V16.7829C62.419 11.0276 59.2088 8.85943 54.7192 8.85943L54.7193 8.85957ZM54.8499 12.3684C56.7253 12.3684 57.9406 13.5308 57.8739 16.2264H51.5508C51.6604 13.3893 52.971 12.3686 54.8499 12.3686V12.3684ZM91.7758 8.83594C86.2119 8.83594 83.2828 12.0049 83.2828 17.6838C83.2828 25.4755 88.332 26.7298 91.7851 26.7298C96.8403 26.7298 100.203 23.9791 100.203 17.7545C100.203 11.2759 96.4219 8.83594 91.7758 8.83594V8.83594ZM91.7058 12.9203C94.1523 12.9203 95.1218 14.7709 95.1218 16.8774V18.6885C95.1218 21.2403 93.7653 22.7163 91.6965 22.7163C89.7617 22.7163 88.402 21.3356 88.402 18.6885V16.8774C88.402 14.0542 90.02 12.9203 91.7058 12.9203V12.9203ZM110.437 8.83594C104.873 8.83594 101.944 12.0049 101.944 17.6838C101.944 25.4755 106.993 26.7298 110.446 26.7298C115.501 26.7298 118.865 23.9791 118.865 17.7545C118.865 11.2759 115.083 8.83594 110.437 8.83594V8.83594ZM110.367 12.9203C112.814 12.9203 113.783 14.7709 113.783 16.8774V18.6885C113.783 21.2403 112.427 22.7163 110.358 22.7163C108.423 22.7163 107.063 21.3356 107.063 18.6885V16.8774C107.063 14.0542 108.681 12.9203 110.367 12.9203V12.9203ZM120.806 26.3836V0.575626L125.958 0.122822V17.421L131.069 9.17834H136.51L131.178 17.7153L136.715 26.3836H131.259L125.958 17.9668V26.3836H120.806Z" fill="white"/>
</svg>
