<svg width="87" height="87" viewBox="0 0 87 87" fill="none" xmlns="http://www.w3.org/2000/svg">
<rect width="87" height="87" fill="black"/>
<path d="M31.7831 28.2246C40.1815 28.2246 46.9891 35.0798 46.9891 43.5354C46.9891 51.9911 40.1809 58.8458 31.7831 58.8458C23.3853 58.8458 16.5767 51.9911 16.5767 43.5354C16.5767 35.0798 23.3848 28.2246 31.7831 28.2246ZM56.0668 29.1215C60.2659 29.1215 63.67 35.5742 63.67 43.5354H63.6705C63.6705 51.4946 60.2665 57.9494 56.0673 57.9494C51.8681 57.9494 48.4641 51.4946 48.4641 43.5354C48.4641 35.5762 51.8676 29.1215 56.0668 29.1215ZM67.8196 30.6228C69.2961 30.6228 70.4937 36.4039 70.4937 43.5354C70.4937 50.6649 69.2966 56.4481 67.8196 56.4481C66.3425 56.4481 65.146 50.6665 65.146 43.5354C65.146 36.4044 66.3431 30.6228 67.8196 30.6228Z" fill="white"/>
</svg>
