<svg width="87" height="87" viewBox="0 0 87 87" fill="none" xmlns="http://www.w3.org/2000/svg">
<rect width="87" height="87" fill="#15151E"/>
<path d="M67.0742 32.0333C64.1333 32.0333 61.4139 31.0563 59.2385 29.4146C56.7407 27.5312 54.9379 24.7616 54.3034 21.5789C54.1422 20.7933 54.0617 19.9775 54.0516 19.1416H45.6418V42.1149L45.6317 54.6944C45.6317 58.0583 43.4361 60.9085 40.4046 61.9157C39.5183 62.2078 38.5715 62.3488 37.5845 62.2883C36.3155 62.2178 35.1371 61.8351 34.0997 61.2208C31.9041 59.9115 30.4236 57.5346 30.3833 54.8051C30.3229 50.5549 33.7573 47.0802 38.0075 47.0802C38.8435 47.0802 39.6492 47.2212 40.4046 47.463V41.1883V38.9424C39.6089 38.8215 38.8032 38.7611 37.9773 38.7611C33.3242 38.7611 28.9733 40.6948 25.8612 44.1796C23.5145 46.8083 22.1045 50.1722 21.8829 53.6973C21.6009 58.3201 23.2929 62.7214 26.5763 65.9645C27.0597 66.4378 27.5633 66.881 28.0971 67.2939C30.9171 69.4593 34.3515 70.6377 37.9773 70.6377C38.7931 70.6377 39.6089 70.5773 40.4046 70.4564C43.7886 69.9528 46.9108 68.4018 49.3784 65.9645C52.4099 62.9732 54.0818 58.9949 54.1019 54.7649L54.0617 35.9713C55.512 37.0892 57.0831 38.0057 58.7852 38.7208C61.424 39.8387 64.2239 40.3927 67.0943 40.3927V34.2893V32.0232C67.1044 32.0333 67.0742 32.0333 67.0742 32.0333Z" fill="white"/>
</svg>
