<svg width="87" height="87" viewBox="0 0 87 87" fill="none" xmlns="http://www.w3.org/2000/svg">
<rect width="87" height="87" fill="#00ACEE"/>
<path d="M50.4129 27.6372V27.6299H52.3306L53.0313 27.7698C53.4985 27.8607 53.9226 27.9798 54.3036 28.1271C54.6847 28.2744 55.0535 28.4463 55.41 28.6427C55.7665 28.8391 56.0898 29.0392 56.38 29.243C56.6676 29.4443 56.9258 29.6579 57.1544 29.8838C57.3806 30.1121 57.7334 30.171 58.2128 30.0605C58.6923 29.9501 59.2086 29.7966 59.7618 29.6002C60.3149 29.4038 60.862 29.1828 61.4029 28.9373C61.9438 28.6917 62.2733 28.5359 62.3913 28.4696C62.5068 28.4008 62.5683 28.364 62.5757 28.3591L62.583 28.348L62.6199 28.3296L62.6568 28.3112L62.6936 28.2928L62.7305 28.2744L62.7379 28.2633L62.749 28.256L62.7601 28.2486L62.7674 28.2375L62.8043 28.2265L62.8412 28.2191L62.8338 28.2744L62.8227 28.3296L62.8043 28.3849L62.7858 28.4401L62.7674 28.4769L62.749 28.5138L62.7305 28.569C62.7182 28.6058 62.706 28.6549 62.6936 28.7163C62.6814 28.7777 62.5646 29.0232 62.3433 29.4529C62.122 29.8826 61.8454 30.3183 61.5135 30.7603C61.1816 31.2022 60.8841 31.5361 60.6211 31.762C60.3555 31.9903 60.1797 32.1499 60.0937 32.2408C60.0076 32.3341 59.9031 32.42 59.7802 32.4986L59.5958 32.6201L59.5589 32.6385L59.522 32.6569L59.5147 32.668L59.5036 32.6753L59.4925 32.6827L59.4852 32.6938L59.4483 32.7122L59.4114 32.7306L59.4041 32.7416L59.393 32.749L59.3819 32.7564L59.3745 32.7674L59.3672 32.7785L59.3561 32.7858L59.345 32.7932L59.3376 32.8042H59.522L60.5547 32.5833C61.2431 32.436 61.9007 32.258 62.5277 32.0493L63.5234 31.7178L63.6341 31.681L63.6894 31.6626L63.7263 31.6442L63.7631 31.6257L63.8 31.6073L63.8369 31.5889L63.9107 31.5779L63.9844 31.5705V31.6442L63.966 31.6515L63.9475 31.6626L63.9402 31.6736L63.9291 31.681L63.918 31.6883L63.9107 31.6994L63.9033 31.7104L63.8922 31.7178L63.8811 31.7252L63.8738 31.7362L63.8664 31.7473L63.8553 31.7546L63.8369 31.7915L63.8185 31.8283L63.8074 31.8357C63.8025 31.843 63.6464 32.0517 63.339 32.4617C63.0317 32.8742 62.8658 33.0829 62.8412 33.0878C62.8166 33.0952 62.7822 33.132 62.7379 33.1983C62.6961 33.267 62.4355 33.5408 61.9561 34.0196C61.4766 34.4983 61.0071 34.9243 60.5473 35.2975C60.0851 35.6732 59.8515 36.1347 59.8466 36.6822C59.8392 37.2273 59.8109 37.8436 59.7618 38.531C59.7126 39.2185 59.6204 39.9612 59.4852 40.7591C59.35 41.5571 59.141 42.4594 58.8582 43.466C58.5755 44.4726 58.2313 45.4547 57.8256 46.4123C57.4199 47.3698 56.9958 48.2291 56.5533 48.9902C56.1107 49.7514 55.705 50.3958 55.3363 50.9237C54.9675 51.4516 54.5925 51.9487 54.2114 52.4152C53.8304 52.8817 53.3485 53.4072 52.7658 53.9915C52.1807 54.5734 51.8611 54.8926 51.807 54.949C51.7504 55.003 51.5095 55.2044 51.0841 55.553C50.6612 55.9041 50.2064 56.2552 49.7196 56.6063C49.2352 56.9549 48.7902 57.2459 48.3845 57.4791C47.9789 57.7123 47.4896 57.9787 46.9167 58.2783C46.3464 58.5803 45.7292 58.8602 45.0654 59.118C44.4016 59.3758 43.7009 59.6151 42.9633 59.8361C42.2257 60.0571 41.5127 60.229 40.8243 60.3517C40.1359 60.4745 39.3553 60.5788 38.4825 60.6648L37.1733 60.7937V60.8121H34.7761V60.7937L34.4627 60.7752C34.2537 60.763 34.0816 60.7507 33.9464 60.7384C33.8112 60.7261 33.301 60.6586 32.4159 60.5359C31.5308 60.4131 30.8362 60.2903 30.3322 60.1676C29.8282 60.0448 29.0783 59.8116 28.0826 59.4678C27.0868 59.1241 26.2349 58.7767 25.5268 58.4256C24.8212 58.0769 24.3787 57.856 24.1992 57.7627C24.0222 57.6718 23.823 57.5589 23.6018 57.4239L23.2698 57.2213L23.2625 57.2103L23.2514 57.2029L23.2403 57.1955L23.233 57.1845L23.1961 57.1661L23.1592 57.1477L23.1519 57.1366L23.1408 57.1292L23.1297 57.1219L23.1223 57.1108L23.115 57.0998L23.1039 57.0924H23.0854V57.0188L23.1223 57.0261L23.1592 57.0372L23.3252 57.0556C23.4358 57.0679 23.737 57.0863 24.2287 57.1108C24.7204 57.1354 25.2429 57.1354 25.7961 57.1108C26.3493 57.0863 26.9148 57.031 27.4925 56.9451C28.0703 56.8592 28.7526 56.7119 29.5393 56.5032C30.3261 56.2945 31.0489 56.0465 31.7078 55.7592C32.3643 55.4695 32.8314 55.2535 33.1092 55.1111C33.3846 54.9711 33.805 54.7109 34.3705 54.3303L35.2187 53.7595L35.2261 53.7484L35.2371 53.7411L35.2482 53.7337L35.2556 53.7226L35.2629 53.7116L35.274 53.7042L35.2851 53.6969L35.2924 53.6858L35.3293 53.6748L35.3662 53.6674L35.3736 53.6306L35.3846 53.5937L35.3957 53.5864L35.4031 53.5753L35.108 53.5569C34.9114 53.5447 34.7208 53.5324 34.5364 53.5201C34.352 53.5078 34.0632 53.4526 33.6698 53.3544C33.2764 53.2561 32.8523 53.1088 32.3974 52.9124C31.9426 52.716 31.5001 52.4827 31.0698 52.2127C30.6396 51.9426 30.3285 51.7179 30.1367 51.5387C29.9474 51.3619 29.7016 51.1115 29.3992 50.7874C29.0992 50.4609 28.8386 50.1257 28.6173 49.782C28.396 49.4383 28.1846 49.0417 27.983 48.5925L27.6769 47.9222L27.6585 47.867L27.64 47.8117L27.629 47.7749L27.6216 47.7381L27.6769 47.7454L27.7322 47.7565L28.1379 47.8117C28.4084 47.8485 28.8325 47.8608 29.4102 47.8485C29.988 47.8363 30.3875 47.8117 30.6088 47.7749C30.8301 47.7381 30.9653 47.7135 31.0145 47.7012L31.0882 47.6828L31.1804 47.6644L31.2726 47.646L31.28 47.6349L31.2911 47.6276L31.3022 47.6202L31.3095 47.6092L31.2357 47.5908L31.162 47.5723L31.0882 47.5539L31.0145 47.5355L30.9407 47.5171C30.8915 47.5048 30.8055 47.4803 30.6826 47.4434C30.5596 47.4066 30.2277 47.2716 29.6868 47.0383C29.1459 46.8051 28.7157 46.578 28.396 46.357C28.0756 46.1354 27.7701 45.893 27.4814 45.6315C27.1938 45.3663 26.8779 45.025 26.5336 44.6077C26.1895 44.1903 25.8821 43.7054 25.6117 43.153C25.3412 42.6005 25.1384 42.0727 25.0032 41.5693C24.8685 41.069 24.7796 40.5574 24.7377 40.041L24.6713 39.2676L24.7081 39.275L24.745 39.286L24.7819 39.3044L24.8188 39.3228L24.8556 39.3412L24.8925 39.3597L25.4642 39.6175C25.8453 39.7893 26.3185 39.9366 26.884 40.0594C27.4495 40.1821 27.7875 40.2497 27.8982 40.2619L28.0641 40.2804H28.396L28.3887 40.2693L28.3776 40.2619L28.3665 40.2546L28.3592 40.2435L28.3518 40.2325L28.3407 40.2251L28.3297 40.2178L28.3223 40.2067L28.2854 40.1883L28.2485 40.1699L28.2412 40.1588L28.2301 40.1515L28.219 40.1441L28.2116 40.133L28.1748 40.1146L28.1379 40.0962L28.1306 40.0852C28.1232 40.0802 28.0174 40.0017 27.8134 39.8495C27.6117 39.6948 27.4003 39.4947 27.179 39.2492C26.9578 39.0036 26.7365 38.7458 26.5152 38.4758C26.2935 38.2051 26.0961 37.9155 25.9251 37.6103C25.7531 37.3034 25.5711 36.913 25.3793 36.4392C25.19 35.9678 25.0462 35.4927 24.9478 35.0139C24.8495 34.5352 24.7942 34.0625 24.7819 33.596C24.7696 33.1295 24.7819 32.7306 24.8188 32.3991C24.8556 32.0677 24.9294 31.6932 25.04 31.2759C25.1507 30.8585 25.3105 30.4166 25.5195 29.9501L25.8329 29.2503L25.8514 29.1951L25.8698 29.1398L25.8809 29.1325L25.8883 29.1214L25.8956 29.1104L25.9067 29.103L25.9178 29.1104L25.9251 29.1214L25.9325 29.1325L25.9436 29.1398L25.9547 29.1472L25.962 29.1583L25.9694 29.1693L25.9805 29.1767L25.9989 29.2135L26.0173 29.2503L26.0284 29.2577L26.0358 29.2687L26.5336 29.8212C26.8656 30.1894 27.259 30.6007 27.7138 31.0549C28.1686 31.5091 28.4206 31.7448 28.4698 31.762C28.519 31.7816 28.5804 31.8381 28.6542 31.9314C28.728 32.0223 28.9738 32.2396 29.3918 32.5833C29.8098 32.927 30.3568 33.326 31.0329 33.7802C31.709 34.2344 32.4589 34.6825 33.2825 35.1244C34.1062 35.5664 34.9913 35.9653 35.9378 36.3213C36.8844 36.6773 37.5482 36.9106 37.9293 37.0211C38.3104 37.1316 38.9619 37.2727 39.8839 37.4446C40.8059 37.6165 41.5005 37.727 41.9676 37.776C42.4347 37.8251 42.7543 37.8534 42.9264 37.8607L43.1846 37.8681L43.1772 37.8129L43.1661 37.7576L43.0924 37.2973C43.0432 36.9904 43.0186 36.5607 43.0186 36.0083C43.0186 35.4559 43.0617 34.9464 43.1477 34.4799C43.2338 34.0134 43.3629 33.5408 43.5349 33.062C43.707 32.5833 43.8755 32.199 44.0402 31.9093C44.2074 31.6221 44.4262 31.2943 44.6966 30.926C44.9671 30.5577 45.3174 30.1772 45.7477 29.7843C46.1779 29.3915 46.6697 29.0416 47.2228 28.7347C47.776 28.4278 48.2862 28.1946 48.7533 28.035C49.2205 27.8754 49.6139 27.771 49.9335 27.722C50.2531 27.6729 50.4129 27.6446 50.4129 27.6372V27.6372Z" fill="white"/>
</svg>
