<svg width="87" height="87" viewBox="0 0 87 87" fill="none" xmlns="http://www.w3.org/2000/svg">
<rect width="87" height="87" fill="#00BB2D"/>
<path fill-rule="evenodd" clip-rule="evenodd" d="M22.3398 43.5341C22.3398 31.8461 31.8471 22.3389 43.5351 22.3389V22.3392H43.5474C55.2353 22.3392 64.7426 31.8465 64.7426 43.5344C64.7426 55.222 55.2353 64.7296 43.5474 64.7296C39.236 64.7296 35.2361 63.4464 31.8844 61.2285L23.7353 63.8322L26.377 55.9574C23.8351 52.4681 22.3398 48.1694 22.3398 43.5341ZM36.2709 32.0573C36.8937 32.0827 37.2053 32.1199 37.6164 33.1042C37.7492 33.4248 37.9316 33.8673 38.1315 34.3523C38.7009 35.7336 39.4121 37.459 39.5228 37.6896C39.6722 38.0012 39.822 38.4249 39.61 38.836C39.4245 39.2302 39.2606 39.4196 38.9878 39.7349C38.9674 39.7585 38.9463 39.7829 38.9246 39.808C38.7912 39.9628 38.6602 40.1014 38.5295 40.2398C38.3548 40.4246 38.1807 40.6089 38.0025 40.83L37.9875 40.8476C37.7052 41.1789 37.3983 41.5389 37.7535 42.1508C38.1147 42.7613 39.3606 44.7922 41.1925 46.4243C43.3664 48.3577 45.1619 49.0837 45.9717 49.4111C46.0439 49.4403 46.1082 49.4663 46.1643 49.4897C46.6749 49.7018 47.2858 49.6519 47.6596 49.2531C48.0648 48.8163 48.5518 48.133 49.0586 47.4219C49.1443 47.3018 49.2305 47.1808 49.317 47.0601C49.7404 46.4619 50.276 46.387 50.8369 46.5987C51.4101 46.7981 54.4383 48.2934 55.0611 48.6049C55.1883 48.6686 55.3067 48.7256 55.4158 48.778C55.841 48.9825 56.1259 49.1194 56.2448 49.3276C56.3946 49.5893 56.3946 50.8229 55.8836 52.2686C55.3727 53.7136 53.3414 54.9103 51.7217 55.2592C50.6129 55.4958 49.1672 55.6829 44.2952 53.6644C38.5246 51.2748 34.6565 45.6679 33.8698 44.5274C33.8071 44.4366 33.764 44.3741 33.741 44.3438C33.7323 44.3318 33.7219 44.3175 33.7099 44.3012C33.314 43.76 31.2242 40.9027 31.2242 37.9512C31.2242 34.996 32.6839 33.5125 33.3377 32.8481C33.3565 32.829 33.3747 32.8105 33.3922 32.7927C33.9031 32.2694 34.7503 32.0327 35.5605 32.0327C35.7975 32.0339 36.0344 32.0421 36.2709 32.0573Z" fill="white"/>
</svg>
