<svg width="87" height="87" viewBox="0 0 87 87" fill="none" xmlns="http://www.w3.org/2000/svg">
<rect width="87" height="87" fill="#F02B2B"/>
<path d="M46.0687 61.1788L35.3454 60.9784C31.8734 60.9086 28.3928 61.048 24.9889 60.3244C19.8108 59.2434 19.4439 53.943 19.0601 49.4969C18.5312 43.2463 18.7359 36.8823 19.7341 30.6839C20.2975 27.2059 22.515 25.1306 25.9443 24.9048C37.5207 24.0852 49.1741 24.1823 60.7248 24.5647C61.9447 24.5997 63.173 24.7913 64.3759 25.0094C70.3136 26.073 70.4584 32.0796 70.8433 37.136C71.2272 42.2445 71.0651 47.3793 70.3314 52.4531C69.7428 56.6541 68.6166 60.177 63.864 60.5171C57.9093 60.9618 52.0912 61.3198 46.1198 61.2058C46.12 61.1788 46.0857 61.1788 46.0687 61.1788ZM39.7644 50.5432C44.2518 47.9102 48.6536 45.3211 53.1153 42.7058C48.6195 40.0729 44.2261 37.4838 39.7644 34.8685V50.5432Z" fill="white"/>
</svg>
